<?xml version="1.0" encoding="utf-8"?>
<!-- Generator: Adobe Illustrator 16.0.0, SVG Export Plug-In . SVG Version: 6.00 Build 0)  -->
<!DOCTYPE svg PUBLIC "-//W3C//DTD SVG 1.1//EN" "http://www.w3.org/Graphics/SVG/1.1/DTD/svg11.dtd">
<svg version="1.1" id="圖層_1" xmlns="http://www.w3.org/2000/svg" xmlns:xlink="http://www.w3.org/1999/xlink" x="0px" y="0px"
	 width="90px" height="90.5px" viewBox="0 0 90 90.5" enable-background="new 0 0 90 90.5" xml:space="preserve">
<circle fill="#FFFFFF" cx="44.833" cy="45.377" r="44.125"/>
<g>
	<g>
		<polygon fill="#B81C3D" points="18,29.69 45.5,14.137 73,29.69 73,60.796 45.5,76.348 18,60.796 		"/>
	</g>
	<g id="mfeLxH_3_">
		<g>
			<g>
				<g>
					<path fill-rule="evenodd" clip-rule="evenodd" fill="#FFFFFF" d="M64.109,30.93c-0.39,1.901-1.652,2.954-3.45,3.377
						c-1.336,0.313-2.704,0.508-4.062,0.703c-0.925,0.134-1.639,0.503-2.291,1.209c-6.082,6.59-6.466,6.453-12.564,13.027
						c-0.377,0.403-0.71,0.858-0.997,1.329c-0.712,1.181-0.608,1.998,0.315,3.021c1.924,2.121,1.962,2.16-0.064,4.234
						c-2.905,2.974-6.422,4.771-10.583,5.21c-0.658,0.069-1.337,0.03-2.003-0.005c-1.169-0.059-1.942-0.688-1.986-1.85
						c-0.06-1.549-0.121-3.135,0.14-4.652c0.606-3.539,2.407-6.528,4.776-9.179c0.972-1.084,1.634-1.093,2.771-0.159
						c0.345,0.283,0.666,0.6,1.028,0.858c0.84,0.597,1.729,0.669,2.588,0.065c0.546-0.383,1.077-0.805,1.528-1.29
						c6.117-6.554,6.499-6.423,12.568-13.023c0.508-0.55,0.781-1.393,0.964-2.148c0.193-0.822,0.156-1.698,0.208-2.553
						c0.146-2.39,0.817-4.46,3.266-5.477C58.876,26.062,61.493,28.495,64.109,30.93z M55.784,25.958
						c-0.12,0.021-0.238,0.044-0.359,0.067c0.035,2.078,0.067,4.157,0.103,6.391c2.254-0.141,4.32-0.268,6.386-0.397
						c0.006-0.113,0.013-0.228,0.019-0.343C59.882,29.771,57.835,27.862,55.784,25.958z"/>
				</g>
			</g>
		</g>
	</g>
</g>
</svg>
