<?xml version="1.0" encoding="utf-8"?>
<!-- Generator: Adobe Illustrator 16.0.0, SVG Export Plug-In . SVG Version: 6.00 Build 0)  -->
<!DOCTYPE svg PUBLIC "-//W3C//DTD SVG 1.1//EN" "http://www.w3.org/Graphics/SVG/1.1/DTD/svg11.dtd">
<svg version="1.1" id="圖層_1" xmlns="http://www.w3.org/2000/svg" xmlns:xlink="http://www.w3.org/1999/xlink" x="0px" y="0px"
	 width="126px" height="126.5px" viewBox="0 0 126 126.5" enable-background="new 0 0 126 126.5" xml:space="preserve">
<g>
	<defs>
		<circle id="SVGID_7_" cx="159.244" cy="-108.509" r="71.492"/>
	</defs>
	<clipPath id="SVGID_1_">
		<use xlink:href="#SVGID_7_"  overflow="visible"/>
	</clipPath>
	<circle clip-path="url(#SVGID_1_)" fill="#FFFFFF" cx="159.68" cy="-89.873" r="105.727"/>
</g>
<circle fill="#B81C3D" cx="63.358" cy="63.213" r="61.994"/>
<circle fill="#FFFFFF" cx="63.165" cy="63.503" r="54"/>
<g id="xAMAJ9_1_">
	<g>
		<path fill-rule="evenodd" clip-rule="evenodd" fill="#501B1A" d="M76.735,18.564c-0.062-0.092-0.111-0.193-0.187-0.271
			c-0.315-0.318-0.638-0.633-0.959-0.943c-0.18-0.174-0.26-0.365-0.096-0.579c0.536-0.696,1.028-1.419,1.706-2.015
			c0.831-0.73,1.792-0.883,2.792-0.764c0.676,0.082,1.29,0.5,1.582,1.16c0.383,0.867,0.953,1.603,1.643,2.199
			c0.563,0.488,1.263,0.91,1.974,1.122c1.086,0.321,2.234,0.428,3.353,0.644c0.177,0.032,0.37,0.119,0.498,0.239
			c0.973,0.929,1.936,1.87,2.897,2.812c0.319,0.311,0.31,0.458-0.093,0.659c-0.536,0.268-1.134,0.439-1.626,0.77
			c-0.576,0.388-1.103,0.865-1.581,1.368c-0.395,0.413-0.676,0.933-1.032,1.385c-0.418,0.528-0.669,1.116-0.734,1.784
			c-0.007,0.09-0.014,0.182-0.038,0.268c-0.513,1.811,0.009,3.578,0.221,5.358c0.045,0.36,0.252,0.612,0.553,0.837
			c0.18,0.133,0.3,0.405,0.352,0.638c0.243,1.108,0.001,2.189-0.263,3.259c-0.033,0.132-0.199,0.267-0.336,0.331
			c-0.896,0.432-1.373,1.148-1.519,2.118c-0.062,0.404-0.156,0.806-0.26,1.202c-0.162,0.615-0.249,1.213,0.173,1.69
			c-1.863,1.718-3.251,3.723-4.236,6.012c-0.15,0.351-0.356,0.697-0.409,1.064c-0.047,0.315,0.084,0.66,0.143,0.992
			c0.035,0.19,0.127,0.383,0.116,0.569c-0.117,2.045-0.541,4.035-1.14,5.99c-0.803,2.627-1.354,5.312-1.789,8.023
			c-0.226,1.405-0.506,2.795-0.941,4.155c-0.285,0.888-0.371,1.838-0.668,2.719c-0.555,1.636-1.23,3.229-1.794,4.861
			c-0.995,2.864-2.384,5.551-3.75,8.238c-0.753,1.478-1.689,2.869-2.646,4.229c-0.4,0.567-0.923,1.116-1.714,1.282
			c-0.451,0.096-0.828,0.398-1.168,0.762c-1.071,1.138-1.94,2.422-2.704,3.767c-0.458,0.805-0.733,1.715-1.075,2.583
			c-0.528,1.348-1.031,2.703-1.562,4.048c-0.326,0.823-0.353,1.666-0.252,2.531c0.27,2.267,0.274,4.544,0.184,6.821
			c-0.006,0.133-0.073,0.271-0.134,0.395c-0.473,0.937-0.955,1.868-1.422,2.808c-0.092,0.184-0.188,0.263-0.405,0.257
			c-0.856-0.021-1.716-0.012-2.572-0.027c-0.465-0.009-0.698-0.239-0.744-0.704c-0.095-0.955-0.19-1.909-0.274-2.864
			c-0.018-0.203-0.019-0.416,0.03-0.61c0.309-1.229,0.044-2.432-0.382-3.541c-0.682-1.776-1.358-3.58-2.513-5.128
			c-0.332-0.446-0.73-0.854-1.142-1.231c-0.549-0.501-1.063-1.008-1.821-1.289c-0.584-0.217-1.041-0.8-1.516-1.26
			c-0.172-0.169-0.292-0.299-0.541-0.218c-0.376,0.124-0.696,0.023-0.991-0.232c-0.192-0.168-0.429-0.285-0.623-0.452
			c-0.244-0.212-0.399-0.428-0.496-0.803c-0.235-0.936-0.515-1.919-1.508-2.42c-0.513-0.259-0.774-0.744-0.964-1.246
			c-0.063-0.171,0.017-0.458,0.13-0.623c0.2-0.29,0.231-0.546,0.082-0.855c-0.196-0.404-0.339-0.838-0.561-1.224
			c-1.103-1.91-1.431-4.021-1.697-6.165c-0.106-0.86-0.465-1.688-0.706-2.519c-0.119,0.007-0.162-0.001-0.192,0.012
			c-0.912,0.469-1.479-0.252-2.106-0.662c-0.142-0.093-0.125-0.513-0.093-0.771c0.04-0.302,0.328-0.318,0.576-0.315
			c0.678,0.004,0.827-0.166,0.713-0.826c-0.021-0.114-0.054-0.227-0.062-0.341c-0.021-0.347-0.198-0.521-0.541-0.585
			c-0.526-0.099-0.65-0.288-0.465-0.777c0.463-1.22,0.942-2.432,1.443-3.638c0.137-0.326,0.368-0.613,0.56-0.915
			c0.035-0.053,0.084-0.123,0.137-0.13c0.56-0.079,0.457-0.509,0.484-0.882c0.092-1.304-0.15-2.573-0.354-3.85
			c-0.211-1.326-0.382-2.657-0.526-3.994c-0.035-0.321,0.036-0.697,0.179-0.991c0.686-1.429,1.392-2.852,2.137-4.252
			c0.312-0.591,0.633-1.206,1.271-1.546c0.104-0.054,0.168-0.188,0.241-0.292c1.067-1.528,1.792-3.243,2.672-4.877
			c0.763-1.418,1.537-2.835,2.373-4.21c0.327-0.537,0.844-0.957,1.268-1.435c0.099-0.112,0.202-0.239,0.245-0.377
			c0.558-1.832,1.311-3.588,2.253-5.243c0.538-0.943,1.313-1.758,2.018-2.601c0.384-0.456,0.706-0.919,0.911-1.489
			c0.316-0.878,0.702-1.732,1.071-2.591c0.062-0.146,0.165-0.291,0.285-0.4c1.441-1.311,2.845-2.668,4.356-3.894
			c0.552-0.444,0.625-0.983,0.771-1.524c0.483-1.788,1.266-3.427,2.311-4.948c0.115-0.168,0.229-0.344,0.309-0.53
			c0.456-1.068,1.307-1.785,2.185-2.477c0.111-0.086,0.238-0.15,0.365-0.213c0.732-0.365,1.487-0.696,2.199-1.104
			c1.016-0.582,2.097-0.797,3.256-0.889c1.072-0.084,2.161-0.266,3.047-1.013c0.348-0.294,0.676-0.26,1.049,0.042
			c0.245,0.201,0.473,0.426,0.707,0.64C76.666,18.615,76.701,18.589,76.735,18.564z"/>
	</g>
</g>
</svg>
