<?xml version="1.0" encoding="utf-8"?>
<!-- Generator: Adobe Illustrator 16.0.0, SVG Export Plug-In . SVG Version: 6.00 Build 0)  -->
<!DOCTYPE svg PUBLIC "-//W3C//DTD SVG 1.1//EN" "http://www.w3.org/Graphics/SVG/1.1/DTD/svg11.dtd">
<svg version="1.1" id="圖層_1" xmlns="http://www.w3.org/2000/svg" xmlns:xlink="http://www.w3.org/1999/xlink" x="0px" y="0px"
	 width="65.25px" height="67px" viewBox="0 0 65.25 67" enable-background="new 0 0 65.25 67" xml:space="preserve">
<polygon fill="#FFFFFF" stroke="#B81C3D" stroke-width="2" stroke-miterlimit="10" points="9.75,24.223 32.75,10.491 55.75,24.223 
	55.75,51.681 32.75,65.41 9.75,51.681 "/>
<path fill="#B81C3D" d="M49.403,38.327c-11.205,0-15.162-9.49-16.561-16.098c0,0-0.038-4.589-0.396-2.199
	c-0.357-2.39-0.396,2.198-0.396,2.198c-1.398,6.607-5.355,16.099-16.562,16.099c11.207,0,15.164,9.491,16.562,16.099
	c0,0,0.039,4.587,0.396,2.197c0.357,2.39,0.396-2.199,0.396-2.199C34.241,47.816,38.198,38.327,49.403,38.327z"/>
<polygon fill="none" stroke="#B81C3D" stroke-width="2" stroke-miterlimit="10" points="1.67,56.25 32.613,2.654 63.559,56.25 "/>
</svg>
