<?xml version="1.0" encoding="UTF-8" standalone="no"?>
<!-- Generator: Adobe Illustrator 16.0.0, SVG Export Plug-In . SVG Version: 6.00 Build 0)  -->

<svg
   xmlns:dc="http://purl.org/dc/elements/1.1/"
   xmlns:cc="http://creativecommons.org/ns#"
   xmlns:rdf="http://www.w3.org/1999/02/22-rdf-syntax-ns#"
   xmlns:svg="http://www.w3.org/2000/svg"
   xmlns="http://www.w3.org/2000/svg"
   xmlns:sodipodi="http://sodipodi.sourceforge.net/DTD/sodipodi-0.dtd"
   xmlns:inkscape="http://www.inkscape.org/namespaces/inkscape"
   version="1.1"
   id="圖層_1"
   x="0px"
   y="0px"
   width="899px"
   height="139px"
   viewBox="0 0 899 139"
   enable-background="new 0 0 899 139"
   xml:space="preserve"
   inkscape:version="0.48.5 r10040"
   sodipodi:docname="appy_v_web＿img-73.svg"
   inkscape:export-filename="/Users/yurenju/src/projectV/app/images/toturial.png"
   inkscape:export-xdpi="127.3"
   inkscape:export-ydpi="127.3"><metadata
     id="metadata275"><rdf:RDF><cc:Work
         rdf:about=""><dc:format>image/svg+xml</dc:format><dc:type
           rdf:resource="http://purl.org/dc/dcmitype/StillImage" /><dc:title></dc:title></cc:Work></rdf:RDF></metadata><defs
     id="defs273" /><sodipodi:namedview
     pagecolor="#ffffff"
     bordercolor="#666666"
     borderopacity="1"
     objecttolerance="10"
     gridtolerance="10"
     guidetolerance="10"
     inkscape:pageopacity="0"
     inkscape:pageshadow="2"
     inkscape:window-width="640"
     inkscape:window-height="480"
     id="namedview271"
     showgrid="false"
     inkscape:zoom="0.37041157"
     inkscape:cx="449.5"
     inkscape:cy="69.5"
     inkscape:window-x="0"
     inkscape:window-y="0"
     inkscape:window-maximized="0"
     inkscape:current-layer="圖層_1" /><g
     id="g3"><g
       id="g5"><circle
         fill="#FFFFFF"
         cx="825.458"
         cy="72.871"
         r="60.458"
         id="circle7" /><path
         fill="#B81C3D"
         d="M825.458,134.329c-33.888,0-61.458-27.57-61.458-61.458s27.57-61.458,61.458-61.458    s61.457,27.57,61.457,61.458S859.346,134.329,825.458,134.329z M825.458,13.413C792.673,13.413,766,40.086,766,72.871    s26.673,59.458,59.458,59.458s59.457-26.673,59.457-59.458S858.243,13.413,825.458,13.413z"
         id="path9" /></g><g
       id="g11"><rect
         x="181"
         y="77"
         fill="#B81C3D"
         width="138"
         height="37"
         id="rect13" /></g><g
       id="g15"><rect
         x="181"
         y="28"
         fill="#B81C3D"
         width="66"
         height="37"
         id="rect17" /></g><g
       id="g19"><g
         id="g21"><path
           fill="#B81C3D"
           d="M605.125,46h11.964c2.579,0,4.739-3,5.324-6H599.8C600.384,43,602.546,46,605.125,46z"
           id="path23" /></g><g
         id="g25"><g
           id="g27"><path
             fill="#B81C3D"
             d="M627.822,42h-3.499c-0.686,3-3.224,6-6.249,6h-14.038c-3.026,0-5.562-3-6.248-6h-3.5      c-2.26,0-3.288,1.286-3.288,3.548v48.604c0,2.261,1.028,3.849,3.288,3.849h33.534c2.262,0,4.178-1.588,4.178-3.849V45.548      C632,43.286,630.084,42,627.822,42z M625,71.5c0,0.828-0.672,1.5-1.5,1.5h-25c-0.828,0-1.5-0.672-1.5-1.5l0,0      c0-0.828,0.672-1.5,1.5-1.5h25C624.328,70,625,70.672,625,71.5L625,71.5z M625,63.5c0,0.828-0.672,1.5-1.5,1.5h-25      c-0.828,0-1.5-0.672-1.5-1.5l0,0c0-0.828,0.672-1.5,1.5-1.5h25C624.328,62,625,62.672,625,63.5L625,63.5z M625,55.5      c0,0.828-0.672,1.5-1.5,1.5h-25c-0.828,0-1.5-0.672-1.5-1.5l0,0c0-0.828,0.672-1.5,1.5-1.5h25C624.328,54,625,54.672,625,55.5      L625,55.5z"
             id="path29" /></g></g></g><g
       id="g31"><g
         id="g33"><path
           fill="#FFFFFF"
           d="M200.28,57.364v-2.353h11.462v-2.879h-10.383v-2.354h10.383v-2.74h-9.523V33.667h21.565v13.372h-9.495     v2.74h10.464v2.354h-10.464v2.879h11.488v2.353H200.28z M211.742,39.177v-3.239h-7.061v3.239H211.742z M211.742,44.769v-3.405     h-7.061v3.405H211.742z M221.293,39.177v-3.239h-7.004v3.239H221.293z M221.293,44.769v-3.405h-7.004v3.405H221.293z"
           id="path35" /></g></g><g
       id="g37"><g
         id="g39"><path
           fill="#FFFFFF"
           d="M198.424,96.182l1.523-0.359l1.771-0.498v2.602c-0.591,0.222-1.135,0.397-1.633,0.526l-1.662,0.415v6.423     v0.36c0,0.959-0.175,1.67-0.525,2.131c-0.351,0.462-1.219,0.692-2.602,0.692h-2.326l-0.637-2.74l2.547,0.083     c0.609,0,0.914-0.296,0.914-0.886v-5.564c-0.277,0.092-0.822,0.203-1.634,0.332l-1.772,0.305l-0.553-2.824     c0.239-0.019,0.512-0.037,0.816-0.056c0.305-0.018,0.715-0.064,1.232-0.138l1.91-0.305v-5.647h-3.682v-2.464h3.682v-5.398h2.629     v5.398h3.434v2.464h-3.434V96.182z M215.256,97.013c-0.738,2.621-2.104,4.882-4.097,6.782c1.587,0.886,3.626,1.643,6.118,2.271     l-1.246,2.464c-2.621-0.72-4.992-1.771-7.115-3.156c-1.68,1.145-4.198,2.205-7.557,3.184l-1.523-2.436     c3.064-0.628,5.454-1.458,7.17-2.492l-0.664-0.664c-0.738-0.775-1.578-1.781-2.52-3.018c-0.147-0.203-0.35-0.471-0.608-0.803     l2.132-1.19c0.904,1.311,2.039,2.621,3.404,3.931l0.36,0.36c1.495-1.292,2.648-2.972,3.46-5.039h-10.049v-2.353h12.734V97.013z      M213.678,89.87c0,0.646,0.084,1.052,0.25,1.218c0.166,0.167,0.508,0.25,1.023,0.25h1.994v2.325h-2.935     c-1.016,0-1.759-0.226-2.229-0.679c-0.47-0.452-0.705-1.314-0.705-2.588v-4.153h-4.43v0.887c0,1.643-0.281,3.018-0.844,4.125     c-0.563,1.106-1.537,2.205-2.921,3.294l-2.077-1.993c1.385-0.941,2.285-1.854,2.699-2.741c0.416-0.886,0.623-2.039,0.623-3.46     v-2.437h9.551V89.87z"
           id="path41" /></g><g
         id="g43"><path
           fill="#FFFFFF"
           d="M233.334,93.331h-8.361v15.309h-2.547V84.057h10.908V93.331z M230.869,86.105h-5.896v1.661h5.896V86.105z      M224.973,91.255h5.896v-1.772h-5.896V91.255z M238.345,99.781h3.931v2.187h-3.931v5.896h-2.325v-5.896h-3.212     c-0.093,2.529-1.56,4.577-4.401,6.146l-1.883-1.744c0.24-0.13,0.443-0.24,0.609-0.333c1.955-1.033,3.035-2.39,3.238-4.069h-3.959     v-2.187h4.153v-2.796h-3.322v-2.132h14.202v2.132h-3.101V99.781z M236.02,96.985h-3.129v2.796h3.129V96.985z M242.885,105.899     c0.627,0,0.941-0.286,0.941-0.858v-11.71h-8.472v-9.274h11.019v20.957v0.691c0,1.698-0.868,2.547-2.603,2.547h-3.018     l-0.637-2.464L242.885,105.899z M237.791,87.767h6.035v-1.661h-6.035V87.767z M243.826,89.482h-6.035v1.772h6.035V89.482z"
           id="path45" /></g><g
         id="g47"><path
           fill="#FFFFFF"
           d="M260.465,103.49c-1.754,1.422-4.199,2.76-7.337,4.015l-1.384-2.437c2.676-0.627,5.02-1.78,7.031-3.46     L260.465,103.49z M276.908,98.896v2.27h-10.879v3.932v0.332c0,0.996-0.204,1.721-0.609,2.173     c-0.406,0.452-1.246,0.679-2.52,0.679h-2.713l-0.609-2.437l2.879,0.11c0.591,0,0.887-0.286,0.887-0.857v-3.932h-11.379v-2.27     H276.908z M252.076,83.752h24.666v2.354h-8.056v1.688h6.616v6.118h-22.064v-6.118h6.451v-1.688h-7.613V83.752z M253.682,95.269     h21.206v2.159h-21.206V95.269z M259.689,91.946v-2.215h-3.959v2.215H259.689z M262.152,86.105v1.688h4.07v-1.688H262.152z      M262.152,89.731v2.215h4.07v-2.215H262.152z M275.885,107.615c-1.994-1.126-4.172-2.15-6.534-3.072     c-0.296-0.111-0.674-0.259-1.135-0.443l1.245-2.159l3.877,1.467c1.144,0.443,2.371,1.007,3.682,1.689L275.885,107.615z      M272.839,89.731h-4.152v2.215h4.152V89.731z"
           id="path49" /></g><g
         id="g51"><path
           fill="#FFFFFF"
           d="M286.127,99.116c-0.332,3.359-1.08,6.487-2.242,9.385l-2.381-1.633c1.402-3.359,2.104-7.18,2.104-11.461     v-10.16c4.393-0.332,7.465-0.84,9.219-1.522l1.135,2.325c-2.27,0.572-4.559,0.979-6.865,1.218     c-0.258,0.037-0.572,0.083-0.941,0.139v2.686h6.922v9.024H286.127z M286.154,96.708h4.402V92.5h-4.402V96.708z M304.344,108.64     h-2.575V94.549h-4.097v0.166v0.554c0,3.156-0.218,5.652-0.651,7.488c-0.434,1.837-1.343,3.761-2.727,5.772l-2.271-1.744     c1.219-1.569,2.044-3.156,2.479-4.762c0.434-1.605,0.65-3.82,0.65-6.645c0-0.295-0.005-0.581-0.014-0.857     c-0.01-0.277-0.014-0.554-0.014-0.831v-8.499c0.461-0.036,0.848-0.064,1.162-0.083c3.654-0.295,6.699-0.849,9.136-1.661     l1.135,2.298c-2.196,0.609-4.928,1.135-8.194,1.578c-0.185,0.019-0.415,0.046-0.691,0.083v4.679h9.301v2.464h-2.629V108.64z"
           id="path53" /></g></g><g
       id="g55"><g
         id="g57"><path
           fill="#231815"
           d="M78.467,70.653l0.25-0.376c1.268-1.917,2.127-3.385,2.577-4.402h-3.127v-1.976h5.478v1.676     c-0.133,0.284-0.241,0.525-0.324,0.726c-0.685,1.434-1.451,2.793-2.302,4.077h2.677v1.401l-0.301,1.9     c-0.166,0.918-0.35,1.576-0.55,1.977c0.7,1.384,1.805,2.251,3.314,2.602c1.509,0.35,4.122,0.525,7.842,0.525     c2.001,0,3.919-0.043,5.753-0.125c0.334,0,0.733-0.025,1.201-0.076l-0.4,2.277h-6.054c-4.702,0-7.767-0.188-9.192-0.563     s-2.531-1.238-3.314-2.589c-0.7,1.4-1.543,2.635-2.526,3.702l-1.526-1.776c1.901-1.9,3.094-4.336,3.578-7.304h-3.053V70.653z      M81.744,63.273l-1.477-1.775c-0.483-0.566-1.025-1.125-1.625-1.676l1.451-1.201c0.232,0.201,0.425,0.359,0.574,0.476     c0.9,0.751,1.801,1.626,2.702,2.626L81.744,63.273z M84.396,72.629h3.702v-1.75H84.67v-1.701h3.428v-1.15h2.126v1.15h3.877v-1.15     h2.151v1.15h3.702v1.701h-3.702v1.75h4.178v1.701H84.396V72.629z M91.5,63.924h-4.778v1.227c0,0.467,0.217,0.7,0.65,0.7h2.052     c0.449,0,0.75-0.517,0.9-1.551l1.9,0.65c-0.199,1.034-0.455,1.722-0.763,2.063c-0.309,0.342-0.796,0.513-1.464,0.513h-3.451     c-1.268,0-1.901-0.726-1.901-2.177v-6.277H91.5V63.924z M90.574,75.932c-1.435,0.9-2.91,1.667-4.428,2.301l-1.326-1.876     c1.734-0.583,3.168-1.251,4.303-2.001L90.574,75.932z M89.424,60.772h-2.702v1.601h2.702V60.772z M94.101,70.879h-3.877v1.75     h3.877V70.879z M99.679,63.924h-4.952v1.151c0,0.517,0.25,0.775,0.75,0.775h2.151c0.351,0,0.566-0.167,0.65-0.501l0.226-1.025     l1.95,0.626c-0.284,1.15-0.575,1.868-0.876,2.151c-0.299,0.283-0.767,0.425-1.4,0.425h-3.602c-1.268,0-1.901-0.726-1.901-2.177     v-6.277h7.004V63.924z M94.877,74.355c0.183,0.066,0.332,0.117,0.449,0.15c1.734,0.6,3.152,1.242,4.252,1.926l-1.325,1.875     l-2.251-1.275c-0.334-0.184-0.959-0.508-1.876-0.975c-0.117-0.051-0.267-0.125-0.45-0.226L94.877,74.355z M97.628,60.647h-2.901     v1.726h2.901V60.647z"
           id="path59" /></g><g
         id="g61"><path
           fill="#231815"
           d="M105.482,72.579l-0.977,0.325l-1.2,0.375l-0.351-2.301l1.401-0.351l1.126-0.375v-5.178h-2.477v-2.101     h2.477v-4.653h2.251v4.653h2.051v2.101h-2.051v4.353l1.075-0.476c0.5-0.2,0.816-0.366,0.951-0.501l0.3,2.277l-1.001,0.449     l-1.325,0.602v6.527v0.301c0,0.9-0.185,1.555-0.55,1.964c-0.367,0.408-1.127,0.612-2.277,0.612h-1.2l-0.55-2.376l1.5,0.101     c0.551,0,0.826-0.26,0.826-0.775V72.579z M118.689,64.75V66h6.053v1.877h-6.053v1.351h7.129v1.926h-3.303l-0.399,0.976     c-0.083,0.184-0.217,0.417-0.4,0.7l-0.075,0.15h4.178v1.951h-7.129v1.525h6.553v1.876h-6.553v3.002h-2.127v-3.002h-6.128v-1.876     h6.128v-1.525h-6.803v-1.951h4.227l-0.425-0.95l-0.45-0.876h-2.677v-1.926h6.128v-1.351h-5.752V66h5.752v-1.25h-5.978v-5.703     h14.532v5.703H118.689z M112.486,60.873v2.025h2.351v-2.025H112.486z M119.39,72.979c0.183-0.233,0.375-0.534,0.575-0.9     l0.45-0.926h-5.202c0.133,0.2,0.283,0.492,0.449,0.876l0.426,0.95H119.39z M116.663,60.873v2.025h2.276v-2.025H116.663z      M123.217,62.874v-2.026h-2.451v2.026H123.217z"
           id="path63" /></g></g><g
       id="g65"><g
         id="g67"><path
           fill="#231815"
           d="M482.57,76.814c-0.4,0.2-0.725,0.367-0.975,0.5c-1.385,0.701-2.977,1.393-4.777,2.076     c-0.284,0.101-0.643,0.242-1.076,0.426l-0.301-2.426c1.018-0.217,1.91-0.518,2.678-0.9v-7.779h-2.553v-2.052h2.553v-7.004h2.201     v7.004h2.25v2.052h-2.25v6.953l1.125-0.525c0.25-0.116,0.551-0.283,0.9-0.5c0.051-0.033,0.125-0.075,0.225-0.125v1.65h1.252     V64.158h4.877l0.225-0.576c0.066-0.149,0.109-0.291,0.125-0.425c0-0.05,0.009-0.108,0.025-0.175h-6.379v-1.776h6.68l0.15-0.726     l0.1-0.825l2.326,0.149l-0.1,0.776l-0.125,0.625h6.328v1.776H491.4l-0.15,0.6l-0.199,0.576h5.953v12.006h1.451v1.926H482.57     V76.814z M488.699,79.691c-1.801,1.201-3.803,2.184-6.004,2.951l-1.325-1.926c2.317-0.7,4.294-1.559,5.929-2.576L488.699,79.691z      M485.998,65.884v1.251h8.83v-1.251H485.998z M485.998,68.735v1.325h8.83v-1.325H485.998z M485.998,71.688v1.375h8.83v-1.375     H485.998z M485.998,74.688v1.476h8.83v-1.476H485.998z M497.43,82.618c-1.335-0.734-3.002-1.526-5.004-2.376     c-0.25-0.101-0.566-0.234-0.95-0.4l1.075-1.602c1.518,0.434,3.486,1.227,5.904,2.377L497.43,82.618z"
           id="path69" /></g><g
         id="g71"><path
           fill="#231815"
           d="M503.157,66.158h-2.126v-4.727h9.78l-0.075-0.226c-0.033-0.101-0.125-0.274-0.275-0.525l-0.426-0.726     l2.402-0.275c0.232,0.334,0.416,0.635,0.55,0.901l0.4,0.851h9.556v4.727h-2.052v6.504H509.26l-0.5,0.676     c-0.217,0.268-0.408,0.467-0.574,0.6h14.982c-0.084,2.219-0.246,4.027-0.488,5.429c-0.241,1.401-0.612,2.28-1.112,2.639     c-0.501,0.358-1.71,0.538-3.627,0.538c-0.601,0-0.96-0.009-1.075-0.025l-0.626-2.176c1.351,0.05,2.33,0.074,2.938,0.074     c0.609,0,0.997-0.299,1.164-0.9c0.166-0.6,0.333-1.842,0.5-3.727h-14.533c-0.117,0.084-0.217,0.158-0.3,0.225     c-1.018,0.734-2.251,1.451-3.702,2.152c-0.117,0.049-0.268,0.125-0.45,0.225l-1.401-2.076c2.668-0.801,4.72-2.018,6.154-3.652     h-3.452V66.158z M506.885,77.516c-0.117,0.283-0.209,0.517-0.275,0.699c-0.751,1.885-1.501,3.328-2.252,4.328l-1.9-1.101     c0.934-1.335,1.768-2.885,2.501-4.653L506.885,77.516z M510.111,63.832l1.15,1.802c-1.352,0.517-3.027,0.876-5.027,1.075     c-0.234,0.018-0.525,0.042-0.876,0.075v1.051h5.679v1.626h-5.679v1.451h13.332v-1.451h-5.703v-1.626h5.703v-1.376h-6.179v-1.727     h8.13v-1.375h-17.284v1.775C506.025,65.033,508.276,64.6,510.111,63.832z M508.385,82.168c-0.066-0.734-0.1-1.635-0.1-2.701     c0-0.867-0.066-1.593-0.2-2.177l1.976-0.226c0.201,0.718,0.359,2.11,0.476,4.178c0,0.217,0.017,0.467,0.05,0.75L508.385,82.168z      M512.762,81.393l-0.375-2.427c-0.083-0.55-0.225-1.15-0.425-1.801l1.901-0.4c0.333,0.7,0.658,1.942,0.975,3.728     c0.018,0.116,0.042,0.258,0.076,0.425L512.762,81.393z M516.89,79.791l-0.525-1.75c-0.25-0.751-0.425-1.227-0.525-1.426     l1.701-0.551c0.5,0.783,0.909,1.826,1.226,3.127L516.89,79.791z"
           id="path73" /></g><g
         id="g75"><path
           fill="#231815"
           d="M531.572,66.484c-0.917,0.617-2.676,1.334-5.277,2.15l-0.701-2.226c0.317-0.083,0.584-0.15,0.801-0.2     c2.002-0.517,3.519-1.066,4.553-1.65L531.572,66.484z M535.25,80.617c-2.619,0.767-5.145,1.384-7.58,1.851     c-0.217,0.033-0.492,0.083-0.824,0.15l-1.076-1.876c3.535-0.584,6.195-1.168,7.979-1.752L535.25,80.617z M530.271,64.008     c-0.334-0.267-1.025-0.676-2.076-1.226l-1.875-0.976l1.426-1.65c1.634,0.584,2.942,1.268,3.927,2.051L530.271,64.008z      M533.174,68.535l-1.201-1.351c3.002-0.867,5.069-2.177,6.203-3.927H535.9c-0.135,0.1-0.234,0.184-0.301,0.25     c-0.533,0.467-0.917,0.783-1.15,0.95l-1.525,1.075l-1.477-1.601c1.617-1.017,2.723-1.805,3.314-2.364     c0.592-0.559,1.172-1.204,1.738-1.938l2.051,0.675l-0.475,0.626l-0.475,0.55h9.68v1.801c-0.566,0.65-1.376,1.368-2.426,2.151     c-0.168,0.117-0.393,0.283-0.676,0.5l-1.352-1.326l1.102-0.699l0.825-0.65h-4.302l-0.251,0.4     c1.367,1.133,2.493,1.917,3.377,2.351c0.884,0.435,2.485,0.81,4.803,1.126l-0.601,2.15l-1.025-0.225l-0.926-0.225v10.029h-17.409     v-10.33H533.174z M543.579,70.211h-12.882v1.201h12.882V70.211z M530.697,74.188h12.882v-1.276h-12.882V74.188z M530.697,77.141     h12.882v-1.426h-12.882V77.141z M539.252,65.258l-0.726,0.727c-1.185,1.15-2.635,2-4.353,2.551h10.581     C542.77,68.035,540.936,66.943,539.252,65.258z M547.531,82.593l-3.827-1.025c-0.667-0.167-1.801-0.4-3.401-0.7     c-0.25-0.051-0.567-0.117-0.951-0.2l1.15-1.751l1.401,0.2c2.518,0.399,4.711,0.866,6.579,1.4L547.531,82.593z"
           id="path77" /></g><g
         id="g79"><path
           fill="#231815"
           d="M557.486,70.687c0.25,0.217,0.459,0.392,0.626,0.525c0.934,0.817,1.81,1.659,2.626,2.526     c0.15,0.166,0.359,0.392,0.625,0.676l-1.225,1.801c-0.201-0.268-0.359-0.484-0.476-0.65c-0.4-0.533-0.751-0.977-1.051-1.326     l-1.126-1.25v9.68h-2.201v-9.13c-0.199,0.366-0.358,0.667-0.475,0.9c-0.867,1.585-1.951,3.126-3.252,4.628l-1.101-2.402     c1.567-1.5,3.11-3.66,4.628-6.479h-4.328v-2.076h4.527v-8.454h2.201v8.454h3.877v2.076h-3.877V70.687z M552.184,66.934     c-0.35-2.367-0.734-4.068-1.15-5.102l1.926-0.501c0.384,0.95,0.768,2.343,1.15,4.177c0.051,0.218,0.117,0.501,0.201,0.852     L552.184,66.934z M561.514,61.682c-0.316,2.084-0.717,3.86-1.2,5.328l-2.026-0.576c0.1-0.316,0.184-0.574,0.25-0.775     c0.334-1.017,0.625-2.192,0.876-3.526c0.05-0.233,0.116-0.534,0.2-0.901L561.514,61.682z M561.238,77.865v-2.227l7.779-1.176     V59.655h2.227v14.508l2.252-0.351v2.227l-2.252,0.351v6.278h-2.227v-5.979L561.238,77.865z M566.142,72.912     c-1.118-1.051-2.226-1.908-3.327-2.576c-0.15-0.083-0.342-0.199-0.575-0.35l1.401-1.627c0.232,0.135,0.425,0.242,0.574,0.326     c0.984,0.566,2.002,1.259,3.053,2.076c0.1,0.084,0.232,0.184,0.4,0.3L566.142,72.912z M566.592,66.984     c-1.317-1.15-2.426-1.992-3.326-2.526c-0.15-0.083-0.352-0.2-0.602-0.351l1.426-1.65c1.102,0.551,2.311,1.342,3.627,2.376     c0.101,0.084,0.234,0.185,0.4,0.3L566.592,66.984z"
           id="path81" /></g></g><g
       id="g83"><g
         id="g85"><rect
           x="336"
           y="67"
           fill="#B81C3D"
           width="50"
           height="3"
           id="rect87" /></g><g
         id="g89"><g
           id="g91"><polygon
             fill="#B81C3D"
             points="383,77.721 399.061,68.447 383,59.173     "
             id="polygon93" /></g></g></g><g
       id="g95"><g
         id="g97"><rect
           x="696"
           y="67"
           fill="#B81C3D"
           width="50"
           height="3"
           id="rect99" /></g><g
         id="g101"><g
           id="g103"><polygon
             fill="#B81C3D"
             points="743,77.721 759.061,68.447 743,59.173     "
             id="polygon105" /></g></g></g><g
       id="g107"><g
         id="g109"><rect
           x="32"
           y="4"
           fill="#B81C3D"
           width="304"
           height="2"
           id="rect111" /></g><g
         id="g113"><rect
           x="32"
           y="14"
           fill="#B81C3D"
           width="304"
           height="2"
           id="rect115" /></g><g
         id="g117"><rect
           x="335"
           y="4"
           fill="#B81C3D"
           width="2"
           height="131"
           id="rect119" /></g><g
         id="g121"><rect
           x="30"
           y="4"
           fill="#B81C3D"
           width="2"
           height="131"
           id="rect123" /></g><g
         id="g125"><rect
           x="32"
           y="124"
           fill="#B81C3D"
           width="304"
           height="2"
           id="rect127" /></g><g
         id="g129"><rect
           x="32"
           y="134"
           fill="#B81C3D"
           width="304"
           height="2"
           id="rect131" /></g></g><g
       id="g133"><g
         id="g135"><rect
           x="432"
           y="4"
           fill="#B81C3D"
           width="263"
           height="2"
           id="rect137" /></g><g
         id="g139"><rect
           x="432"
           y="14"
           fill="#B81C3D"
           width="263"
           height="2"
           id="rect141" /></g><g
         id="g143"><rect
           x="694"
           y="4"
           fill="#B81C3D"
           width="2"
           height="131"
           id="rect145" /></g><g
         id="g147"><rect
           x="430"
           y="4"
           fill="#B81C3D"
           width="2"
           height="131"
           id="rect149" /></g><g
         id="g151"><rect
           x="432"
           y="124"
           fill="#B81C3D"
           width="263"
           height="2"
           id="rect153" /></g><g
         id="g155"><rect
           x="432"
           y="134"
           fill="#B81C3D"
           width="263"
           height="2"
           id="rect157" /></g></g><g
       id="g159"><rect
         x="160.384"
         y="32.064"
         transform="matrix(0.5693 0.8222 -0.8222 0.5693 115.3773 -108.6546)"
         fill="#B81C3D"
         width="2"
         height="47.439"
         id="rect161" /></g><g
       id="g163"><rect
         x="136.271"
         y="82.95"
         transform="matrix(0.8199 0.5725 -0.5725 0.8199 77.2127 -77.5575)"
         fill="#B81C3D"
         width="51.225"
         height="2"
         id="rect165" /></g><g
       id="g167"><g
         id="g169"><g
           id="g171"><g
             id="g173"><polygon
               fill="#B81C3D"
               points="400,51.792 430.5,34.207 461,51.792 461,86.962 430.5,104.546 400,86.962      "
               id="polygon175" /></g></g></g><g
         id="g177"><g
           id="g179"><path
             fill="#FFFFFF"
             d="M419.845,83.754v-5.46l4.181-3.792c1.051-0.96,2.505-2.498,4.363-4.615s3.11-3.686,3.758-4.706      s1.101-1.927,1.359-2.719c0.168-0.579,0.252-1.188,0.252-1.827c0-1.355-0.445-2.452-1.337-3.29      c-0.891-0.838-2.144-1.257-3.758-1.257c-1.127,0-2.402,0.251-3.827,0.754c-1.424,0.503-2.653,1.15-3.689,1.942l-0.548-5.734      c1.355-0.716,2.905-1.283,4.649-1.702c1.743-0.419,3.468-0.628,5.174-0.628c2.33,0,4.241,0.399,5.734,1.199      c1.492,0.8,2.623,1.904,3.393,3.312c0.769,1.409,1.153,2.897,1.153,4.466c0,1.265-0.187,2.506-0.56,3.725      c-0.373,1.218-1.153,2.729-2.342,4.534c-1.188,1.805-2.81,3.827-4.865,6.065c-1.174,1.295-2.704,2.787-4.593,4.478h13.228v5.255      H419.845z"
             id="path181" /></g></g></g><g
       id="g183"><g
         id="g185"><g
           id="g187"><polygon
             fill="#B81C3D"
             points="1,50.792 31.5,33.207 62,50.792 62,85.962 31.5,103.546 1,85.962     "
             id="polygon189" /></g></g></g><g
       id="g191"><g
         id="g193"><path
           fill="#FFFFFF"
           d="M28.646,59.51l-5.414,4.5l-3.313-4.226l9.596-7.517h5.734v32.486h-6.603V59.51z"
           id="path195" /></g></g><g
       id="g197"><g
         id="g199"><path
           fill-rule="evenodd"
           clip-rule="evenodd"
           fill="#B81C3D"
           d="M678.289,49.175c1.02,0.234,1.721,0.928,2.405,1.652     c0.346,0.365,0.714,0.709,1.06,1.073c1.042,1.097,1.179,2.835,0.169,3.948c-1.07,1.181-2.273,2.242-3.396,3.334     c-1.961-1.959-3.967-3.962-5.993-5.987c-0.004,0.007,0.014-0.041,0.046-0.073c1.048-1.049,2.064-2.133,3.162-3.127     c0.418-0.379,1.021-0.553,1.54-0.82C677.617,49.175,677.953,49.175,678.289,49.175z"
           id="path201" /></g><g
         id="g203"><path
           fill-rule="evenodd"
           clip-rule="evenodd"
           fill="#B81C3D"
           d="M643.35,87.678c0.436-1.07,0.877-2.139,1.305-3.212     c0.702-1.759,1.395-3.521,2.091-5.283c0.042-0.105,0.087-0.209,0.116-0.281c1.996,1.998,3.988,3.994,5.987,5.995     c-0.033,0.016-0.128,0.069-0.228,0.108c-2.742,1.089-5.486,2.175-8.229,3.262c-0.355,0.141-0.708,0.258-1.042-0.046     C643.35,88.039,643.35,87.858,643.35,87.678z"
           id="path205" /></g><g
         id="g207"><path
           fill-rule="evenodd"
           clip-rule="evenodd"
           fill="#B81C3D"
           d="M655.94,81.793c-1.989-1.991-3.986-3.989-5.949-5.954     c6.489-6.491,12.99-12.992,19.476-19.478c1.962,1.968,3.965,3.976,5.943,5.96C668.945,68.786,662.441,75.292,655.94,81.793z"
           id="path209" /></g></g><g
       id="g211"><g
         id="g213"><polygon
           fill="#FFFFFF"
           points="849.134,32.53 866.17,49.566 788.801,126.938 769.946,128.754 771.762,109.9    "
           id="polygon215" /><path
           fill="#B81C3D"
           d="M768.835,129.865l1.966-20.418l78.333-78.331l18.45,18.45l-78.33,78.333L768.835,129.865z      M772.723,110.354l-1.665,17.289l17.29-1.665l76.408-76.411l-15.622-15.622L772.723,110.354z"
           id="path217" /></g><g
         id="g219"><rect
           x="812.799"
           y="22.883"
           transform="matrix(0.7071 0.7071 -0.7071 0.7071 298.3903 -550.5761)"
           fill="#B81C3D"
           width="2"
           height="124.035"
           id="rect221" /></g><g
         id="g223"><path
           fill="#B81C3D"
           d="M872.863,57.673l-31.835-31.836l8.218-8.22l31.837,31.837L872.863,57.673z M843.856,25.837l29.007,29.008     l5.392-5.391l-29.009-29.009L843.856,25.837z"
           id="path225" /></g><g
         id="g227"><rect
           x="867.125"
           y="4.951"
           transform="matrix(-0.7071 -0.7071 0.7071 -0.7071 1481.4097 658.1951)"
           fill="#FFFFFF"
           width="19.792"
           height="34.674"
           id="rect229" /><path
           fill="#B81C3D"
           d="M871.76,42.958l-15.408-15.409l25.932-25.932l15.409,15.409L871.76,42.958z M859.18,27.549l12.58,12.581     l23.104-23.104L882.283,4.445L859.18,27.549z"
           id="path231" /></g><g
         id="g233"><rect
           x="872.411"
           y="9.314"
           transform="matrix(0.9942 0.1074 -0.1074 0.9942 7.7894 -93.6829)"
           fill="#B81C3D"
           width="2"
           height="32.284"
           id="rect235" /></g><g
         id="g237"><rect
           x="875.951"
           y="2.338"
           transform="matrix(0.2666 0.9638 -0.9638 0.2666 664.6056 -828.9017)"
           fill="#B81C3D"
           width="2"
           height="39.81"
           id="rect239" /></g></g><g
       id="g241"><circle
         fill="#B81C3D"
         cx="824.65"
         cy="73.28"
         r="41.39"
         id="circle243" /></g><g
       id="g245"><g
         id="g247"><path
           fill="#FFFFFF"
           d="M814.099,55.146l0.178-0.354l1.839,0.532l-0.62,1.107c-0.163,0.296-0.348,0.576-0.554,0.843l2.061-0.022     c0.798,0,1.344-0.037,1.64-0.111l-0.554-0.509l-0.576-0.466l1.462-0.931l1.573,1.329c0.399,0.354,0.879,0.835,1.44,1.44     c0.089,0.104,0.214,0.236,0.377,0.399l-1.44,1.219l-0.466-0.599l-0.421-0.443l-2.149,0.155c-1.151,0-2.289,0.03-3.412,0.089     c1.565,0.945,2.796,1.592,3.689,1.938c0.894,0.348,2.33,0.779,4.31,1.296l-0.775,1.95c-3.944-1.182-7.083-2.762-9.417-4.741     c-1.817,1.816-4.956,3.316-9.417,4.498l-0.997-1.795c3.397-0.709,6.182-1.787,8.354-3.235c-1.729,0.222-3.058,0.369-3.988,0.443     l-3.546,0.31l-0.487-1.794l0.908-0.045l0.488-0.021c0.28-0.281,0.612-0.702,0.997-1.264l0.931-1.418l1.972,0.599     c-0.06,0.059-0.104,0.11-0.133,0.155c-0.207,0.28-0.429,0.575-0.665,0.886l-0.687,0.953l1.994-0.178l1.617-0.155l-0.487-0.421     l-0.487-0.354l1.396-1.041l1.175,0.953c0.266,0.207,0.539,0.442,0.819,0.709c0.104,0.104,0.259,0.251,0.466,0.442     C813.08,56.859,813.611,56.076,814.099,55.146z M814.055,61.838c-2.556,2.142-5.857,3.634-9.904,4.476l-1.152-1.573     c4.092-0.738,7.224-2.023,9.395-3.855L814.055,61.838z M815.694,51.091l2.105,1.396c0.753,0.531,1.528,1.107,2.326,1.728     l-1.596,1.086l-1.063-0.908l-5.938,0.288c-2.378,0-4.867,0.081-7.467,0.243l-0.465-1.772h2.104l1.263-0.044     c0.901-0.754,1.559-1.41,1.973-1.972c0.059-0.089,0.14-0.2,0.243-0.333l2.128,0.333c-0.104,0.118-0.186,0.214-0.244,0.287     c-0.369,0.459-0.842,0.968-1.418,1.529l-0.178,0.178l2.57-0.067l3.435-0.154l-1.374-0.931L815.694,51.091z M817.201,63.499     c-1.699,1.552-3.312,2.682-4.842,3.391c-1.528,0.709-3.733,1.344-6.613,1.905l-1.131-1.64c4.712-0.576,8.354-2.075,10.924-4.498     L817.201,63.499z M820.791,64.896c-1.063,1.3-2.253,2.378-3.567,3.234c-1.315,0.857-3.011,1.581-5.086,2.172     s-3.423,0.887-4.043,0.887l-1.264-1.618c0.65,0,1.939-0.24,3.867-0.72c1.928-0.48,3.549-1.093,4.863-1.839     s2.438-1.695,3.368-2.848L820.791,64.896z"
           id="path249" /></g><g
         id="g251"><path
           fill="#FFFFFF"
           d="M839.115,66.602c0.325-0.251,0.65-0.539,0.976-0.864l0.199-0.199c-0.385-1.64-0.643-3.767-0.775-6.382     l-1.84,0.155l-0.199-1.95l1.973-0.133l-0.066-3.235v-3.146l1.949-0.045v3.103c0,1.728,0.022,2.784,0.066,3.168l4.72-0.421     l0.155,1.906l-4.853,0.421c0.015,0.222,0.029,0.479,0.044,0.775s0.052,0.783,0.111,1.462c0,0.828,0.118,1.618,0.354,2.371     c0.724-0.887,1.337-2.083,1.839-3.59l1.529,0.997c-0.828,1.98-1.759,3.642-2.792,4.986c0.502,1.787,0.912,2.681,1.229,2.681     s0.676-1.026,1.074-3.08l1.463,1.529c-0.34,1.24-0.702,2.219-1.086,2.936s-0.894,1.075-1.528,1.075     c-0.901,0-1.817-1.219-2.748-3.656c-0.886,0.886-2.157,1.816-3.811,2.792l-1.175-1.729l1.041-0.487h-4.165v3.124h-1.861v-3.124     h-5.074v-1.685h5.074v-1.352h-4.299V57.14h10.48v7.866h-4.32v1.352h5.074v1.152L839.115,66.602z M831.471,51.49v4.785h-5.052     V51.49H831.471z M829.81,53.019h-1.729v1.729h1.729V53.019z M830.939,60.331v-1.64h-2.415v1.64H830.939z M830.939,63.455v-1.729     h-2.415v1.729H830.939z M837.587,51.49v4.785h-5.186V51.49H837.587z M835.238,60.331v-1.64h-2.438v1.64H835.238z M835.238,63.455     v-1.729h-2.438v1.729H835.238z M835.925,53.019h-1.861v1.729h1.861V53.019z M843.812,55.921l-0.709-1.64     c-0.28-0.635-0.591-1.174-0.931-1.617l1.618-0.687c0.798,1.093,1.381,2.104,1.75,3.035L843.812,55.921z"
           id="path253" /></g><g
         id="g255"><path
           fill="#FFFFFF"
           d="M811.75,90.909c0,1.374-0.255,2.353-0.764,2.936c-0.51,0.584-1.525,0.875-3.047,0.875     c-0.503,0-0.887-0.014-1.152-0.044l-0.487-2.061c0.782,0.074,1.477,0.11,2.083,0.11c0.605,0,0.993-0.247,1.163-0.742     c0.169-0.494,0.284-1.532,0.343-3.113c0-0.442,0.008-1.078,0.022-1.905h-3.878c-0.147,2.999-0.376,5.167-0.687,6.503     c-0.311,1.338-0.835,2.744-1.573,4.222l-1.816-1.729c0.753-1.433,1.273-2.869,1.562-4.31s0.433-3.298,0.433-5.573     c0-0.266-0.004-0.509-0.012-0.73c-0.007-0.222-0.011-0.429-0.011-0.621v-4.121h9.639v-3.213h2.127v3.213h6.005V82.6h-5.938     c0.178,3.073,0.547,5.451,1.108,7.135c0.886-1.27,1.802-3.213,2.747-5.827l1.751,0.975l-0.443,1.219     c-0.945,2.394-2.017,4.425-3.213,6.094c0.251,0.812,0.568,1.521,0.953,2.127c0.384,0.605,0.656,0.908,0.819,0.908     c0.369,0,0.856-1.152,1.463-3.456l1.396,1.883c-0.443,1.389-0.872,2.396-1.285,3.024c-0.414,0.628-0.924,0.942-1.529,0.942     c-1.314,0-2.496-1.241-3.545-3.723c-0.118,0.104-0.214,0.192-0.288,0.266c-1.521,1.374-3.132,2.496-4.83,3.368l-1.352-1.839     c2.289-1.005,4.173-2.334,5.65-3.988c-0.754-2.068-1.241-4.712-1.463-7.933c-0.029-0.325-0.066-0.717-0.11-1.175h-7.534v2.327     h5.783C811.78,86.847,811.75,88.841,811.75,90.909z M818.642,80.605c-0.266-0.295-0.591-0.62-0.976-0.975l-1.085-0.976     l1.462-1.263l1.152,0.864c0.191,0.147,0.458,0.385,0.798,0.709c0.044,0.044,0.11,0.104,0.199,0.178L818.642,80.605z"
           id="path257" /></g><g
         id="g259"><path
           fill="#FFFFFF"
           d="M831.249,91.685l1.596-0.576c0.665-0.251,1.167-0.465,1.507-0.643v1.95     c-1.936,0.901-4.579,1.876-7.933,2.925l-0.531-2.083l1.75-0.487c0.709-0.207,1.219-0.377,1.529-0.51V81.359h-2.97v-1.906h7.955     v1.906h-2.903V91.685z M840.157,83.774c0,3.855-0.806,7.156-2.415,9.904c-0.562,0.945-1.234,1.864-2.017,2.759     c-0.783,0.894-1.219,1.341-1.308,1.341l-1.662-1.685c0.192,0,0.835-0.672,1.928-2.017c1.094-1.344,1.909-2.858,2.449-4.542     c0.539-1.684,0.845-3.604,0.919-5.761h-3.479v-1.973h3.523v-4.409h2.104v4.409h5.739c-0.03,0.872-0.06,1.743-0.089,2.615     c-0.147,5.894-0.325,9.361-0.532,10.403c-0.207,1.041-0.583,1.775-1.13,2.204s-1.729,0.643-3.545,0.643     c-0.547,0-0.85-0.008-0.908-0.022l-0.665-2.171c0.222,0.015,0.398,0.022,0.531,0.022c0.99,0.059,1.662,0.088,2.017,0.088     c0.547,0,0.964-0.181,1.252-0.543c0.288-0.361,0.499-1.277,0.632-2.747s0.236-4.31,0.31-8.52H840.157z"
           id="path261" /></g></g><g
       id="g263"><path
         fill="#B81C3D"
         d="M772.101,52.848c-4.467,0-8.101-3.634-8.101-8.101c0-4.468,3.634-8.103,8.101-8.103    s8.102,3.635,8.102,8.103C780.202,49.214,776.567,52.848,772.101,52.848z M772.101,38.645c-3.364,0-6.101,2.737-6.101,6.103    c0,3.364,2.736,6.101,6.101,6.101s6.102-2.736,6.102-6.101C778.202,41.382,775.465,38.645,772.101,38.645z"
         id="path265" /></g><g
       id="g267"><path
         fill="#B81C3D"
         d="M865.836,125.888c-4.467,0-8.101-3.634-8.101-8.1c0-4.467,3.634-8.102,8.101-8.102    s8.102,3.635,8.102,8.102C873.938,122.254,870.303,125.888,865.836,125.888z M865.836,111.687c-3.364,0-6.101,2.737-6.101,6.102    c0,3.363,2.736,6.1,6.101,6.1s6.102-2.736,6.102-6.1C871.938,114.424,869.2,111.687,865.836,111.687z"
         id="path269" /></g></g></svg>