<?xml version="1.0" encoding="utf-8"?>
<!-- Generator: Adobe Illustrator 16.0.0, SVG Export Plug-In . SVG Version: 6.00 Build 0)  -->
<!DOCTYPE svg PUBLIC "-//W3C//DTD SVG 1.1//EN" "http://www.w3.org/Graphics/SVG/1.1/DTD/svg11.dtd">
<svg version="1.1" id="圖層_1" xmlns="http://www.w3.org/2000/svg" xmlns:xlink="http://www.w3.org/1999/xlink" x="0px" y="0px"
	 width="239.083px" height="211px" viewBox="0 0 239.083 211" enable-background="new 0 0 239.083 211" xml:space="preserve">
<g>
	<rect x="15.333" y="176" fill="#B81C3D" width="221" height="3"/>
</g>
<g>
	<path fill="#B81C3D" d="M161.764,191.488c-1.685-1.685-3.924-2.612-6.307-2.612s-4.623,0.928-6.311,2.616
		c-0.085,0.087-2.088,2.144-1.643,4.734c0.313,1.821,1.702,3.339,4.126,4.51l1.094-2.266c-1.131-0.546-2.523-1.45-2.739-2.658
		c-0.233-1.308,0.942-2.543,0.944-2.545c1.21-1.21,2.817-1.876,4.528-1.876s3.318,0.666,4.528,1.876
		c1.209,1.21,1.875,2.817,1.875,4.528c0,1.53-0.537,2.977-1.516,4.131l-0.025-0.024c-2.984,2.983-6.953,4.629-11.174,4.629
		c-4.22,0-8.188-1.646-11.172-4.629c-2.984-2.984-4.628-6.952-4.628-11.173c0-4.22,1.644-8.188,4.628-11.172l-1.779-1.779
		c-3.459,3.459-5.364,8.06-5.364,12.951c0,2.485,0.494,4.895,1.431,7.117c0,0,1.083,3.226,0.68,4.889
		c-0.16,0.658-0.421,1.274-0.765,1.836l-0.021-0.013c-1.147,1.883-3.117,2.964-5.169,3.062c-0.094,0.003-0.188,0-0.283,0
		c-0.094,0-0.188,0.003-0.283,0c-2.052-0.099-4.022-1.18-5.169-3.062l-0.021,0.013c-0.343-0.562-0.604-1.178-0.764-1.836
		c-0.404-1.663,0.679-4.889,0.679-4.889c0.938-2.223,1.432-4.632,1.432-7.117c0-4.892-1.905-9.492-5.364-12.951l-1.779,1.779
		c2.985,2.983,4.628,6.952,4.628,11.172c0,4.221-1.644,8.188-4.628,11.173c-2.984,2.983-6.952,4.629-11.172,4.629
		c-4.221,0-8.189-1.646-11.174-4.629l-0.024,0.024c-0.979-1.154-1.516-2.601-1.516-4.131c0-1.711,0.666-3.318,1.875-4.528
		s2.817-1.876,4.528-1.876c1.711,0,3.318,0.666,4.528,1.876c0.002,0.002,1.178,1.237,0.945,2.545
		c-0.216,1.208-1.609,2.112-2.739,2.658l1.094,2.266c2.424-1.171,3.813-2.688,4.126-4.51c0.445-2.591-1.557-4.647-1.643-4.734
		c-1.688-1.688-3.929-2.616-6.311-2.616c-2.383,0-4.623,0.928-6.307,2.612c-1.685,1.685-2.612,3.925-2.612,6.308
		c0,3.819,2.666,6.253,2.666,6.253c3.411,3.224,7.849,4.997,12.564,4.997c4.892,0,9.492-1.906,12.951-5.365
		c0.249-0.249,0.486-0.505,0.719-0.765c0.027,0.138,0.056,0.275,0.089,0.413c0.562,2.313,1.991,4.271,4.026,5.512
		c1.316,0.804,2.761,1.219,4.203,1.287c0.016,0.001,0.032,0.003,0.047,0.004c0.136,0.006,0.271,0.004,0.407,0.003
		c0.136,0.001,0.271,0.003,0.407-0.003c0.016-0.001,0.032-0.003,0.047-0.004c1.442-0.068,2.886-0.483,4.203-1.287
		c2.035-1.24,3.464-3.198,4.026-5.512c0.033-0.138,0.062-0.275,0.089-0.413c0.232,0.26,0.471,0.516,0.719,0.765
		c3.459,3.459,8.06,5.365,12.951,5.365c4.715,0,9.153-1.773,12.564-4.997c0,0,2.666-2.434,2.666-6.253
		C164.376,195.413,163.449,193.172,161.764,191.488z"/>
	<g>
		<path fill="#B81C3D" d="M55.968,200.458c-3.987,0-7.232-3.244-7.232-7.231s3.245-7.231,7.232-7.231s7.232,3.244,7.232,7.231
			S59.955,200.458,55.968,200.458z M55.968,188.51c-2.6,0-4.716,2.116-4.716,4.717s2.116,4.716,4.716,4.716
			c2.601,0,4.716-2.115,4.716-4.716S58.568,188.51,55.968,188.51z"/>
	</g>
	<g>
		<path fill="#B81C3D" d="M196.822,200.458c-3.987,0-7.231-3.244-7.231-7.231s3.244-7.231,7.231-7.231s7.231,3.244,7.231,7.231
			S200.81,200.458,196.822,200.458z M196.822,188.51c-2.601,0-4.716,2.116-4.716,4.717s2.116,4.716,4.716,4.716
			s4.716-2.115,4.716-4.716S199.423,188.51,196.822,188.51z"/>
	</g>
</g>
<g>
	<g>
		<rect x="16.333" y="33" fill="#B81C3D" width="220" height="134"/>
	</g>
</g>
<g>
	<rect x="16.333" y="32" fill="#B81C3D" width="220" height="2"/>
</g>
<g>
	<path fill="#B81C3D" d="M238.333,179h-223V24h223V179z M18.333,177h217V27h-217V177z"/>
</g>
<g>
	<g>
		<polygon fill="#FFFFFF" points="115.769,49 102.453,32.171 107.206,11.284 126.449,1.984 145.692,11.235 150.445,32.179 
			137.128,49 		"/>
		<path fill="#B81C3D" d="M137.728,50h-22.559l-14.066-17.645l5.021-21.998l20.325-9.789l20.325,9.787l5.021,22.001L137.728,50z
			 M116.37,47h20.158l12.567-15.516l-4.484-19.52l-18.162-8.691l-18.162,8.77l-4.484,19.429L116.37,47z"/>
	</g>
	<g>
		<rect x="125.333" y="16" fill="#B81C3D" width="2" height="10"/>
	</g>
	<g>
		<rect x="125.333" y="25" fill="#B81C3D" width="12" height="3"/>
	</g>
</g>
<g>
	<rect x="16.333" y="166" fill="#B81C3D" width="220" height="3"/>
</g>
<text transform="matrix(1 0 0 1 102.4526 92.0332)" fill="#FFFFFF" font-family="'MStiffHeiHK-UltraBold-B5pc-H'" font-size="28.1086">時</text>
<g>
	<rect x="62.333" y="156" fill="#533333" width="128" height="28"/>
</g>
<text transform="matrix(1 0 0 1 79.4062 177.3267)" fill="#FFFFFF" font-family="'MStiffHeiHK-UltraBold-B5pc-H'" font-size="19.5476" letter-spacing="4">副本時限</text>
<text transform="matrix(1 0 0 1 102.4526 141.1421)" fill="#FFFFFF" font-family="'MStiffHeiHK-UltraBold-B5pc-H'" font-size="25.4087">分</text>
<g>
	<path fill="#B81C3D" d="M10.489,188.051c-3.848,0-7.251-2.514-9.27-6.927L0.248,179h11.085v3H5.172
		c1.631,2.243,3.79,3.318,6.148,2.993c2.318-0.319,4.221-1.959,4.525-3.901c0.351-2.236-1.519-4.513-5.128-6.246
		c-5.173-2.482-8.302-5.808-9.302-9.882c-1.51-6.157,2.499-11.61,2.67-11.839l1.09-1.457l22.175,24.448l-2.222,2.016L5.536,156.532
		c-0.883,1.747-1.957,4.696-1.202,7.739c0.781,3.152,3.366,5.8,7.681,7.872c6.941,3.332,7.064,7.693,6.794,9.414
		c-0.504,3.218-3.481,5.913-7.08,6.409C11.312,188.022,10.898,188.051,10.489,188.051z"/>
</g>
<g>
	<path fill="#B81C3D" d="M5.18,50.998l-1.089-1.437c-0.171-0.225-4.163-5.584-2.689-11.677c0.984-4.068,4.118-7.396,9.315-9.89
		c3.606-1.731,5.476-3.991,5.129-6.201c-0.297-1.9-2.176-3.508-4.466-3.823C8.993,17.639,6.815,18.73,5.17,21h6.163v3H0.248
		l0.971-2.124c2.245-4.908,6.199-7.48,10.569-6.878c3.629,0.5,6.516,3.103,7.021,6.331c0.268,1.708,0.141,6.04-6.795,9.369
		c-4.345,2.086-6.935,4.741-7.697,7.891c-0.727,3.004,0.332,5.874,1.208,7.576L25.13,24.651l2.218,2.021L5.18,50.998z"/>
</g>
</svg>
