<?xml version="1.0" encoding="utf-8"?>
<!-- Generator: Adobe Illustrator 16.0.0, SVG Export Plug-In . SVG Version: 6.00 Build 0)  -->
<!DOCTYPE svg PUBLIC "-//W3C//DTD SVG 1.1//EN" "http://www.w3.org/Graphics/SVG/1.1/DTD/svg11.dtd">
<svg version="1.1" id="圖層_1" xmlns="http://www.w3.org/2000/svg" xmlns:xlink="http://www.w3.org/1999/xlink" x="0px" y="0px"
	 width="79.75px" height="91.75px" viewBox="0 0 79.75 91.75" enable-background="new 0 0 79.75 91.75" xml:space="preserve">
<g>
	<g>
		<polygon fill="#B81C3D" points="0.5,23.392 39.998,0.633 79.5,23.392 79.5,68.909 39.998,91.669 0.5,68.909 		"/>
	</g>
	<g>
		<g>
			<g>
				<g>
					<g>
						
							<rect x="21.719" y="42.691" transform="matrix(0.48 0.8773 -0.8773 0.48 64.6928 -21.3878)" fill="#FFFFFF" width="57.338" height="2.37"/>
					</g>
				</g>
				<g>
					<g>
						
							<rect x="32.741" y="15.206" transform="matrix(0.8776 0.4794 -0.4794 0.8776 25.1871 -10.8934)" fill="#FFFFFF" width="2.369" height="57.341"/>
					</g>
				</g>
			</g>
			<g>
				<g>
					
						<rect x="40.972" y="14.758" transform="matrix(0.9997 0.0244 -0.0244 0.9997 0.5186 -1.0204)" fill="#FFFFFF" width="2.366" height="12.045"/>
				</g>
			</g>
		</g>
	</g>
	<g>
		<polygon fill="#FFFFFF" points="42.261,29.062 20.951,69.75 63.12,69.75 		"/>
	</g>
	<g>
		<g>
			<g>
				<path fill="#B81C3D" d="M48.848,71.14h-2.771h-8.084H35.22V56.125c0-3.754,3.059-6.812,6.813-6.812
					c3.759,0,6.814,3.058,6.814,6.812V71.14z"/>
			</g>
		</g>
	</g>
</g>
</svg>
