<?xml version="1.0" encoding="utf-8"?>
<!-- Generator: Adobe Illustrator 16.0.0, SVG Export Plug-In . SVG Version: 6.00 Build 0)  -->
<!DOCTYPE svg PUBLIC "-//W3C//DTD SVG 1.1//EN" "http://www.w3.org/Graphics/SVG/1.1/DTD/svg11.dtd">
<svg version="1.1" id="圖層_1" xmlns="http://www.w3.org/2000/svg" xmlns:xlink="http://www.w3.org/1999/xlink" x="0px" y="0px"
	 width="91px" height="90px" viewBox="0 0 91 90" enable-background="new 0 0 91 90" xml:space="preserve">
<circle fill="#FFFFFF" stroke="#B81C3D" stroke-width="2" stroke-miterlimit="10" cx="41.915" cy="48.551" r="39.73"/>
<g>
	<polygon fill="#FFFFFF" stroke="#B81C3D" stroke-width="2" stroke-miterlimit="10" points="57.475,22.04 68.671,33.236 
		17.825,84.082 5.436,85.275 6.629,72.887 	"/>
	<line fill="#FFFFFF" stroke="#B81C3D" stroke-width="2" stroke-miterlimit="10" x1="5.436" y1="85.275" x2="63.073" y2="27.638"/>
	
		<rect x="51.172" y="22.24" transform="matrix(-0.7071 -0.7071 0.7071 -0.7071 93.529 89.5443)" fill="#FFFFFF" stroke="#B81C3D" stroke-width="2" stroke-miterlimit="10" width="28.274" height="6.325"/>
	
		<rect x="69.299" y="3.916" transform="matrix(-0.7071 -0.7071 0.7071 -0.7071 118.5736 79.7376)" fill="#FFFFFF" stroke="#B81C3D" stroke-width="2" stroke-miterlimit="10" width="13.006" height="22.786"/>
	<line fill="#FFFFFF" stroke="#B81C3D" stroke-width="2" stroke-miterlimit="10" x1="72.287" y1="27.938" x2="74.569" y2="6.845"/>
	<line fill="#FFFFFF" stroke="#B81C3D" stroke-width="2" stroke-miterlimit="10" x1="63.147" y1="18.766" x2="88.362" y2="11.794"/>
</g>
<circle fill="#B81C3D" cx="41.385" cy="48.82" r="27.2"/>
<text transform="matrix(1 0 0 1 25.8896 45.5957)"><tspan x="0" y="0" fill="#FFFFFF" font-family="'LiGothicMed'" font-size="14.5614" letter-spacing="1">前往</tspan><tspan x="0" y="17.474" fill="#FFFFFF" font-family="'LiGothicMed'" font-size="14.5614" letter-spacing="1">任務</tspan></text>
<circle fill="none" stroke="#B81C3D" stroke-width="2" stroke-miterlimit="10" cx="6.851" cy="30.068" r="4.667"/>
<circle fill="none" stroke="#B81C3D" stroke-width="2" stroke-miterlimit="10" cx="68.451" cy="78.068" r="4.667"/>
</svg>
