<?xml version="1.0" encoding="utf-8"?>
<!-- Generator: Adobe Illustrator 16.0.0, SVG Export Plug-In . SVG Version: 6.00 Build 0)  -->
<!DOCTYPE svg PUBLIC "-//W3C//DTD SVG 1.1//EN" "http://www.w3.org/Graphics/SVG/1.1/DTD/svg11.dtd">
<svg version="1.1" id="圖層_1" xmlns="http://www.w3.org/2000/svg" xmlns:xlink="http://www.w3.org/1999/xlink" x="0px" y="0px"
	 width="59px" height="68.751px" viewBox="0 0 59 68.751" enable-background="new 0 0 59 68.751" xml:space="preserve">
<g>
	<g>
		<polygon fill="#FFFFFF" points="1.333,18.06 29.833,1.721 58.333,18.06 58.333,50.737 29.833,67.074 1.333,50.737 		"/>
		<path fill="#B81C3D" d="M29.833,68.196l-29.5-16.893V17.491l29.5-16.893l29.5,16.893v33.812L29.833,68.196z M2.333,50.168
			l27.498,15.785l27.502-15.785V18.627L29.831,2.843L2.333,18.627V50.168z"/>
	</g>
	<g>
		<path fill-rule="evenodd" clip-rule="evenodd" fill="#B81C3D" d="M50.185,19.502c-0.144,2.207-0.315,4.412-0.41,6.62
			c-0.016,0.375,0.187,0.872,0.459,1.126c1.751,1.63,3.547,3.208,5.333,4.798c0.855,0.761,0.881,0.945,0.145,1.827
			c-1.528,1.837-3.087,3.652-4.578,5.52c-0.248,0.31-0.37,0.867-0.295,1.262c0.452,2.374,0.946,4.739,1.501,7.093
			c0.211,0.898-0.1,1.256-0.927,1.452c-2.294,0.545-4.572,1.144-6.864,1.694c-0.599,0.142-0.966,0.423-1.214,1.014
			c-0.916,2.172-1.887,4.32-2.846,6.476c-0.448,1.006-0.629,1.071-1.636,0.666c-2.213-0.892-4.435-1.766-6.637-2.686
			c-0.525-0.219-0.93-0.18-1.411,0.108c-2.051,1.224-4.122,2.414-6.187,3.616c-0.896,0.52-1.113,0.477-1.662-0.394
			c-1.274-2.022-2.554-4.04-3.802-6.078c-0.308-0.504-0.658-0.741-1.271-0.792c-2.439-0.2-4.873-0.472-7.31-0.705
			c-0.785-0.075-0.972-0.534-0.914-1.241c0.182-2.292,0.315-4.59,0.518-6.881c0.068-0.776-0.106-1.325-0.732-1.855
			c-1.756-1.487-3.446-3.051-5.158-4.587c-0.768-0.685-0.787-0.917-0.128-1.705c1.528-1.837,3.053-3.679,4.609-5.494
			c0.363-0.424,0.485-0.795,0.354-1.361c-0.545-2.354-1.007-4.727-1.549-7.085c-0.188-0.813,0.023-1.213,0.859-1.41
			c2.352-0.557,4.685-1.184,7.034-1.752c0.543-0.131,0.854-0.39,1.077-0.913c0.946-2.225,1.963-4.419,2.91-6.643
			c0.331-0.779,0.751-0.943,1.531-0.615c2.255,0.946,4.526,1.86,6.812,2.729c0.351,0.133,0.885,0.094,1.211-0.088
			c2.112-1.179,4.201-2.399,6.272-3.646c0.74-0.446,1.215-0.389,1.682,0.387c1.203,1.994,2.487,3.939,3.69,5.935
			c0.373,0.618,0.781,0.903,1.54,0.957c2.353,0.167,4.695,0.46,7.043,0.688c0.783,0.076,1.126,0.458,0.993,1.25
			c-0.04,0.235-0.037,0.477-0.052,0.716C50.181,19.502,50.183,19.502,50.185,19.502z M14.263,34.777
			c-0.037,8.578,6.975,15.738,15.437,15.762c8.874,0.027,15.924-6.897,15.977-15.692c0.05-8.494-7.015-15.662-15.505-15.729
			C21.41,19.052,14.3,26.047,14.263,34.777z"/>
	</g>
	<g>
		<polygon fill-rule="evenodd" clip-rule="evenodd" fill="#B81C3D" points="29.883,20.758 34.128,29.36 43.626,30.74 36.755,37.438 
			38.375,46.896 29.883,42.432 21.388,46.896 23.012,37.438 16.14,30.74 25.635,29.36 		"/>
	</g>
</g>
</svg>
