<?xml version="1.0" encoding="utf-8"?>
<!-- Generator: Adobe Illustrator 16.0.0, SVG Export Plug-In . SVG Version: 6.00 Build 0)  -->
<!DOCTYPE svg PUBLIC "-//W3C//DTD SVG 1.1//EN" "http://www.w3.org/Graphics/SVG/1.1/DTD/svg11.dtd">
<svg version="1.1" id="圖層_1" xmlns="http://www.w3.org/2000/svg" xmlns:xlink="http://www.w3.org/1999/xlink" x="0px" y="0px"
	 width="51px" height="40.875px" viewBox="0 0 51 40.875" enable-background="new 0 0 51 40.875" xml:space="preserve">
<polygon fill="#B81C3D" stroke="#B81C3D" stroke-miterlimit="10" points="12.273,40.5 0.566,20.5 12.273,0.5 38.356,0.5 
	50.064,20.5 38.356,40.5 "/>
<path fill-rule="evenodd" clip-rule="evenodd" fill="#FFFFFF" d="M30.46,9.126c0,1.521,0,2.902,0,4.368
	c-0.268,0-0.525-0.003-0.782,0c-0.717,0.009-1.435-0.006-2.148,0.037c-0.598,0.037-0.846,0.295-0.862,0.893
	c-0.027,0.932-0.008,1.865-0.008,2.852c1.273,0,2.527,0,3.814,0c-0.124,1.398-0.243,2.742-0.366,4.142c-1.153,0-2.282,0-3.452,0
	c0,4.167,0,8.276,0,12.431c-1.664,0-3.287,0-4.954,0c0-4.1,0-8.193,0-12.34c-0.874,0-1.706,0-2.577,0c0-1.427,0-2.801,0-4.219
	c0.837,0,1.673,0,2.564,0c0-0.49-0.002-0.938,0-1.385c0.003-0.826-0.018-1.653,0.019-2.478c0.097-2.257,1.338-3.767,3.573-4.057
	C26.97,9.152,28.693,9.199,30.46,9.126z"/>
</svg>
