<?xml version="1.0" encoding="utf-8"?>
<!-- Generator: Adobe Illustrator 16.0.0, SVG Export Plug-In . SVG Version: 6.00 Build 0)  -->
<!DOCTYPE svg PUBLIC "-//W3C//DTD SVG 1.1//EN" "http://www.w3.org/Graphics/SVG/1.1/DTD/svg11.dtd">
<svg version="1.1" id="圖層_1" xmlns="http://www.w3.org/2000/svg" xmlns:xlink="http://www.w3.org/1999/xlink" x="0px" y="0px"
	 width="142px" height="205px" viewBox="0 0 142 205" enable-background="new 0 0 142 205" xml:space="preserve">
<g>
	<circle fill="none" stroke="#B81C3D" stroke-miterlimit="10" cx="70.726" cy="6.906" r="5.072"/>
	<circle fill="#B81C3D" cx="70.773" cy="5.152" r="2.56"/>
	<circle fill="#B81C3D" cx="71.229" cy="114.264" r="51.152"/>
	<path fill="none" stroke="#B81C3D" stroke-width="3" stroke-miterlimit="10" d="M124.516,197.812l13.758-15.228
		c0,0,5.978,8.009-4.049,12.821S135.76,209,139.985,200H134.5"/>
	<path fill="none" stroke="#B81C3D" stroke-width="3" stroke-miterlimit="10" d="M124.516,36.618l13.758,15.44
		c0,0,5.978-8.33-4.049-13.143S135.76,26,139.985,34H134.5"/>
	<path fill="none" stroke="#B81C3D" stroke-width="3" stroke-miterlimit="10" d="M18.365,197.812L4.547,182.584
		c0,0-6.007,8.009,4.02,12.821S7.001,209,2.775,200H8.5"/>
	<path fill="none" stroke="#B81C3D" stroke-width="3" stroke-miterlimit="10" d="M18.365,36.618L4.547,52.059
		c0,0-6.007-8.33,4.02-13.143S7.001,26,2.775,34H8.5"/>
	<rect x="8" y="37" fill="none" stroke="#B81C3D" stroke-width="3" stroke-miterlimit="10" width="128" height="161"/>
	<rect x="4" y="33" fill="none" stroke="#B81C3D" stroke-miterlimit="10" width="134" height="168"/>
	<path fill-rule="evenodd" clip-rule="evenodd" fill="none" stroke="#B81C3D" stroke-miterlimit="10" d="M71.762,58.163
		c0,0-4.83-7.262-22.322-8.251C31.946,48.922,8.184,46.281,8.184,37.04"/>
	<path fill-rule="evenodd" clip-rule="evenodd" fill="none" stroke="#B81C3D" stroke-miterlimit="10" d="M70.892,58.163
		c0,0,4.83-7.262,22.322-8.251c17.492-0.99,41.256-3.631,41.256-12.872"/>
	
		<circle fill-rule="evenodd" clip-rule="evenodd" fill="none" stroke="#B81C3D" stroke-width="2" stroke-miterlimit="10" cx="71.043" cy="58.148" r="4.964"/>
	<g>
		<polyline fill="none" stroke="#B81C3D" stroke-width="3" stroke-miterlimit="10" points="7.992,180.088 22.76,172 71.5,172 		"/>
		<polyline fill="none" stroke="#B81C3D" stroke-width="3" stroke-miterlimit="10" points="135.225,180.088 120.674,172 71.5,172 		
			"/>
	</g>
	<line fill="none" stroke="#B81C3D" stroke-width="3" stroke-miterlimit="10" x1="7.523" y1="152.225" x2="22.76" y2="172.357"/>
	
		<line fill="none" stroke="#B81C3D" stroke-width="3" stroke-miterlimit="10" x1="134.261" y1="154.205" x2="120.674" y2="172.357"/>
	<g>
		<g>
			<g>
				<polygon fill="#FFFFFF" points="28.5,90.205 72,65.729 115.5,90.205 115.5,139.16 72,163.637 28.5,139.16 				"/>
			</g>
			<g>
				<path fill="#B81C3D" d="M71.5,165.748l-45-25.52V89.137l45-25.52l45,25.52v51.092L71.5,165.748z M31.5,138.092L72,161.527
					l40.5-23.436V91.273L72,67.838L31.5,91.273V138.092z"/>
			</g>
		</g>
		<g>
			<g>
				<g>
					<path fill="#B81C3D" d="M56.774,83.744l1.541,2.709l19.611-11.128c-0.289-1.054-0.749-1.972-1.261-2.864L56.774,83.744z"/>
				</g>
			</g>
			<g>
				<g>
					<path fill="#B81C3D" d="M55.121,80.812c0.256,0.451,0.507,0.912,0.766,1.359l0.92,1.621l23.352-11.616
						c-0.561-0.974-2.242-3.388-2.796-4.429L55.121,80.812z"/>
				</g>
			</g>
			<g>
				<g>
					<path fill="#B81C3D" d="M38.663,96.818l19.315-10.959l-2.351-4.135c0,0-0.976,2.395-2.549,3.578
						c-1.429,1.082-2.964,1.234-4.376,1.291c-0.581,0.025-3.996,0.115-6.691,1.658c-2.407,1.373-5.772,4.754-7.303,7.474
						c-1.435,2.563-1.861,4.395-1.861,4.395L38.663,96.818z"/>
				</g>
			</g>
			<g>
				<g>
					<path fill="#FFFFFF" d="M44.714,92.455c-1.991-0.562-3.987-1.107-5.979-1.662c-0.83,0.797-1.663,1.682-2.386,2.561l5.665,1.566
						l3.799-2.156C45.449,92.659,45.08,92.555,44.714,92.455z"/>
				</g>
			</g>
		</g>
		<g>
			<g>
				<polygon fill="#B81C3D" points="96.237,140.199 99.373,138.309 98.509,136.877 95.257,138.561 				"/>
			</g>
			<g>
				<polygon fill="#B81C3D" points="96.206,140.146 97.149,141.715 100.163,139.621 99.341,138.252 				"/>
			</g>
			<g>
				<g>
					<path fill="#B81C3D" d="M86.186,146.164c0.152,1.303,0.263,2.615,0.446,3.822l10.748-6.465c0.733-0.445,0.97-1.396,0.529-2.131
						l-1.012-1.674L86.186,146.164z"/>
				</g>
			</g>
			<g>
				<g>
					<path fill="#B81C3D" d="M93.613,137.264l-8.155,4.9c0.377,1.28,0.577,2.672,0.736,4.072l10.742-6.464l-1.194-1.974
						C95.305,137.062,94.349,136.822,93.613,137.264z"/>
				</g>
			</g>
			<g>
				<path fill="#B81C3D" d="M103.771,136.254c-0.322,0.186-0.721,0.106-0.936-0.18l-3.794,2.281l0.641,1.064l6.658-2.131
					l0.024-0.054c0.32-2.075,3.43-5.095,3.572-5.18c0.089-0.057,0.136-0.161,0.125-0.249l-5.998,3.611
					C104.177,135.723,104.06,136.078,103.771,136.254z"/>
			</g>
			<g>
				<path fill="#B81C3D" d="M98.439,137.354l0.635,1.056l3.791-2.28c0-0.002,0-0.002-0.007-0.002
					c-0.195-0.334-0.088-0.771,0.245-0.969c0.294-0.173,0.661-0.11,0.884,0.125l5.967-3.596c-0.076-0.02-0.155-0.018-0.223,0.023
					c-0.138,0.088-4.299,1.378-6.281,0.688l-0.057,0.006L98.439,137.354z"/>
			</g>
			<g>
				<polygon fill="#B81C3D" points="92.242,146.637 64.04,162.769 58.634,158.003 88.706,140.424 				"/>
			</g>
		</g>
		<g>
			<g>
				<polygon fill="#B81C3D" points="46.5,100.791 71.5,86.286 96.5,100.791 96.5,129.809 71.5,144.318 46.5,129.809 				"/>
			</g>
			<g>
				<g>
					<g>
						<path fill="#FFFFFF" d="M74.348,133.043h-7.089l-11.232-30.514h9.756l5.05,15.822l4.989-15.822h9.757L74.348,133.043z"/>
					</g>
				</g>
			</g>
		</g>
		<g>
			<g>
				<polygon fill="#B81C3D" points="105.5,123.5 104.5,123.5 104.5,95.67 78.908,81.103 79.61,79.908 105.5,94.874 				"/>
			</g>
		</g>
		<g>
			<g>
				<polygon fill="#B81C3D" points="63.346,149.444 37.5,134.238 37.5,105.5 39.5,105.5 39.5,133.449 64.368,148.255 				"/>
			</g>
		</g>
		<g>
			
				<rect x="105.07" y="85.083" transform="matrix(0.5076 0.8616 -0.8616 0.5076 134.3557 -44.0986)" fill="#C1272D" width="1.379" height="20.831"/>
		</g>
		<g>
			
				<rect x="39.865" y="120.753" transform="matrix(0.4999 0.8661 -0.8661 0.4999 134.8678 31.0396)" fill="#C1272D" width="1.379" height="23.116"/>
		</g>
	</g>
	<g>
		<g>
			<path fill="#B81C3D" d="M50.5,30.625v9.951c0,0,0.891,0.183,2.078,0.492L71.5,48.707v-1.024c0,0.048-0.215,0.093-0.207,0.136
				c0.016-4.395,0.24-38.207,0.24-38.207C59.984,9.611,50.5,19.074,50.5,30.625z"/>
			<path fill="#B81C3D" d="M71.052,47.881c0-0.022-0.005-0.043-0.01-0.062C71.041,48.396,71.043,48.472,71.052,47.881z"/>
		</g>
		<g>
			<path fill="#98272D" d="M91.5,30.625v9.951c0,0-0.392,0.183-1.578,0.492L71.5,48.707v-1.024c0,0.048-0.334,0.093-0.342,0.136
				c-0.014-4.395-0.466-38.207-0.466-38.207C82.241,9.611,91.5,19.074,91.5,30.625z"/>
			<path fill="#98272D" d="M70.851,47.881c0-0.022,0.005-0.043,0.01-0.062C70.861,48.396,70.86,48.472,70.851,47.881z"/>
		</g>
		<g>
			<path fill="#FFFFFF" d="M60.143,31.486c1.851,0.854,4.023,0.13,5.008-1.615l-7.025-3.246
				C57.437,28.506,58.294,30.631,60.143,31.486z"/>
		</g>
		<g>
			<path fill="#FFFFFF" d="M81.096,31.486c-1.849,0.854-4.021,0.13-5.008-1.615l7.026-3.246
				C83.803,28.506,82.946,30.631,81.096,31.486z"/>
		</g>
		<polygon fill="#FFFFFF" points="50.5,16.295 70.658,14.537 91.5,16.364 91.5,16.916 70.658,15.727 50.5,16.916 		"/>
	</g>
	<path fill="none" stroke="#B81C3D" stroke-miterlimit="10" d="M45.646,30.849c0-13.956,11.313-25.271,25.27-25.271
		s25.27,11.314,25.27,25.271"/>
</g>
</svg>
