<?xml version="1.0" encoding="utf-8"?>
<!-- Generator: Adobe Illustrator 16.0.0, SVG Export Plug-In . SVG Version: 6.00 Build 0)  -->
<!DOCTYPE svg PUBLIC "-//W3C//DTD SVG 1.1//EN" "http://www.w3.org/Graphics/SVG/1.1/DTD/svg11.dtd">
<svg version="1.1" id="圖層_1" xmlns="http://www.w3.org/2000/svg" xmlns:xlink="http://www.w3.org/1999/xlink" x="0px" y="0px"
	 width="65px" height="66.167px" viewBox="0 0 65 66.167" enable-background="new 0 0 65 66.167" xml:space="preserve">
<g>
	<g>
		<polygon fill="#FFFFFF" points="4.667,17.541 32.167,2.08 59.667,17.541 59.667,48.467 32.167,63.928 4.667,48.467 		"/>
		<path fill="#B81C3D" d="M32.167,65.261l-28.5-16.12V16.867l28.5-16.12l28.5,16.12v32.273L32.167,65.261z M5.667,47.792
			l26.5,14.803l26.5-14.803V18.216l-26.5-14.803l-26.5,14.803V47.792z"/>
	</g>
	<g>
		<path fill="#B81C3D" d="M31.789,55.035c1.99-4.651,20.878-6.713,20.878-6.713V38.085c0-11.798-9-21.478-21-21.61v-0.006
			c0,0,0.041,0.003,0,0.003s0-0.003,0-0.003v0.006c-12,0.133-21,9.812-21,21.61v10.237c0,0,19,2.063,21,6.721"/>
		<path fill="#B81C3D" d="M31.722,55.278"/>
		<g>
			<path fill="#B81C3D" d="M58.174,11.003c0,0,3.493,15.235-7.507,17.686v9.203C50.667,37.892,76.12,31.397,58.174,11.003z"/>
		</g>
		<g>
			<path fill="#98272D" d="M31.801,16.469c11.878,0,20.866,9.736,20.866,21.616v10.237c0,0-20.874,2.378-20.874,7.594
				C31.793,61.131,31.801,16.469,31.801,16.469z"/>
		</g>
		<g>
			<path fill="#B81C3D" d="M7.159,11.003c0,0-4.492,15.235,7.508,17.686v9.203C14.667,37.892-10.786,31.397,7.159,11.003z"/>
		</g>
		<g>
			<path fill="#FFFFFF" d="M19.134,31.833c0,0,4.604-5,10.132,0H19.134z"/>
		</g>
		<g>
			<path fill="#FFFFFF" d="M35.1,31.833c0,0,4.604-5,10.131,0H35.1z"/>
		</g>
		<path fill="#FFFFFF" d="M31.667,42.395c-5,0-12.783-4.7-12.783-4.7c0,4.305,12.783,9.408,12.783,9.408s12.782-5.104,12.782-9.408
			C44.449,37.694,39.667,42.395,31.667,42.395z"/>
		<g>
			<path d="M40.518,8.943l-3.844,5.838l-4.859-5.719l-4.826,5.719l-3.811-5.838c0,0-3.06,10.328,1.438,12.522l7.198,2.611
				l7.231-2.611C43.544,19.271,40.518,8.943,40.518,8.943z"/>
		</g>
	</g>
</g>
</svg>
