<?xml version="1.0" encoding="utf-8"?>
<!-- Generator: Adobe Illustrator 16.0.0, SVG Export Plug-In . SVG Version: 6.00 Build 0)  -->
<!DOCTYPE svg PUBLIC "-//W3C//DTD SVG 1.1//EN" "http://www.w3.org/Graphics/SVG/1.1/DTD/svg11.dtd">
<svg version="1.1" id="圖層_1" xmlns="http://www.w3.org/2000/svg" xmlns:xlink="http://www.w3.org/1999/xlink" x="0px" y="0px"
	 width="83px" height="82px" viewBox="0 0 83 82" enable-background="new 0 0 83 82" xml:space="preserve">
<g>
	<g>
		<circle fill="#FFFFFF" cx="38.918" cy="44.213" r="36.069"/>
		<path fill="#B81C3D" d="M38.92,80.782c-20.165,0-36.57-16.405-36.57-36.569S18.755,7.644,38.92,7.644
			c20.163,0,36.567,16.405,36.567,36.569S59.083,80.782,38.92,80.782z M38.92,8.644C19.307,8.644,3.35,24.6,3.35,44.213
			s15.957,35.569,35.57,35.569c19.612,0,35.567-15.956,35.567-35.569S58.532,8.644,38.92,8.644z"/>
	</g>
	<g>
		<g>
			<polygon fill="#FFFFFF" points="53.045,20.146 63.208,30.31 17.049,76.469 5.802,77.553 6.884,66.306 			"/>
			<path fill="#B81C3D" d="M4.69,78.664l1.232-12.812l47.122-47.121L64.622,30.31l-47.12,47.12L4.69,78.664z M7.845,66.759
				l-0.932,9.683l9.683-0.934L61.794,30.31l-8.749-8.75L7.845,66.759z"/>
		</g>
		<g>
			
				<rect x="30.964" y="14.39" transform="matrix(0.7071 0.7071 -0.7071 0.7071 45.7001 -7.5505)" fill="#B81C3D" width="2" height="74"/>
		</g>
		<g>
			<path fill="#B81C3D" d="M67.201,35.717L47.638,16.152l5.475-5.475l19.564,19.563L67.201,35.717z M50.466,16.152l16.735,16.736
				l2.647-2.647L53.112,13.506L50.466,16.152z"/>
		</g>
		<g>
			
				<rect x="63.779" y="3.692" transform="matrix(-0.7071 -0.7071 0.7071 -0.7071 109.029 73.2344)" fill="#FFFFFF" width="11.807" height="20.686"/>
			<path fill="#B81C3D" d="M66.544,26.938l-9.764-9.765L72.822,1.132l9.763,9.764L66.544,26.938z M59.608,17.173l6.936,6.937
				l13.213-13.214L72.822,3.96L59.608,17.173z"/>
		</g>
		<g>
			
				<rect x="66.528" y="6.295" transform="matrix(0.9942 0.1074 -0.1074 0.9942 2.1016 -7.1624)" fill="#B81C3D" width="2" height="19.26"/>
		</g>
		<g>
			
				<rect x="68.64" y="2.132" transform="matrix(0.2666 0.9638 -0.9638 0.2666 64.5755 -56.8468)" fill="#B81C3D" width="2" height="23.75"/>
		</g>
	</g>
	<g>
		<circle fill="#B81C3D" cx="38.437" cy="44.458" r="24.693"/>
	</g>
	<g>
		<path fill="#FFFFFF" d="M26.65,44.645h-1.143v-5.566c-1.211,1.32-2.498,2.336-3.861,3.047l-0.627-0.979
			c0.096,0,0.58-0.298,1.457-0.892s1.598-1.188,2.162-1.782c0.564-0.594,1.049-1.225,1.451-1.892l0.242-0.418h-5.027v-1.001h9.592
			v1.001h-3.344c-0.051,0.096-0.092,0.173-0.121,0.231c-0.205,0.396-0.439,0.788-0.703,1.177c-0.021,0.029-0.049,0.069-0.078,0.121
			V44.645z M27.795,38.099c1.062,0.858,2.01,1.734,2.838,2.63c0.133,0.146,0.305,0.333,0.518,0.561l-0.848,0.825
			c-0.189-0.22-0.348-0.403-0.473-0.55c-0.887-1.042-1.805-1.97-2.75-2.783L27.795,38.099z"/>
		<path fill="#FFFFFF" d="M35.912,34.678l0.936,0.462c-0.631,1.614-1.709,3.117-3.234,4.511l-0.736-0.936
			c0.857-0.755,1.508-1.452,1.947-2.09S35.627,35.338,35.912,34.678z M41.336,38.562c-0.096,2.94-0.275,4.652-0.539,5.137
			c-0.133,0.257-0.318,0.443-0.561,0.561s-0.807,0.177-1.693,0.177c-0.309,0-0.492-0.004-0.551-0.012l-0.309-1.022
			c0.756,0.021,1.316,0.032,1.684,0.032c0.322,0,0.533-0.22,0.633-0.659c0.098-0.44,0.182-1.515,0.246-3.224h-2.529
			c-0.154,0.873-0.416,1.648-0.787,2.327c-0.369,0.678-0.904,1.305-1.605,1.881c-0.699,0.575-1.119,0.863-1.26,0.863l-0.703-0.913
			c1.057-0.564,1.824-1.175,2.305-1.831s0.801-1.432,0.963-2.327h-1.783v-0.989H41.336z M40.148,34.777
			c0.455,0.865,0.879,1.559,1.275,2.079s0.928,1.104,1.596,1.749l-0.881,0.836c-0.916-0.917-1.775-2.138-2.574-3.663h-2.068v-1.001
			H40.148z"/>
		<path fill="#FFFFFF" d="M54.877,44.028h-8.822v0.616H45.01v-9.879h9.57v0.979h-8.525v7.304h8.822V44.028z M46.727,39.54h3.486
			v2.882h-3.486V39.54z M49.289,40.42H47.65v1.122h1.639V40.42z M47.705,36.262h5.379v2.651h-5.379V36.262z M52.082,37.142h-3.377
			v0.892h3.377V37.142z M50.961,39.54h3.443v2.882h-3.443V39.54z M53.48,40.42h-1.607v1.122h1.607V40.42z"/>
		<path fill="#FFFFFF" d="M32.547,51.563h3.773v0.968h-8.57v-0.968h3.686v-1.562h-4.51v-0.968h4.51v-1.309h1.111v1.309h4.51v0.968
			h-4.51V51.563z M29.291,54.049c-0.074,0.235-0.133,0.43-0.176,0.583c-0.346,1.145-0.727,2.035-1.145,2.674l-0.969-0.484
			c0.492-0.814,0.869-1.653,1.133-2.519c0.037-0.133,0.088-0.301,0.154-0.507L29.291,54.049z M30.787,53.466v2.927
			c0,0.227,0.127,0.341,0.385,0.341h2.014c0.234,0,0.387-0.044,0.455-0.132c0.07-0.088,0.127-0.44,0.172-1.057
			c0-0.08,0.002-0.19,0.01-0.33l1.035,0.319c-0.066,0.756-0.137,1.26-0.209,1.513c-0.074,0.253-0.225,0.425-0.451,0.517
			c-0.229,0.092-0.551,0.138-0.969,0.138h-2.244h-0.143c-0.389,0-0.674-0.092-0.854-0.275c-0.18-0.183-0.27-0.554-0.27-1.11v-2.85
			H30.787z M32.711,55.127c-0.469-0.77-0.904-1.371-1.309-1.804l0.836-0.506c0.176,0.176,0.371,0.407,0.584,0.693l0.803,1.077
			L32.711,55.127z M35.979,56.932c-0.535-1.32-1.033-2.317-1.496-2.992l0.957-0.429c0.322,0.483,0.59,0.938,0.803,1.363l0.803,1.617
			L35.979,56.932z"/>
		<path fill="#FFFFFF" d="M44.459,56.205h4.379v1.045h-9.9v-1.045h4.389v-6.501h-3.949v-1.056h9.053v1.045h-3.971V56.205z"/>
	</g>
	<g>
		<path fill="#B81C3D" d="M7.087,32.671c-2.888,0-5.237-2.35-5.237-5.237s2.35-5.236,5.237-5.236s5.237,2.349,5.237,5.236
			S9.975,32.671,7.087,32.671z M7.087,24.197c-1.785,0-3.237,1.452-3.237,3.236c0,1.785,1.452,3.237,3.237,3.237
			s3.237-1.452,3.237-3.237C10.324,25.649,8.872,24.197,7.087,24.197z"/>
	</g>
	<g>
		<path fill="#B81C3D" d="M63.01,76.247c-2.888,0-5.237-2.35-5.237-5.237s2.35-5.236,5.237-5.236s5.236,2.349,5.236,5.236
			S65.897,76.247,63.01,76.247z M63.01,67.773c-1.785,0-3.237,1.452-3.237,3.236c0,1.785,1.452,3.237,3.237,3.237
			c1.784,0,3.236-1.452,3.236-3.237C66.246,69.226,64.794,67.773,63.01,67.773z"/>
	</g>
</g>
</svg>
