<?xml version="1.0" encoding="utf-8"?>
<!-- Generator: Adobe Illustrator 16.0.0, SVG Export Plug-In . SVG Version: 6.00 Build 0)  -->
<!DOCTYPE svg PUBLIC "-//W3C//DTD SVG 1.1//EN" "http://www.w3.org/Graphics/SVG/1.1/DTD/svg11.dtd">
<svg version="1.1" id="圖層_1" xmlns="http://www.w3.org/2000/svg" xmlns:xlink="http://www.w3.org/1999/xlink" x="0px" y="0px"
	 width="59px" height="67.501px" viewBox="0 0 59 67.501" enable-background="new 0 0 59 67.501" xml:space="preserve">
<g>
	<g>
		<polygon fill="#FFFFFF" points="1.167,17.395 29.667,1.064 58.167,17.395 58.167,50.058 29.667,66.389 1.167,50.058 		"/>
		<path fill="#B81C3D" d="M29.667,67.541l-29.5-16.904V16.815l29.5-16.903l29.5,16.903v33.821L29.667,67.541z M2.167,49.479
			l27.5,15.758l27.5-15.758V17.974l-27.5-15.757l-27.5,15.757V49.479z"/>
	</g>
	<g>
		<g>
			<g>
				<polygon fill="#B81C3D" points="43.643,38.09 37.076,44.658 7.252,14.832 6.551,7.566 13.818,8.265 				"/>
			</g>
			<g>
				<path fill="#B81C3D" d="M37.12,51.275l-4.039-4.04l13.142-13.14l4.037,4.038L37.12,51.275z M35.909,47.235l1.211,1.212
					l10.312-10.313l-1.209-1.21L35.909,47.235z"/>
			</g>
			<g>
				
					<rect x="43.776" y="42.156" transform="matrix(0.7072 -0.707 0.707 0.7072 -20.5954 47.9442)" fill="#B81C3D" width="7.629" height="13.367"/>
			</g>
		</g>
		<g>
			<g>
				<polygon fill="#B81C3D" points="22.605,44.836 16.04,38.269 45.863,8.445 53.132,7.744 52.431,15.012 				"/>
			</g>
			<g>
				<path fill="#B81C3D" d="M22.562,51.453L9.423,38.312l4.037-4.039l13.141,13.143L22.562,51.453z M12.251,38.312l10.311,10.312
					l1.211-1.209L13.46,37.102L12.251,38.312z"/>
			</g>
			<g>
				
					<rect x="8.042" y="42.1" transform="matrix(0.707 0.7072 -0.7072 0.707 37.9713 5.9072)" fill="#B81C3D" width="7.627" height="13.366"/>
			</g>
		</g>
	</g>
</g>
</svg>
