<?xml version="1.0" encoding="utf-8"?>
<!-- Generator: Adobe Illustrator 16.0.0, SVG Export Plug-In . SVG Version: 6.00 Build 0)  -->
<!DOCTYPE svg PUBLIC "-//W3C//DTD SVG 1.1//EN" "http://www.w3.org/Graphics/SVG/1.1/DTD/svg11.dtd">
<svg version="1.1" id="圖層_1" xmlns="http://www.w3.org/2000/svg" xmlns:xlink="http://www.w3.org/1999/xlink" x="0px" y="0px"
	 width="39.375px" height="44.75px" viewBox="0 0 39.375 44.75" enable-background="new 0 0 39.375 44.75" xml:space="preserve">
<polygon fill="#FFFFFF" stroke="#B81C3D" stroke-width="2" stroke-miterlimit="10" points="1.25,12.103 19.75,1.511 38.25,12.103 
	38.25,33.285 19.75,43.877 1.25,33.285 "/>
<g>
	<path fill="#B81C3D" d="M17.361,12.459c0,0,1.34,4.983,5.502,6.254c4.163,1.271,9.7,3.169,9.7,3.169l-2.217,7.867l-8.396-2.755
		c0,0-8.088-1.794-9.279,1.873C12.672,28.867,11.434,21.971,17.361,12.459z"/>
	<path fill="#B81C3D" d="M17.143,11.763c0,0-0.576-0.671-1.542,1.076c-1.084,1.959-2.508,6.217-3.035,8.265
		c-0.529,2.048-1.137,6.806-1.137,6.806s-0.266,1.201,0.405,1.281c0.673,0.081,0.424-0.652,0.406-1.823
		c-0.016-1.169,0.624-4.696,2.106-9.358c1.409-4.43,2.716-5.306,2.716-5.306S17.578,12.214,17.143,11.763z"/>
	<circle fill="#B81C3D" cx="13.435" cy="20.643" r="3.25"/>
	<path fill="#B81C3D" d="M34.376,28.572c-0.367,0.996-1.512,1.493-2.557,1.109l-3.157-1.16c-1.045-0.385-1.596-1.504-1.23-2.501
		l1.162-3.159c0.365-0.997,1.511-1.494,2.557-1.108l3.156,1.158c1.046,0.385,1.596,1.504,1.229,2.502L34.376,28.572z"/>
	<path fill="#B81C3D" d="M21.948,25.686c0,0,2.427,2.07,1.91,3.643c-0.517,1.574-2.175,5.772-2.175,5.772s1.399,1.443,3.32,0.408
		c1.921-1.033,1.854-5.659,1.854-5.659s0.67-1.795,2.717-1.043"/>
	<polygon fill="#B81C3D" points="9.359,17.394 4.58,13.694 3.572,15.822 	"/>
	<polygon fill="#B81C3D" points="7.733,19.526 3.25,18.85 3.25,20.643 	"/>
	<polygon fill="#B81C3D" points="10.088,17.149 6.218,12.205 8.254,11.665 	"/>
</g>
</svg>
