<?xml version="1.0" encoding="utf-8"?>
<!-- Generator: Adobe Illustrator 16.0.0, SVG Export Plug-In . SVG Version: 6.00 Build 0)  -->
<!DOCTYPE svg PUBLIC "-//W3C//DTD SVG 1.1//EN" "http://www.w3.org/Graphics/SVG/1.1/DTD/svg11.dtd">
<svg version="1.1" id="圖層_1" xmlns="http://www.w3.org/2000/svg" xmlns:xlink="http://www.w3.org/1999/xlink" x="0px" y="0px"
	 width="43.125px" height="45.875px" viewBox="0 0 43.125 45.875" enable-background="new 0 0 43.125 45.875" xml:space="preserve">
<g>
	<polygon fill="#FFFFFF" points="3.25,12.479 21.75,1.887 40.25,12.479 40.25,33.66 21.75,44.253 3.25,33.66 	"/>
	<path fill="#B81C3D" d="M21.75,45.451L2.25,34.254V11.885l19.5-11.197l19.5,11.197v22.369L21.75,45.451z M4.25,33.067l17.5,9.986
		l17.5-9.986V13.072l-17.5-9.987l-17.5,9.987V33.067z"/>
</g>
<g>
	<defs>
		<rect id="SVGID_2_" x="-3.75" y="4.125" width="49" height="35"/>
	</defs>
	<clipPath id="SVGID_1_">
		<use xlink:href="#SVGID_2_"  overflow="visible"/>
	</clipPath>
	<g clip-path="url(#SVGID_1_)">
		<g>
			<g>
				<polygon fill="#B81C3D" points="38.691,29.381 23.783,22.975 28.125,12.871 43.033,19.277 37.748,22.987 				"/>
			</g>
			<g>
				<path fill="#B81C3D" d="M27.336,14.082L25.65,9.858l4.226-1.685l1.684,4.224L27.336,14.082z M26.429,10.193l1.239,3.113
					l3.114-1.241L29.54,8.952L26.429,10.193z"/>
			</g>
			<g>
				<polygon fill="#B81C3D" points="27.693,13.249 26.23,9.58 31.361,11.786 				"/>
			</g>
			
				<rect x="20.23" y="9.056" transform="matrix(0.9195 0.393 -0.393 0.9195 13.2236 -5.8241)" fill="#B81C3D" width="1.208" height="40.644"/>
		</g>
		<g>
			<g>
				<polygon fill="#B81C3D" points="4.799,29.381 19.707,22.975 15.364,12.871 0.456,19.277 5.742,22.987 				"/>
			</g>
			<g>
				<path fill="#B81C3D" d="M11.931,12.397l1.683-4.224l4.226,1.685l-1.685,4.224L11.931,12.397z M13.949,8.952l-1.24,3.113
					l3.112,1.241l1.239-3.113L13.949,8.952z"/>
			</g>
			<g>
				<polygon fill="#B81C3D" points="15.797,13.249 17.26,9.58 12.13,11.786 				"/>
			</g>
			
				<rect x="22.053" y="9.056" transform="matrix(-0.9194 0.3933 -0.3933 -0.9194 55.0418 47.4774)" fill="#B81C3D" width="1.207" height="40.644"/>
		</g>
	</g>
</g>
</svg>
