<?xml version="1.0" encoding="utf-8"?>
<!-- Generator: Adobe Illustrator 16.0.0, SVG Export Plug-In . SVG Version: 6.00 Build 0)  -->
<!DOCTYPE svg PUBLIC "-//W3C//DTD SVG 1.1//EN" "http://www.w3.org/Graphics/SVG/1.1/DTD/svg11.dtd">
<svg version="1.1" id="圖層_1" xmlns="http://www.w3.org/2000/svg" xmlns:xlink="http://www.w3.org/1999/xlink" x="0px" y="0px"
	 width="788.667px" height="281.333px" viewBox="0 0 788.667 281.333" enable-background="new 0 0 788.667 281.333"
	 xml:space="preserve">
<g>
	<path fill="#B81C3D" d="M778.589,281.051c-0.411,0-0.826-0.028-1.246-0.087c-3.611-0.497-6.6-3.197-7.104-6.422
		c-0.27-1.718-0.147-6.073,6.783-9.4c4.31-2.068,6.888-4.712,7.663-7.857c0.753-3.054-0.34-6.015-1.233-7.763l-19.703,21.613
		l-2.217-2.021l22.277-24.438l1.088,1.446c0.173,0.229,4.211,5.689,2.708,11.853c-0.992,4.069-4.116,7.392-9.284,9.872
		c-3.603,1.729-5.468,4-5.118,6.231c0.305,1.947,2.219,3.594,4.55,3.914c2.369,0.323,4.532-0.748,6.165-2.992h-6.584v-3h11.509
		l-0.971,2.124C785.853,278.537,782.444,281.051,778.589,281.051z"/>
</g>
<g>
	<path fill="#B81C3D" d="M783.804,36.99l-22.271-24.316l2.213-2.025l19.71,21.521c0.887-1.714,1.97-4.613,1.239-7.615
		c-0.762-3.135-3.344-5.777-7.674-7.855c-6.925-3.324-7.052-7.65-6.784-9.355c0.506-3.234,3.404-5.843,7.046-6.345
		c4.394-0.599,8.344,1.969,10.588,6.878L788.842,10h-11.509V7h6.586c-1.647-2.271-3.833-3.366-6.227-3.029
		c-2.304,0.316-4.193,1.931-4.491,3.837c-0.346,2.204,1.521,4.458,5.119,6.186c5.192,2.492,8.32,5.816,9.297,9.88
		c1.467,6.1-2.555,11.465-2.727,11.69L783.804,36.99z"/>
</g>
<g>
	<path fill="#B81C3D" d="M10.544,281.051c-3.846,0-7.25-2.514-9.269-6.927L0.305,272h11.029v3H5.229
		c1.63,2.242,3.787,3.309,6.146,2.993c2.316-0.319,4.218-1.959,4.522-3.899c0.351-2.237-1.52-4.515-5.13-6.247
		c-5.174-2.483-8.304-5.809-9.305-9.884c-1.511-6.156,2.494-11.608,2.665-11.838l1.09-1.458l22.161,24.449l-2.223,2.016
		l-19.577-21.6c-0.882,1.747-1.953,4.695-1.198,7.736c0.783,3.152,3.368,5.802,7.684,7.873c6.943,3.333,7.065,7.695,6.796,9.416
		c-0.504,3.218-3.48,5.912-7.077,6.407C11.367,281.022,10.953,281.051,10.544,281.051z"/>
</g>
<g>
	<path fill="#B81C3D" d="M5.223,36.999l-1.09-1.439c-0.17-0.225-4.159-5.582-2.684-11.675c0.985-4.068,4.12-7.396,9.318-9.892
		c3.607-1.731,5.477-3.992,5.131-6.202c-0.297-1.898-2.175-3.506-4.464-3.821C9.048,3.641,6.871,4.729,5.227,7h6.107v3H0.305
		l0.971-2.124c2.245-4.908,6.2-7.478,10.567-6.878c3.627,0.499,6.513,3.102,7.019,6.329c0.268,1.708,0.141,6.041-6.797,9.371
		c-4.347,2.086-6.938,4.741-7.7,7.893c-0.727,3.003,0.329,5.87,1.204,7.572l19.59-21.512l2.218,2.02L5.223,36.999z"/>
</g>
<g>
	<path fill="#B81C3D" d="M780.333,272h-772V10h772V272z M11.333,269h766V13h-766V269z"/>
</g>
</svg>
