<?xml version="1.0" encoding="utf-8"?>
<!-- Generator: Adobe Illustrator 16.0.0, SVG Export Plug-In . SVG Version: 6.00 Build 0)  -->
<!DOCTYPE svg PUBLIC "-//W3C//DTD SVG 1.1//EN" "http://www.w3.org/Graphics/SVG/1.1/DTD/svg11.dtd">
<svg version="1.1" id="圖層_1" xmlns="http://www.w3.org/2000/svg" xmlns:xlink="http://www.w3.org/1999/xlink" x="0px" y="0px"
	 width="704.666px" height="52.667px" viewBox="0 0 704.666 52.667" enable-background="new 0 0 704.666 52.667"
	 xml:space="preserve">
<g>
	<polygon fill="#98272D" points="1,53 143.334,53 143.334,39 113.241,39 124.957,14 22.52,14 28.005,33.5 	"/>
	<polygon fill="#FBB03B" points="113.241,39 143.334,53.011 143.334,39 	"/>
	<polygon fill="#B81C3D" points="593.033,39 112,39 132.676,-1 574.045,-1 	"/>
	<polygon fill="#98272D" points="705.275,53 563.334,53 563.334,39 593.033,39 581.318,14 683.754,14 678.27,33.5 	"/>
	<polygon fill="#FBB03B" points="593.033,39 563.334,53.011 563.334,39 	"/>
	<g>
		<text transform="matrix(1 0 0 1 278.7896 24.834)" fill="#FFFFFF" font-family="'LiGothicMed'" font-size="21.9555">自由罷免示範區</text>
	</g>
	<g>
		<circle fill="none" stroke="#FFFFFF" stroke-width="2" stroke-miterlimit="10" cx="250.859" cy="17.736" r="8.737"/>
		<line fill="none" stroke="#FFFFFF" stroke-width="2" stroke-miterlimit="10" x1="251.334" y1="18" x2="160.334" y2="18"/>
	</g>
	<g>
		<circle fill="none" stroke="#FFFFFF" stroke-width="2" stroke-miterlimit="10" cx="461.737" cy="17.736" r="8.737"/>
		<line fill="none" stroke="#FFFFFF" stroke-width="2" stroke-miterlimit="10" x1="462.334" y1="18" x2="553.334" y2="18"/>
	</g>
</g>
</svg>
