<?xml version="1.0" encoding="utf-8"?>
<!-- Generator: Adobe Illustrator 16.0.0, SVG Export Plug-In . SVG Version: 6.00 Build 0)  -->
<!DOCTYPE svg PUBLIC "-//W3C//DTD SVG 1.1//EN" "http://www.w3.org/Graphics/SVG/1.1/DTD/svg11.dtd">
<svg version="1.1" id="圖層_1" xmlns="http://www.w3.org/2000/svg" xmlns:xlink="http://www.w3.org/1999/xlink" x="0px" y="0px"
	 width="140.667px" height="31.333px" viewBox="0 0 140.667 31.333" enable-background="new 0 0 140.667 31.333"
	 xml:space="preserve">
<g>
	<g>
		<g>
			<line fill="none" stroke="#B81C3D" stroke-width="2" stroke-miterlimit="10" x1="131.333" y1="14.999" x2="9.333" y2="14.999"/>
			<g>
				<path fill="#B81C3D" d="M129.606,24.999c2.498-4,6.387-7.422,10.523-10c-4.176-2.539-7.902-6-10.523-10h-2.496
					c2.619,4,5.771,7.379,9.662,10c-3.892,2.66-7.166,6-9.703,10H129.606z"/>
				<path fill="#B81C3D" d="M123.589,24.999c2.498-4,6.387-7.422,10.521-10c-4.176-2.539-7.9-6-10.521-10h-2.496
					c2.618,4,5.771,7.379,9.66,10c-3.889,2.66-7.164,6-9.701,10H123.589z"/>
			</g>
			<g>
				<path fill="#B81C3D" d="M11.024,24.999c-2.498-4-6.387-7.422-10.523-10c4.176-2.539,7.902-6,10.523-10h2.496
					c-2.619,4-5.771,7.379-9.662,10c3.892,2.66,7.166,6,9.703,10H11.024z"/>
				<path fill="#B81C3D" d="M17.042,24.999c-2.498-4-6.387-7.422-10.521-10c4.176-2.539,7.9-6,10.521-10h2.496
					c-2.618,4-5.771,7.379-9.66,10c3.889,2.66,7.164,6,9.701,10H17.042z"/>
			</g>
		</g>
	</g>
	<polygon fill="#FFFFFF" stroke="#B81C3D" stroke-width="2" stroke-miterlimit="10" points="30.126,29.999 23.867,15.499 
		30.126,0.999 110.902,0.999 117.161,15.499 110.902,29.999 	"/>
</g>
</svg>
