<?xml version="1.0" encoding="utf-8"?>
<!-- Generator: Adobe Illustrator 16.0.0, SVG Export Plug-In . SVG Version: 6.00 Build 0)  -->
<!DOCTYPE svg PUBLIC "-//W3C//DTD SVG 1.1//EN" "http://www.w3.org/Graphics/SVG/1.1/DTD/svg11.dtd">
<svg version="1.1" id="圖層_1" xmlns="http://www.w3.org/2000/svg" xmlns:xlink="http://www.w3.org/1999/xlink" x="0px" y="0px"
	 width="178.5px" height="207.5px" viewBox="0 0 178.5 207.5" enable-background="new 0 0 178.5 207.5" xml:space="preserve">
<polygon fill="#FFFFFF" points="2,53.783 88,3.838 174,53.783 174,153.674 88,203.619 2,153.674 "/>
<g>
	<g>
		<path fill="#B81C3D" d="M88.5,207.121L0,155.808V53.184L88.5,1.87L178,53.184v102.624L88.5,207.121z M5,153.261l84.5,48.761
			l84.5-48.761V55.731L89.5,6.97L5,55.731V153.261z"/>
	</g>
</g>
<g>
	<g>
		<polygon fill="#B81C3D" points="175.257,156.204 89.609,106.678 3.963,156.204 2.195,153.146 89.609,102.597 177.025,153.146 		
			"/>
	</g>
</g>
<g>
	<g>
		<polygon fill="#B81C3D" points="175.257,146.491 89.609,96.965 3.963,146.491 2.195,143.434 89.609,92.885 177.025,143.434 		"/>
	</g>
</g>
<g id="mfeLxH_1_">
	<g>
		<g>
			<g>
				<path fill-rule="evenodd" clip-rule="evenodd" fill="#B81C3D" d="M105.048,28.813c3.054,5.017,2.42,9.949-0.689,14.588
					c-2.312,3.447-4.939,6.694-7.548,9.933c-1.769,2.193-2.595,4.481-2.585,7.391c0.097,27.125-1.029,27.615-1.002,54.74
					c0.002,1.668,0.197,3.364,0.536,4.998c0.849,4.082,2.762,5.687,6.916,6.041c8.627,0.738,8.792,0.742,8.58,9.514
					c-0.305,12.57-4.401,23.797-12.714,33.341c-1.32,1.516-2.902,2.817-4.449,4.115c-2.71,2.276-5.716,2.476-8.209-0.007
					c-3.321-3.307-6.722-6.7-9.269-10.592c-5.954-9.094-8.115-19.421-8.329-30.174c-0.085-4.404,1.365-5.784,5.809-6.061
					c1.347-0.085,2.708-0.039,4.043-0.215c3.092-0.41,5.216-2.08,5.872-5.192c0.416-1.965,0.726-3.996,0.729-5.997
					c0.051-27.125,1.167-27.617,1.016-54.738c-0.013-2.27-1.136-4.702-2.293-6.747c-1.263-2.222-3.151-4.09-4.795-6.087
					c-4.595-5.593-7.376-11.565-4.048-18.855C83.429,28.81,94.237,28.812,105.048,28.813z M76.362,34.948
					c-0.218,0.294-0.434,0.589-0.652,0.884c4.357,4.537,8.712,9.077,13.39,13.951c4.7-4.949,9.017-9.491,13.329-14.032
					c-0.223-0.267-0.445-0.533-0.667-0.799C93.295,34.951,84.83,34.951,76.362,34.948z"/>
			</g>
		</g>
	</g>
</g>
<g>
	<g>
		<path fill="#B81C3D" d="M135.786,121.5h-3.532c0-24-19.071-42.514-42.513-42.514c-23.442,0-42.514,18.514-42.514,42.514h-3.532
			c0-25,20.656-46.045,46.046-46.045S135.786,96.5,135.786,121.5z"/>
	</g>
</g>
<g>
	<g>
		
			<rect x="9.898" y="70.34" transform="matrix(0.871 0.4913 -0.4913 0.871 39.1524 -4.8994)" fill="#B81C3D" width="38.015" height="3.533"/>
	</g>
</g>
<g>
	<g>
		
			<rect x="144.133" y="51.774" transform="matrix(0.4913 0.871 -0.871 0.4913 135.8616 -91.0697)" fill="#B81C3D" width="3.532" height="38.015"/>
	</g>
</g>
<g>
	<g>
		
			<rect x="152.179" y="94.474" transform="matrix(0.0088 1 -1 0.0088 259.9778 -47.4898)" fill="#B81C3D" width="3.531" height="25.852"/>
	</g>
</g>
<g>
	<g>
		
			<rect x="23.706" y="94.474" transform="matrix(0.0088 1 -1 0.0088 132.6415 80.9783)" fill="#B81C3D" width="3.531" height="25.851"/>
	</g>
</g>
</svg>
