<?xml version="1.0" encoding="utf-8"?>
<!-- Generator: Adobe Illustrator 16.0.0, SVG Export Plug-In . SVG Version: 6.00 Build 0)  -->
<!DOCTYPE svg PUBLIC "-//W3C//DTD SVG 1.1//EN" "http://www.w3.org/Graphics/SVG/1.1/DTD/svg11.dtd">
<svg version="1.1" id="圖層_1" xmlns="http://www.w3.org/2000/svg" xmlns:xlink="http://www.w3.org/1999/xlink" x="0px" y="0px"
	 width="886.333px" height="472px" viewBox="0 0 886.333 472" enable-background="new 0 0 886.333 472" xml:space="preserve">
<g>
	<polygon fill="#B81C3D" points="863.04,448.334 862.902,34.333 22.333,34.333 22.333,448.333 19.333,448.333 19.333,31.333 
		866.333,31.333 866.333,32.833 866.256,448.333 	"/>
</g>
<g>
	<polygon fill="#98272D" points="89.4,53.333 231.333,53.333 231.333,39.333 201.641,39.333 213.357,14.333 110.92,14.333 
		116.406,33.833 	"/>
	<polygon fill="#FBB03B" points="201.641,39.333 231.333,53.011 231.333,39.333 	"/>
	<polygon fill="#B81C3D" points="681.435,39.333 200.401,39.333 221.077,-0.667 662.446,-0.667 	"/>
	<polygon fill="#98272D" points="793.675,53.333 651.333,53.333 651.333,39.333 681.435,39.333 669.718,14.333 772.155,14.333 
		766.669,33.833 	"/>
	<polygon fill="#FBB03B" points="681.435,39.333 651.333,53.011 651.333,39.333 	"/>
	<g>
		<text transform="matrix(1 0 0 1 377.6396 24.8335)" fill="#FFFFFF" font-family="'LiGothicMed'" font-size="21.9555">限時副本任務</text>
	</g>
	<g>
		<circle fill="none" stroke="#FFFFFF" stroke-width="2" stroke-miterlimit="10" cx="353.26" cy="17.736" r="8.737"/>
		<line fill="none" stroke="#FFFFFF" stroke-width="2" stroke-miterlimit="10" x1="353.333" y1="18.333" x2="262.333" y2="18.333"/>
	</g>
	<g>
		<circle fill="none" stroke="#FFFFFF" stroke-width="2" stroke-miterlimit="10" cx="533.138" cy="17.736" r="8.736"/>
		<line fill="none" stroke="#FFFFFF" stroke-width="2" stroke-miterlimit="10" x1="533.333" y1="18.333" x2="624.333" y2="18.333"/>
	</g>
</g>
<g>
	<path fill="#B81C3D" d="M21.948,471.248c-11.389,0-20.655-9.267-20.655-20.656c0-11.389,9.266-20.654,20.655-20.654
		s20.655,9.266,20.655,20.654C42.603,461.981,33.337,471.248,21.948,471.248z M21.948,432.937c-9.735,0-17.655,7.92-17.655,17.654
		c0,9.735,7.92,17.656,17.655,17.656s17.655-7.921,17.655-17.656C39.603,440.857,31.683,432.937,21.948,432.937z"/>
</g>
<g>
	<path fill="#B81C3D" d="M864.948,471.248c-11.39,0-20.656-9.267-20.656-20.656c0-11.389,9.267-20.654,20.656-20.654
		c11.389,0,20.654,9.266,20.654,20.654C885.603,461.981,876.337,471.248,864.948,471.248z M864.948,432.937
		c-9.735,0-17.656,7.92-17.656,17.654c0,9.735,7.921,17.656,17.656,17.656c9.734,0,17.654-7.921,17.654-17.656
		C882.603,440.857,874.683,432.937,864.948,432.937z"/>
</g>
</svg>
