<?xml version="1.0" encoding="utf-8"?>
<!-- Generator: Adobe Illustrator 16.0.0, SVG Export Plug-In . SVG Version: 6.00 Build 0)  -->
<!DOCTYPE svg PUBLIC "-//W3C//DTD SVG 1.1//EN" "http://www.w3.org/Graphics/SVG/1.1/DTD/svg11.dtd">
<svg version="1.1" id="圖層_1" xmlns="http://www.w3.org/2000/svg" xmlns:xlink="http://www.w3.org/1999/xlink" x="0px" y="0px"
	 width="79.75px" height="91.75px" viewBox="0 0 79.75 91.75" enable-background="new 0 0 79.75 91.75" xml:space="preserve">
<circle fill="#FFFFFF" cx="36.133" cy="49.726" r="18.497"/>
<g>
	<g>
		<polygon fill="#B81C3D" points="0.5,22.763 40,0.004 79.5,22.763 79.5,68.281 40,91.04 0.5,68.281 		"/>
	</g>
	<g id="mfeLxH_2_">
		<g>
			<g>
				<g>
					<path fill-rule="evenodd" clip-rule="evenodd" fill="#FFFFFF" d="M68.122,24.576c-0.57,2.783-2.418,4.324-5.048,4.94
						c-1.956,0.46-3.957,0.746-5.945,1.033c-1.351,0.194-2.397,0.732-3.352,1.766c-8.9,9.642-9.461,9.447-18.387,19.063
						c-0.55,0.593-1.037,1.258-1.456,1.947c-1.045,1.729-0.895,2.924,0.461,4.42c2.813,3.104,2.87,3.159-0.096,6.197
						c-4.249,4.35-9.398,6.979-15.487,7.622c-0.965,0.103-1.957,0.042-2.933-0.007c-1.709-0.086-2.838-1.006-2.905-2.707
						c-0.086-2.266-0.175-4.587,0.207-6.807c0.886-5.181,3.522-9.552,6.988-13.432c1.422-1.588,2.39-1.599,4.055-0.236
						c0.504,0.415,0.972,0.88,1.503,1.258c1.229,0.874,2.533,0.982,3.79,0.096c0.797-0.561,1.574-1.178,2.234-1.887
						c8.951-9.591,9.51-9.399,18.39-19.056c0.744-0.808,1.146-2.04,1.411-3.146c0.283-1.203,0.229-2.487,0.306-3.735
						c0.214-3.496,1.197-6.527,4.779-8.014C60.464,17.454,64.293,21.015,68.122,24.576z M55.94,17.302
						c-0.176,0.031-0.35,0.065-0.524,0.097c0.051,3.044,0.099,6.086,0.15,9.354c3.294-0.206,6.32-0.393,9.342-0.582
						c0.008-0.167,0.02-0.336,0.028-0.502C61.937,22.879,58.938,20.09,55.94,17.302z"/>
				</g>
			</g>
		</g>
	</g>
</g>
</svg>
