<?xml version="1.0" encoding="utf-8"?>
<!-- Generator: Adobe Illustrator 16.0.0, SVG Export Plug-In . SVG Version: 6.00 Build 0)  -->
<!DOCTYPE svg PUBLIC "-//W3C//DTD SVG 1.1//EN" "http://www.w3.org/Graphics/SVG/1.1/DTD/svg11.dtd">
<svg version="1.1" id="圖層_1" xmlns="http://www.w3.org/2000/svg" xmlns:xlink="http://www.w3.org/1999/xlink" x="0px" y="0px"
	 width="83px" height="95.25px" viewBox="0 0 83 95.25" enable-background="new 0 0 83 95.25" xml:space="preserve">
<g>
	<polygon fill="#666666" points="0,23.872 41.5,0.121 83,23.872 83,71.375 41.5,95.126 0,71.375 	"/>
</g>
<g>
	<path fill="#FFFFFF" d="M37.201,28.25h10.308c2.223,0,4.085-3,4.589-5H32.612C33.116,25.25,34.979,28.25,37.201,28.25z"/>
	<g>
		<path fill="#FFFFFF" d="M56.758,24.25h-3.015c-0.592,3-2.778,6-5.385,6H36.264c-2.608,0-4.794-3-5.385-6h-3.016
			c-1.947,0-3.863,1.358-3.863,3.307v41.879c0,1.948,1.916,3.814,3.863,3.814h28.895c1.948,0,3.242-1.866,3.242-3.814V27.557
			C60,25.608,58.706,24.25,56.758,24.25z M54,49.75c0,0.828-0.672,1.5-1.5,1.5h-21c-0.828,0-1.5-0.672-1.5-1.5l0,0
			c0-0.828,0.672-1.5,1.5-1.5h21C53.328,48.25,54,48.922,54,49.75L54,49.75z M54,43.75c0,0.828-0.672,1.5-1.5,1.5h-21
			c-0.828,0-1.5-0.672-1.5-1.5l0,0c0-0.828,0.672-1.5,1.5-1.5h21C53.328,42.25,54,42.922,54,43.75L54,43.75z M54,36.75
			c0,0.828-0.672,1.5-1.5,1.5h-21c-0.828,0-1.5-0.672-1.5-1.5l0,0c0-0.828,0.672-1.5,1.5-1.5h21C53.328,35.25,54,35.922,54,36.75
			L54,36.75z"/>
	</g>
</g>
</svg>
