<?xml version="1.0" encoding="utf-8"?>
<!-- Generator: Adobe Illustrator 16.0.0, SVG Export Plug-In . SVG Version: 6.00 Build 0)  -->
<!DOCTYPE svg PUBLIC "-//W3C//DTD SVG 1.1//EN" "http://www.w3.org/Graphics/SVG/1.1/DTD/svg11.dtd">
<svg version="1.1" id="圖層_1" xmlns="http://www.w3.org/2000/svg" xmlns:xlink="http://www.w3.org/1999/xlink" x="0px" y="0px"
	 width="83px" height="95.25px" viewBox="0 0 83 95.25" enable-background="new 0 0 83 95.25" xml:space="preserve">
<g>
	<polygon fill="#B81C3D" points="0,23.872 41.5,0.121 83,23.872 83,71.375 41.5,95.126 0,71.375 	"/>
</g>
<g>
	<path fill="#FFFFFF" d="M56.596,71.392c0,5.065-4.107,9.173-9.174,9.173H36.507c-5.065,0-9.173-4.107-9.173-9.173l5.457-41.701
		c0-5.066,4.107-9.173,9.174-9.173l0,0c5.066,0,9.173,4.106,9.173,9.173L56.596,71.392z"/>
	<path fill="#FFFFFF" d="M47.422,17.367c0,0.898-0.621,1.626-1.389,1.626h-8.137c-0.768,0-1.39-0.728-1.39-1.626v-2.333
		c0-0.897,0.622-1.625,1.39-1.625h8.137c0.768,0,1.389,0.728,1.389,1.625V17.367z"/>
	<path fill="#B81C3D" d="M32.385,77.066c0,0,8.825-9.754,19.275,0"/>
	<path fill="#B81C3D" d="M44.486,22.307c0,0,4.021,0.924,4.694,6.836c0,0-0.535,1.613-1.408,0.271
		c-0.872-1.343,0.22-3.089-3.805-5.903C43.968,23.51,43.021,22.566,44.486,22.307z"/>
	<circle fill="#B81C3D" cx="48.7" cy="31.836" r="0.754"/>
	<g id="_x33_gZbBA_1_">
		<g>
			<path fill-rule="evenodd" clip-rule="evenodd" fill="#B81C3D" d="M41.077,64.948c-0.93-0.275-1.911-0.439-2.78-0.843
				c-3.957-1.835-5.838-6.134-4.576-10.312c0.695-2.306,1.775-4.444,3.084-6.443c1.549-2.366,3.232-4.642,4.86-6.955
				c0.073-0.104,0.169-0.193,0.304-0.346c0.404,0.517,0.797,1.004,1.174,1.504c2.267,3.003,4.392,6.098,5.993,9.518
				c0.684,1.459,1.289,2.953,1.431,4.583c0.387,4.456-2.886,8.563-7.311,9.191c-0.143,0.021-0.28,0.067-0.42,0.103
				C42.249,64.948,41.663,64.948,41.077,64.948z M39.132,62.004c-0.298-1.415-0.649-2.784-0.865-4.175
				c-0.272-1.752,0.083-3.476,0.531-5.158c0.66-2.479,1.404-4.937,2.107-7.404c0.073-0.259,0.114-0.527,0.171-0.791
				c-0.23,0.269-0.374,0.56-0.533,0.84c-1.211,2.136-2.452,4.253-3.629,6.406c-0.938,1.719-1.623,3.51-1.213,5.546
				C36.129,59.389,37.223,60.998,39.132,62.004z"/>
		</g>
	</g>
</g>
</svg>
