<?xml version="1.0" encoding="utf-8"?>
<!-- Generator: Adobe Illustrator 16.0.0, SVG Export Plug-In . SVG Version: 6.00 Build 0)  -->
<!DOCTYPE svg PUBLIC "-//W3C//DTD SVG 1.1//EN" "http://www.w3.org/Graphics/SVG/1.1/DTD/svg11.dtd">
<svg version="1.1" id="圖層_1" xmlns="http://www.w3.org/2000/svg" xmlns:xlink="http://www.w3.org/1999/xlink" x="0px" y="0px"
	 width="83px" height="95.25px" viewBox="0 0 83 95.25" enable-background="new 0 0 83 95.25" xml:space="preserve">
<g>
	<polygon fill="#B81C3D" points="0,24.122 41.5,0.371 83,24.122 83,71.625 41.5,95.376 0,71.625 	"/>
</g>
<polygon fill-rule="evenodd" clip-rule="evenodd" fill="#FFFFFF" points="32.598,81.5 41.48,73.807 50.364,81.5 "/>
<polygon fill="#FFFFFF" points="41.996,34.5 44.381,40.5 65.726,40.5 68.362,34.5 "/>
<path fill="#FFFFFF" d="M41.744,21.797C38.942,21.611,24.486,21.5,5.584,33.5h36.034h0.252h36.034
	C59.002,21.5,44.546,21.611,41.744,21.797z"/>
<polygon fill="#FFFFFF" points="41.492,34.5 39.107,40.5 17.763,40.5 15.126,34.5 "/>
<polygon fill="#FFFFFF" points="14.059,34.5 11.61,40.5 5.71,40.5 5.584,34.5 "/>
<polygon fill="#FFFFFF" points="69.584,34.5 72.032,40.5 77.933,40.5 78.059,34.5 "/>
<circle fill="#FFFFFF" cx="41.744" cy="21.3" r="2.135"/>
<rect x="40" y="34.5" fill="#FFFFFF" width="3" height="47"/>
</svg>
