<?xml version="1.0" encoding="UTF-8" standalone="no"?>
<!-- Generator: Adobe Illustrator 16.0.0, SVG Export Plug-In . SVG Version: 6.00 Build 0)  -->

<svg
   xmlns:dc="http://purl.org/dc/elements/1.1/"
   xmlns:cc="http://creativecommons.org/ns#"
   xmlns:rdf="http://www.w3.org/1999/02/22-rdf-syntax-ns#"
   xmlns:svg="http://www.w3.org/2000/svg"
   xmlns="http://www.w3.org/2000/svg"
   xmlns:sodipodi="http://sodipodi.sourceforge.net/DTD/sodipodi-0.dtd"
   xmlns:inkscape="http://www.inkscape.org/namespaces/inkscape"
   version="1.1"
   id="圖層_1"
   x="0px"
   y="0px"
   width="140.667px"
   height="31.333px"
   viewBox="0 0 140.667 31.333"
   enable-background="new 0 0 140.667 31.333"
   xml:space="preserve"
   inkscape:version="0.48.5 r10040"
   sodipodi:docname="appy_v_web＿img-53.svg"
   inkscape:export-filename="/Users/yurenju/src/projectV/app/images/arraw-background.png"
   inkscape:export-xdpi="127.3"
   inkscape:export-ydpi="127.3"><metadata
     id="metadata29"><rdf:RDF><cc:Work
         rdf:about=""><dc:format>image/svg+xml</dc:format><dc:type
           rdf:resource="http://purl.org/dc/dcmitype/StillImage" /><dc:title></dc:title></cc:Work></rdf:RDF></metadata><defs
     id="defs27" /><sodipodi:namedview
     pagecolor="#ffffff"
     bordercolor="#666666"
     borderopacity="1"
     objecttolerance="10"
     gridtolerance="10"
     guidetolerance="10"
     inkscape:pageopacity="0"
     inkscape:pageshadow="2"
     inkscape:window-width="640"
     inkscape:window-height="480"
     id="namedview25"
     showgrid="false"
     inkscape:zoom="2.3672928"
     inkscape:cx="70.333504"
     inkscape:cy="15.6665"
     inkscape:window-x="0"
     inkscape:window-y="0"
     inkscape:window-maximized="0"
     inkscape:current-layer="圖層_1" /><g
     id="g3"><g
       id="g5"><g
         id="g7"><line
           fill="none"
           stroke="#B81C3D"
           stroke-width="2"
           stroke-miterlimit="10"
           x1="131.333"
           y1="14.999"
           x2="9.333"
           y2="14.999"
           id="line9" /><g
           id="g11"><path
             fill="#B81C3D"
             d="M129.606,24.999c2.498-4,6.387-7.422,10.523-10c-4.176-2.539-7.902-6-10.523-10h-2.496      c2.619,4,5.771,7.379,9.662,10c-3.892,2.66-7.166,6-9.703,10H129.606z"
             id="path13" /><path
             fill="#B81C3D"
             d="M123.589,24.999c2.498-4,6.387-7.422,10.521-10c-4.176-2.539-7.9-6-10.521-10h-2.496      c2.618,4,5.771,7.379,9.66,10c-3.889,2.66-7.164,6-9.701,10H123.589z"
             id="path15" /></g><g
           id="g17"><path
             fill="#B81C3D"
             d="M11.024,24.999c-2.498-4-6.387-7.422-10.523-10c4.176-2.539,7.902-6,10.523-10h2.496      c-2.619,4-5.771,7.379-9.662,10c3.892,2.66,7.166,6,9.703,10H11.024z"
             id="path19" /><path
             fill="#B81C3D"
             d="M17.042,24.999c-2.498-4-6.387-7.422-10.521-10c4.176-2.539,7.9-6,10.521-10h2.496      c-2.618,4-5.771,7.379-9.66,10c3.889,2.66,7.164,6,9.701,10H17.042z"
             id="path21" /></g></g></g><polygon
       fill="#FFFFFF"
       stroke="#B81C3D"
       stroke-width="2"
       stroke-miterlimit="10"
       points="30.126,29.999 23.867,15.499    30.126,0.999 110.902,0.999 117.161,15.499 110.902,29.999  "
       id="polygon23" /></g></svg>