<?xml version="1.0" encoding="utf-8"?>
<!-- Generator: Adobe Illustrator 16.0.0, SVG Export Plug-In . SVG Version: 6.00 Build 0)  -->
<!DOCTYPE svg PUBLIC "-//W3C//DTD SVG 1.1//EN" "http://www.w3.org/Graphics/SVG/1.1/DTD/svg11.dtd">
<svg version="1.1" id="圖層_1" xmlns="http://www.w3.org/2000/svg" xmlns:xlink="http://www.w3.org/1999/xlink" x="0px" y="0px"
	 width="83px" height="95.25px" viewBox="0 0 83 95.25" enable-background="new 0 0 83 95.25" xml:space="preserve">
<g>
	<polygon fill="#666666" points="0,23.622 41.5,-0.129 83,23.622 83,71.125 41.5,94.876 0,71.125 	"/>
</g>
<polygon fill-rule="evenodd" clip-rule="evenodd" fill="#FFFFFF" points="32.598,81 41.48,73.307 50.364,81 "/>
<polygon fill="#FFFFFF" points="41.996,34 44.381,40 65.726,40 68.362,34 "/>
<path fill="#FFFFFF" d="M41.744,21.297C38.942,21.111,24.486,21,5.584,33h36.034h0.252h36.034
	C59.002,21,44.546,21.111,41.744,21.297z"/>
<polygon fill="#FFFFFF" points="41.492,34 39.107,40 17.763,40 15.126,34 "/>
<polygon fill="#FFFFFF" points="14.059,34 11.61,40 5.71,40 5.584,34 "/>
<polygon fill="#FFFFFF" points="69.584,34 72.032,40 77.933,40 78.059,34 "/>
<circle fill="#FFFFFF" cx="41.744" cy="20.8" r="2.135"/>
<rect x="40" y="34" fill="#FFFFFF" width="3" height="47"/>
</svg>
