<?xml version="1.0" encoding="utf-8"?>
<!-- Generator: Adobe Illustrator 16.0.0, SVG Export Plug-In . SVG Version: 6.00 Build 0)  -->
<!DOCTYPE svg PUBLIC "-//W3C//DTD SVG 1.1//EN" "http://www.w3.org/Graphics/SVG/1.1/DTD/svg11.dtd">
<svg version="1.1" id="圖層_1" xmlns="http://www.w3.org/2000/svg" xmlns:xlink="http://www.w3.org/1999/xlink" x="0px" y="0px"
	 width="83px" height="95.25px" viewBox="0 0 83 95.25" enable-background="new 0 0 83 95.25" xml:space="preserve">
<g>
	<polygon fill="#666666" points="0,23.872 41.5,0.121 83,23.872 83,71.375 41.5,95.126 0,71.375 	"/>
</g>
<path fill-rule="evenodd" clip-rule="evenodd" fill="#FFFFFF" d="M64.09,20.089c1.383,0.317,2.335,1.259,3.264,2.241
	c0.469,0.496,0.969,0.962,1.438,1.457c1.414,1.487,1.6,3.847,0.229,5.357c-1.453,1.602-3.085,3.041-4.609,4.522
	c-2.66-2.657-5.381-5.375-8.131-8.123c-0.006,0.01,0.019-0.056,0.062-0.1c1.422-1.423,2.802-2.894,4.291-4.243
	c0.567-0.514,1.386-0.75,2.09-1.112C63.179,20.089,63.634,20.089,64.09,20.089z"/>
<path fill-rule="evenodd" clip-rule="evenodd" fill="#FFFFFF" d="M16.684,73.33c0.591-1.452,1.19-2.901,1.771-4.357
	c0.952-2.387,1.892-4.779,2.837-7.169c0.057-0.144,0.117-0.284,0.157-0.381c2.708,2.711,5.411,5.418,8.124,8.134
	c-0.045,0.021-0.174,0.094-0.309,0.147c-3.722,1.477-7.444,2.95-11.167,4.425c-0.481,0.19-0.96,0.351-1.413-0.062
	C16.684,73.82,16.684,73.575,16.684,73.33z"/>
<path fill-rule="evenodd" clip-rule="evenodd" fill="#FFFFFF" d="M33.767,64.346c-2.699-2.701-5.408-5.412-8.072-8.078
	C34.5,47.46,43.32,38.639,52.119,29.84c2.663,2.67,5.38,5.395,8.064,8.086C51.412,46.698,42.588,55.524,33.767,64.346z"/>
</svg>
