<?xml version="1.0" encoding="utf-8"?>
<!-- Generator: Adobe Illustrator 16.0.0, SVG Export Plug-In . SVG Version: 6.00 Build 0)  -->
<!DOCTYPE svg PUBLIC "-//W3C//DTD SVG 1.1//EN" "http://www.w3.org/Graphics/SVG/1.1/DTD/svg11.dtd">
<svg version="1.1" id="圖層_1" xmlns="http://www.w3.org/2000/svg" xmlns:xlink="http://www.w3.org/1999/xlink" x="0px" y="0px"
	 width="83px" height="95.25px" viewBox="0 0 83 95.25" enable-background="new 0 0 83 95.25" xml:space="preserve">
<g>
	<polygon fill="#B81C3D" points="0,23.872 41.5,0.121 83,23.872 83,71.375 41.5,95.126 0,71.375 	"/>
</g>
<g>
	<path fill="#FFFFFF" d="M58.653,29.316c0,5.156-7.86,9.341-17.558,9.341c-9.695,0-17.556-4.185-17.556-9.341
		c0-5.162,7.86-9.342,17.556-9.342C50.793,19.975,58.653,24.154,58.653,29.316z"/>
	<path fill="#FFFFFF" d="M24.135,75.438c-0.038,0.871-0.545,1.557-1.131,1.535l0,0c-0.587-0.026-1.033-0.753-0.996-1.624
		l1.961-46.819c0.037-0.871,0.541-1.557,1.128-1.534l0,0c0.587,0.025,1.034,0.752,0.998,1.623L24.135,75.438z"/>
	<path fill="#FFFFFF" d="M58.884,74.788c0.055,0.868,0.572,1.509,1.159,1.436l0,0c0.584-0.077,1.016-0.844,0.961-1.713
		l-2.918-46.679c-0.052-0.871-0.571-1.512-1.156-1.437l0,0c-0.586,0.077-1.016,0.845-0.961,1.713L58.884,74.788z"/>
	<path fill="#FFFFFF" d="M39.959,82.951c0.004,1.019,0.486,1.793,1.073,1.734l0,0c0.59-0.058,1.062-0.931,1.06-1.949l-0.216-54.65
		c-0.004-1.019-0.483-1.795-1.071-1.737l0,0c-0.59,0.061-1.063,0.936-1.06,1.954L39.959,82.951z"/>
	<path fill="#FFFFFF" d="M25.201,53.308c0,0,15.857,6.954,33.404-0.564l0.218,2.77c0,0-17.85,7.483-35.131-0.576L25.201,53.308z"/>
</g>
</svg>
