<?xml version="1.0" encoding="utf-8"?>
<!-- Generator: Adobe Illustrator 16.0.0, SVG Export Plug-In . SVG Version: 6.00 Build 0)  -->
<!DOCTYPE svg PUBLIC "-//W3C//DTD SVG 1.1//EN" "http://www.w3.org/Graphics/SVG/1.1/DTD/svg11.dtd">
<svg version="1.1" id="圖層_1" xmlns="http://www.w3.org/2000/svg" xmlns:xlink="http://www.w3.org/1999/xlink" x="0px" y="0px"
	 width="58.333px" height="58.166px" viewBox="0 0 58.333 58.166" enable-background="new 0 0 58.333 58.166" xml:space="preserve">
<g>
	<polyline fill="#6C313D" points="43.5,16.333 58.18,16.333 53.32,29.978 58.18,43.333 34.5,43.333 	"/>
</g>
<g>
	<polyline fill="#FFFFFF" points="45.449,36.944 34.334,42.818 34.271,36.944 	"/>
	<polygon fill="#B81C3D" points="33.958,43.451 33.887,36.948 34.654,36.94 34.711,42.185 45.27,36.605 45.628,37.284 	"/>
</g>
<g>
	<rect x="8.5" y="12.333" fill="#B81C3D" width="37" height="25"/>
</g>
<g>
	<path fill="#B81C3D" d="M4.502,9.853L-0.15,5.2l4.652-4.654L9.156,5.2L4.502,9.853z M1.074,5.2l3.428,3.428L7.932,5.2l-3.43-3.43
		L1.074,5.2z"/>
</g>
<g>
	<polygon fill="#B81C3D" points="4.502,9.374 0.461,5.333 8.544,5.333 	"/>
</g>
<rect x="3.5" y="5.333" fill="#B81C3D" width="2" height="53"/>
</svg>
