<?xml version="1.0" encoding="utf-8"?>
<!-- Generator: Adobe Illustrator 16.0.0, SVG Export Plug-In . SVG Version: 6.00 Build 0)  -->
<!DOCTYPE svg PUBLIC "-//W3C//DTD SVG 1.1//EN" "http://www.w3.org/Graphics/SVG/1.1/DTD/svg11.dtd">
<svg version="1.1" id="圖層_1" xmlns="http://www.w3.org/2000/svg" xmlns:xlink="http://www.w3.org/1999/xlink" x="0px" y="0px"
	 width="64.75px" height="75px" viewBox="0 0 64.75 75" enable-background="new 0 0 64.75 75" xml:space="preserve">
<g>
	<g>
		<g>
			<polygon fill="#FFFFFF" points="1,19.596 32.5,1.859 64,19.596 64,55.068 32.5,72.805 1,55.068 			"/>
		</g>
		<g>
			<path fill="#B81C3D" d="M32.5,74.334L0,55.844V18.822L32.5,0.33L65,18.822v37.021L32.5,74.334z M3,54.295l29.5,16.982L62,54.295
				V20.369L32.5,3.389L3,20.369V54.295z"/>
		</g>
	</g>
	<g>
		<g>
			<g>
				<path fill="#B81C3D" d="M21.672,14.914l1.116,1.963l14.211-8.062c-0.21-0.764-0.543-1.43-0.914-2.076L21.672,14.914z"/>
			</g>
		</g>
		<g>
			<g>
				<path fill="#B81C3D" d="M20.474,12.791c0.186,0.326,0.367,0.66,0.555,0.984l0.667,1.174l16.921-8.416
					c-0.406-0.705-1.625-2.455-2.026-3.209L20.474,12.791z"/>
			</g>
		</g>
		<g>
			<g>
				<path fill="#B81C3D" d="M8.548,24.389l13.996-7.941l-1.703-2.996c0,0-0.707,1.734-1.847,2.592
					c-1.035,0.785-2.147,0.896-3.171,0.938c-0.421,0.018-2.896,0.082-4.849,1.201c-1.744,0.994-4.183,3.443-5.292,5.414
					c-1.039,1.857-1.349,3.186-1.349,3.186L8.548,24.389z"/>
			</g>
		</g>
		<g>
			<g>
				<path fill="#FFFFFF" d="M12.933,21.227c-1.443-0.408-2.89-0.803-4.333-1.205C7.998,20.6,7.395,21.24,6.871,21.877l4.104,1.135
					l2.753-1.562C13.465,21.375,13.198,21.299,12.933,21.227z"/>
			</g>
		</g>
	</g>
	<g>
		<g>
			<polygon fill="#B81C3D" points="50.267,55.822 52.539,54.453 51.913,53.414 49.557,54.635 			"/>
		</g>
		<g>
			<polygon fill="#B81C3D" points="50.244,55.783 50.928,56.92 53.111,55.402 52.516,54.412 			"/>
		</g>
		<g>
			<g>
				<path fill="#B81C3D" d="M42.983,60.145c0.11,0.943,0.19,1.895,0.323,2.77l7.788-4.684c0.531-0.324,0.703-1.014,0.384-1.545
					l-0.733-1.213L42.983,60.145z"/>
			</g>
		</g>
		<g>
			<g>
				<path fill="#B81C3D" d="M48.365,53.695l-5.909,3.551c0.273,0.928,0.418,1.936,0.533,2.951l7.784-4.684l-0.865-1.43
					C49.591,53.549,48.898,53.375,48.365,53.695z"/>
			</g>
		</g>
		<g>
			<path fill="#B81C3D" d="M55.726,52.963c-0.233,0.135-0.522,0.078-0.678-0.129l-2.75,1.652l0.465,0.771l4.824-1.545l0.019-0.039
				c0.231-1.504,2.484-3.691,2.588-3.752c0.064-0.041,0.099-0.117,0.091-0.182l-4.347,2.617
				C56.02,52.578,55.935,52.836,55.726,52.963z"/>
		</g>
		<g>
			<path fill="#B81C3D" d="M51.862,53.76l0.46,0.766l2.747-1.652c0,0,0-0.002-0.005-0.002c-0.142-0.242-0.063-0.559,0.178-0.701
				c0.213-0.125,0.479-0.08,0.641,0.09l4.323-2.605c-0.055-0.014-0.112-0.012-0.161,0.018c-0.1,0.062-3.115,0.998-4.552,0.498
				l-0.041,0.004L51.862,53.76z"/>
		</g>
		<g>
			<polygon fill="#B81C3D" points="47.372,60.486 28.5,71 23.02,68.723 44.81,55.984 			"/>
		</g>
	</g>
	<g>
		<g>
			<polygon fill="#B81C3D" points="14,27.268 32.5,16.756 51,27.268 51,48.293 32.5,58.807 14,48.293 			"/>
		</g>
		<g>
			<g>
				<g>
					<path fill="#FFFFFF" d="M34.405,50.637h-5.137L21.13,28.525h7.069l3.658,11.467l3.616-11.467h7.069L34.405,50.637z"/>
				</g>
			</g>
		</g>
	</g>
	<g>
		<g>
			<polygon fill="#B81C3D" points="57,44.25 56,44.25 56,23.555 37.584,13 38.167,12.135 57,22.979 			"/>
		</g>
	</g>
	<g>
		<g>
			<polygon fill="#B81C3D" points="26.58,62.521 8,51.504 8,31.25 9,31.25 9,50.932 27.17,61.66 			"/>
		</g>
	</g>
	<g>
		
			<rect x="56.667" y="15.885" transform="matrix(0.5079 0.8614 -0.8614 0.5079 48.3181 -37.7141)" fill="#C1272D" width="1" height="15.094"/>
	</g>
	<g>
		
			<rect x="9.419" y="41.731" transform="matrix(0.5003 0.8658 -0.8658 0.5003 48.3396 16.448)" fill="#C1272D" width="0.999" height="16.75"/>
	</g>
</g>
</svg>
