<?xml version="1.0" encoding="utf-8"?>
<!-- Generator: Adobe Illustrator 16.0.0, SVG Export Plug-In . SVG Version: 6.00 Build 0)  -->
<!DOCTYPE svg PUBLIC "-//W3C//DTD SVG 1.1//EN" "http://www.w3.org/Graphics/SVG/1.1/DTD/svg11.dtd">
<svg version="1.1" id="圖層_1" xmlns="http://www.w3.org/2000/svg" xmlns:xlink="http://www.w3.org/1999/xlink" x="0px" y="0px"
	 width="178.5px" height="207.5px" viewBox="0 0 178.5 207.5" enable-background="new 0 0 178.5 207.5" xml:space="preserve">
<g>
	<polygon fill="#FFFFFF" points="3,54.283 89,4.338 175,54.283 175,154.174 89,204.119 3,154.174 	"/>
	<g>
		<g>
			<g>
				<g>
					<g>
						
							<rect x="40.052" y="92.001" transform="matrix(0.48 0.8773 -0.8773 0.48 139.8694 -46.2692)" fill="#B81C3D" width="137.824" height="5.696"/>
					</g>
				</g>
				<g>
					<g>
						
							<rect x="66.541" y="25.937" transform="matrix(0.8771 0.4803 -0.4803 0.8771 54.0776 -21.6694)" fill="#B81C3D" width="5.692" height="137.823"/>
					</g>
				</g>
			</g>
			<g>
				<g>
					
						<rect x="86.329" y="24.854" transform="matrix(0.9997 0.0231 -0.0231 0.9997 0.9344 -2.0539)" fill="#B81C3D" width="5.695" height="28.953"/>
				</g>
			</g>
		</g>
	</g>
	<g>
		<g>
			<path fill="#B81C3D" d="M89,205.664L0,155.051V53.824L89,3.208l89,50.616v101.227L89,205.664z M5,152.536l83.999,48.099
				L172,152.536V56.339L88.999,8.24L5,56.339V152.536z"/>
		</g>
	</g>
	<g>
		<g>
			<polygon fill="#B81C3D" points="112.166,191.88 88.604,178.329 66.755,190.739 65.011,187.725 88.604,174.303 113.909,188.864 
							"/>
		</g>
	</g>
	<g>
		<polygon fill="#B81C3D" points="89.43,59.189 38.207,157 139.564,157 		"/>
	</g>
	<g>
		<g>
			<g>
				<path fill="#FFFFFF" d="M102.88,158.2h-5.692v-30.837c0-4.579-3.726-8.304-8.305-8.304c-4.578,0-8.303,3.725-8.303,8.304V158.2
					h-5.692v-30.837c0-7.719,6.28-14,13.995-14c7.72,0,13.997,6.281,13.997,14V158.2z"/>
			</g>
		</g>
	</g>
	<g>
		<rect x="12" y="47" fill="#B81C3D" width="5" height="113"/>
	</g>
	<g>
		<rect x="160" y="47" fill="#B81C3D" width="5" height="113"/>
	</g>
</g>
</svg>
