<?xml version="1.0" encoding="utf-8"?>
<!-- Generator: Adobe Illustrator 16.0.0, SVG Export Plug-In . SVG Version: 6.00 Build 0)  -->
<!DOCTYPE svg PUBLIC "-//W3C//DTD SVG 1.1//EN" "http://www.w3.org/Graphics/SVG/1.1/DTD/svg11.dtd">
<svg version="1.1" id="圖層_1" xmlns="http://www.w3.org/2000/svg" xmlns:xlink="http://www.w3.org/1999/xlink" x="0px" y="0px"
	 width="39.375px" height="44.75px" viewBox="0 0 39.375 44.75" enable-background="new 0 0 39.375 44.75" xml:space="preserve">
<polygon fill="#FFFFFF" stroke="#B81C3D" stroke-width="2" stroke-miterlimit="10" points="1.125,12.048 19.625,1.455 
	38.125,12.048 38.125,33.229 19.625,43.821 1.125,33.229 "/>
<path fill="#B81C3D" d="M13.068,14.582l15.087-4.457h-0.03V24.78c0,0,1.254,5.912-2.687,6.474c-3.941,0.564-4.438-4.672-1.737-5.797
	c2.703-1.126,3.353-0.337,3.353-0.337l-0.393-12.159l-11.536,4.164v8.106c0,0,0.998,6.165-3.277,6.065
	c-4.281-0.098-4.231-3.7-1.754-5.616c1.513-0.869,3.175-0.005,3.175-0.005L13.068,14.582z"/>
</svg>
