<?xml version="1.0" encoding="utf-8"?>
<!-- Generator: Adobe Illustrator 16.0.0, SVG Export Plug-In . SVG Version: 6.00 Build 0)  -->
<!DOCTYPE svg PUBLIC "-//W3C//DTD SVG 1.1//EN" "http://www.w3.org/Graphics/SVG/1.1/DTD/svg11.dtd">
<svg version="1.1" id="圖層_1" xmlns="http://www.w3.org/2000/svg" xmlns:xlink="http://www.w3.org/1999/xlink" x="0px" y="0px"
	 width="83.5px" height="82px" viewBox="0 0 83.5 82" enable-background="new 0 0 83.5 82" xml:space="preserve">
<g>
	<g>
		<circle fill="#FFFFFF" cx="38.418" cy="44.213" r="36.069"/>
		<path fill="#B81C3D" d="M38.42,80.782c-20.165,0-36.57-16.405-36.57-36.569S18.255,7.644,38.42,7.644
			c20.163,0,36.567,16.405,36.567,36.569S58.583,80.782,38.42,80.782z M38.42,8.644C18.807,8.644,2.85,24.6,2.85,44.213
			s15.957,35.569,35.57,35.569c19.612,0,35.567-15.956,35.567-35.569S58.032,8.644,38.42,8.644z"/>
	</g>
	<g>
		<g>
			<polygon fill="#FFFFFF" points="52.545,20.146 62.708,30.31 16.549,76.469 5.302,77.553 6.384,66.306 			"/>
			<path fill="#B81C3D" d="M4.19,78.664l1.232-12.812l47.122-47.121L64.122,30.31l-47.12,47.12L4.19,78.664z M7.345,66.759
				l-0.932,9.683l9.683-0.934L61.294,30.31l-8.749-8.75L7.345,66.759z"/>
		</g>
		<g>
			
				<rect x="30.464" y="14.39" transform="matrix(0.7071 0.7071 -0.7071 0.7071 45.5537 -7.197)" fill="#B81C3D" width="2" height="74"/>
		</g>
		<g>
			<path fill="#B81C3D" d="M66.701,35.717L47.138,16.152l5.475-5.475l19.564,19.563L66.701,35.717z M49.966,16.152l16.735,16.736
				l2.647-2.647L52.612,13.506L49.966,16.152z"/>
		</g>
		<g>
			
				<rect x="63.279" y="3.692" transform="matrix(-0.7071 -0.7071 0.7071 -0.7071 108.1755 72.8808)" fill="#FFFFFF" width="11.807" height="20.686"/>
			<path fill="#B81C3D" d="M66.044,26.938l-9.764-9.765L72.322,1.132l9.763,9.764L66.044,26.938z M59.108,17.173l6.936,6.937
				l13.213-13.214L72.322,3.96L59.108,17.173z"/>
		</g>
		<g>
			
				<rect x="66.028" y="6.295" transform="matrix(0.9942 0.1074 -0.1074 0.9942 2.0987 -7.1087)" fill="#B81C3D" width="2" height="19.26"/>
		</g>
		<g>
			
				<rect x="68.14" y="2.132" transform="matrix(0.2666 0.9638 -0.9638 0.2666 64.2088 -56.3649)" fill="#B81C3D" width="2" height="23.75"/>
		</g>
	</g>
	<g>
		<circle fill="#B81C3D" cx="37.937" cy="44.458" r="24.693"/>
	</g>
	<g>
		<path fill="#B81C3D" d="M6.587,32.671c-2.888,0-5.237-2.35-5.237-5.237s2.35-5.236,5.237-5.236s5.237,2.349,5.237,5.236
			S9.475,32.671,6.587,32.671z M6.587,24.197c-1.785,0-3.237,1.452-3.237,3.236c0,1.785,1.452,3.237,3.237,3.237
			s3.237-1.452,3.237-3.237C9.824,25.649,8.372,24.197,6.587,24.197z"/>
	</g>
	<g>
		<path fill="#B81C3D" d="M62.51,76.247c-2.888,0-5.237-2.35-5.237-5.237s2.35-5.236,5.237-5.236s5.236,2.349,5.236,5.236
			S65.397,76.247,62.51,76.247z M62.51,67.773c-1.785,0-3.237,1.452-3.237,3.236c0,1.785,1.452,3.237,3.237,3.237
			c1.784,0,3.236-1.452,3.236-3.237C65.746,69.226,64.294,67.773,62.51,67.773z"/>
	</g>
	<g>
		<path fill="#FFFFFF" d="M26.65,45.145h-1.143v-5.566c-1.211,1.32-2.498,2.336-3.861,3.047l-0.627-0.979
			c0.096,0,0.58-0.298,1.457-0.892s1.598-1.188,2.162-1.782c0.564-0.594,1.049-1.225,1.451-1.892l0.242-0.418h-5.027v-1.001h9.592
			v1.001h-3.344c-0.051,0.096-0.092,0.173-0.121,0.231c-0.205,0.396-0.439,0.788-0.703,1.177c-0.021,0.029-0.049,0.069-0.078,0.121
			V45.145z M27.795,38.599c1.062,0.858,2.01,1.734,2.838,2.63c0.133,0.146,0.305,0.333,0.518,0.561l-0.848,0.825
			c-0.189-0.22-0.348-0.403-0.473-0.55c-0.887-1.042-1.805-1.97-2.75-2.783L27.795,38.599z"/>
		<path fill="#FFFFFF" d="M35.912,35.178l0.936,0.462c-0.631,1.614-1.709,3.117-3.234,4.511l-0.736-0.936
			c0.857-0.755,1.508-1.452,1.947-2.09S35.627,35.838,35.912,35.178z M41.336,39.062c-0.096,2.94-0.275,4.652-0.539,5.137
			c-0.133,0.257-0.318,0.443-0.561,0.561s-0.807,0.177-1.693,0.177c-0.309,0-0.492-0.004-0.551-0.012l-0.309-1.022
			c0.756,0.021,1.316,0.032,1.684,0.032c0.322,0,0.533-0.22,0.633-0.659c0.098-0.44,0.182-1.515,0.246-3.224h-2.529
			c-0.154,0.873-0.416,1.648-0.787,2.327c-0.369,0.678-0.904,1.305-1.605,1.881c-0.699,0.575-1.119,0.863-1.26,0.863l-0.703-0.913
			c1.057-0.564,1.824-1.175,2.305-1.831s0.801-1.432,0.963-2.327h-1.783v-0.989H41.336z M40.148,35.277
			c0.455,0.865,0.879,1.559,1.275,2.079s0.928,1.104,1.596,1.749l-0.881,0.836c-0.916-0.917-1.775-2.138-2.574-3.663h-2.068v-1.001
			H40.148z"/>
		<path fill="#FFFFFF" d="M54.877,44.528h-8.822v0.616H45.01v-9.879h9.57v0.979h-8.525v7.304h8.822V44.528z M46.727,40.04h3.486
			v2.882h-3.486V40.04z M49.289,40.92H47.65v1.122h1.639V40.92z M47.705,36.762h5.379v2.651h-5.379V36.762z M52.082,37.642h-3.377
			v0.892h3.377V37.642z M50.961,40.04h3.443v2.882h-3.443V40.04z M53.48,40.92h-1.607v1.122h1.607V40.92z"/>
		<path fill="#FFFFFF" d="M27.904,53.13l-0.957-0.33c0.279-0.828,0.463-1.969,0.551-3.421c0-0.08,0.006-0.18,0.021-0.297l0.891,0.1
			L28.4,49.83l-0.033,0.583h0.693v-2.188h0.988v2.188h0.947v0.979h-0.947v1.826l0.475-0.198c0.146-0.066,0.297-0.14,0.449-0.221
			c0.023-0.014,0.057-0.032,0.1-0.055l0.176,1.001L30.6,54.065l-0.551,0.253v4.026h-0.988v-3.652
			c-0.266,0.125-0.551,0.246-0.859,0.363l-0.824,0.318l-0.408-1.034l1.123-0.374c0.514-0.183,0.836-0.312,0.969-0.385v-2.188h-0.805
			l-0.143,0.869c-0.043,0.227-0.102,0.469-0.176,0.726C27.93,53.024,27.92,53.071,27.904,53.13z M35.439,50.601
			c-0.08,1.231-0.232,2.234-0.457,3.008c-0.223,0.774-0.592,1.542-1.105,2.305c-0.344,0.506-0.725,0.97-1.143,1.392
			s-0.656,0.633-0.715,0.633l-0.781-0.848c1.965-1.474,3.035-3.438,3.211-5.896c0.016-0.198,0.029-0.396,0.045-0.594h-0.451
			c-0.264,1.979-1.098,3.637-2.498,4.972l-0.791-0.836c1.355-1.137,2.137-2.516,2.342-4.136h-0.473l-0.055,0.165
			c-0.25,0.667-0.568,1.229-0.957,1.683l-0.824-0.682c0.711-0.938,1.17-2.116,1.375-3.531l1.033,0.099l-0.131,0.715
			c-0.045,0.228-0.1,0.444-0.166,0.649h3.904v0.781c0,2.067-0.033,3.734-0.104,4.999c-0.07,1.266-0.227,2.039-0.467,2.321
			c-0.242,0.282-0.793,0.424-1.65,0.424c-0.271,0-0.488-0.008-0.65-0.022l-0.252-1.166c0.484,0.066,0.877,0.099,1.178,0.099
			c0.299,0,0.504-0.06,0.609-0.181c0.107-0.121,0.193-0.6,0.258-1.436c0.09-1.086,0.133-2.38,0.133-3.884v-0.22v-0.176v-0.143
			c0-0.301-0.004-0.466-0.012-0.495H35.439z"/>
		<path fill="#FFFFFF" d="M41.5,51.228c-0.402,0.271-1.176,0.587-2.32,0.945l-0.309-0.979c0.139-0.037,0.258-0.066,0.352-0.088
			c0.881-0.228,1.549-0.47,2.002-0.727L41.5,51.228z M43.117,57.442c-1.15,0.337-2.262,0.608-3.332,0.813
			c-0.096,0.015-0.217,0.037-0.363,0.066l-0.473-0.825c1.555-0.257,2.723-0.514,3.508-0.77L43.117,57.442z M40.928,50.139
			c-0.146-0.117-0.451-0.298-0.912-0.539l-0.824-0.43l0.627-0.726c0.717,0.257,1.293,0.558,1.727,0.902L40.928,50.139z
			 M42.205,52.129l-0.529-0.594c1.32-0.381,2.23-0.957,2.729-1.727h-1c-0.061,0.044-0.104,0.08-0.133,0.109
			c-0.234,0.206-0.404,0.345-0.506,0.418l-0.672,0.474l-0.648-0.704c0.711-0.447,1.197-0.794,1.457-1.04
			c0.262-0.245,0.516-0.529,0.766-0.853l0.902,0.298l-0.209,0.274l-0.209,0.242h4.256v0.792c-0.25,0.286-0.605,0.602-1.066,0.946
			c-0.074,0.051-0.172,0.124-0.297,0.22l-0.594-0.583l0.482-0.308l0.363-0.286h-1.891l-0.111,0.176
			c0.602,0.499,1.098,0.844,1.486,1.034s1.092,0.355,2.111,0.495l-0.264,0.945l-0.451-0.099l-0.408-0.099v4.41h-7.654v-4.543H42.205
			z M46.781,52.866h-5.666v0.528h5.666V52.866z M41.115,54.615h5.666v-0.561h-5.666V54.615z M41.115,55.913h5.666v-0.627h-5.666
			V55.913z M44.877,50.688l-0.318,0.318c-0.521,0.507-1.158,0.881-1.914,1.122h4.652C46.424,51.909,45.617,51.429,44.877,50.688z
			 M48.518,58.312l-1.682-0.451c-0.293-0.073-0.793-0.176-1.496-0.308c-0.111-0.022-0.25-0.052-0.418-0.089l0.506-0.77l0.615,0.088
			c1.107,0.176,2.072,0.381,2.893,0.616L48.518,58.312z"/>
	</g>
</g>
</svg>
