<?xml version="1.0" encoding="utf-8"?>
<!-- Generator: Adobe Illustrator 16.0.0, SVG Export Plug-In . SVG Version: 6.00 Build 0)  -->
<!DOCTYPE svg PUBLIC "-//W3C//DTD SVG 1.1//EN" "http://www.w3.org/Graphics/SVG/1.1/DTD/svg11.dtd">
<svg version="1.1" id="圖層_1" xmlns="http://www.w3.org/2000/svg" xmlns:xlink="http://www.w3.org/1999/xlink" x="0px" y="0px"
	 width="228px" height="408.5px" viewBox="0 0 228 408.5" enable-background="new 0 0 228 408.5" xml:space="preserve">
<circle fill="#B81C3D" cx="114.146" cy="169.255" r="77.992"/>
<path fill="#B81C3D" d="M156.225,4.379c0,0,6.775,24.809-12.225,28.799v14.988C144,48.166,185.45,37.59,156.225,4.379z"/>
<g>
	<path fill="#B81C3D" d="M210.362,305.521c-0.409,0-0.823-0.028-1.241-0.086c-3.636-0.5-6.645-3.229-7.154-6.486
		c-0.271-1.728-0.152-6.104,6.78-9.433c4.303-2.064,6.879-4.715,7.657-7.877c0.766-3.109-0.336-6.104-1.234-7.865l-19.719,21.692
		l-2.221-2.018l22.3-24.532l1.089,1.46c0.173,0.232,4.228,5.768,2.698,11.98c-1.003,4.074-4.122,7.393-9.271,9.864
		c-3.604,1.729-5.469,4.013-5.115,6.264c0.305,1.949,2.282,3.659,4.6,3.979c2.346,0.322,4.497-0.74,6.12-2.964H209v-3h11.577
		l-0.971,2.124C217.597,303.019,214.201,305.521,210.362,305.521z"/>
</g>
<path fill="none" stroke="#B81C3D" stroke-width="3" stroke-miterlimit="10" d="M194.341,50.994l21.075,22.91
	c0,0,9.172-11.893-6.02-19.184C194.207,47.43,211.84,34,218.242,48H209"/>
<g>
	<path fill="#B81C3D" d="M17.236,305.521c-3.827,0-7.216-2.503-9.226-6.897L7.04,296.5H18v3h-6.035
		c1.62,2.222,3.767,3.284,6.096,2.964c2.335-0.321,4.253-1.985,4.562-3.957c0.354-2.26-1.517-4.55-5.132-6.285
		c-5.155-2.475-8.282-5.799-9.296-9.879c-1.54-6.204,2.473-11.729,2.645-11.961l1.091-1.476l22.15,24.547l-2.227,2.01L12.3,273.794
		c-0.886,1.772-1.961,4.767-1.188,7.847c0.793,3.162,3.376,5.812,7.678,7.876c6.948,3.336,7.067,7.723,6.797,9.454
		c-0.509,3.249-3.502,5.968-7.117,6.466C18.055,305.493,17.644,305.521,17.236,305.521z"/>
</g>
<path fill="none" stroke="#B81C3D" stroke-width="3" stroke-miterlimit="10" d="M33.968,50.994l-20.922,22.91
	c0,0-9.095-11.893,6.095-19.184S16.777,34,10.375,48H19"/>
<g>
	<path fill="#B81C3D" d="M212,296.5H16v-247h196V296.5z M19,293.5h190v-241H19V293.5z"/>
</g>
<g>
	<path fill="#B81C3D" d="M216,300.5H12v-254h204V300.5z M13,299.5h202v-252H13V299.5z"/>
</g>
<g>
	<path fill="#B81C3D" d="M155.568,47.5h-1c0-22-17.944-40-40-40s-40,18-40,40h-1c0-22,18.393-41,41-41S155.568,25.5,155.568,47.5z"
		/>
</g>
<path fill="#B81C3D" d="M114.399,13.279C95.42,13.279,80,28.832,80,47.812v16.354c0,0,34.018,3.668,34.018,12
	C114.018,84.5,114.399,13.279,114.399,13.279z"/>
<path fill="#98272D" d="M113.852,13.279c18.979,0,34.148,15.553,34.148,34.533v16.354c0,0-33.891,3.668-33.891,12
	C114.109,84.5,113.852,13.279,113.852,13.279z"/>
<path fill="#B81C3D" d="M72.775,4.379c0,0-6.775,24.809,12.225,28.799v14.988C85,48.166,43.55,37.59,72.775,4.379z"/>
<path fill="#FFFFFF" d="M93.068,38.5c0,0,7.5-10,16.5,0H93.068z"/>
<path fill="#FFFFFF" d="M119.068,38.5c0,0,7.5-10,16.5,0H119.068z"/>
<path fill="#FFFFFF" d="M93.183,47.844c0,0,9.817,7.656,20.817,7.656v7.666C114,63.166,93.183,54.855,93.183,47.844z"/>
<path fill="#FFFFFF" d="M134.817,47.844c0,0-9.817,7.656-20.817,7.656v7.666C114,63.166,134.817,54.855,134.817,47.844z"/>
<path fill="#2974FF" d="M127.93,1.023l-6.109,9.283l-7.727-9.094l-7.674,9.094l-6.059-9.283c0,0-4.865,16.42,2.289,19.91
	l11.443,4.152l11.496-4.152C132.742,17.443,127.93,1.023,127.93,1.023z"/>
<path fill-rule="evenodd" clip-rule="evenodd" fill="#FFFFFF" d="M110.758,9.619c0.932-0.547,2.418-0.922,3.279-0.811
	c-0.254,0.959-0.508,1.912-0.76,2.863c0.531,0,1.045,0,1.586,0c-0.252-0.945-0.504-1.893-0.768-2.885
	c1.186,0.004,2.246,0.32,3.266,0.887c-0.713,0.705-1.414,1.396-2.113,2.088c0.482,0.277,0.928,0.533,1.398,0.803
	c0.25-0.928,0.506-1.873,0.771-2.854c1.006,0.598,1.781,1.385,2.387,2.391c-0.98,0.264-1.926,0.518-2.857,0.768
	c0.27,0.461,0.523,0.9,0.797,1.367c0.67-0.684,1.354-1.385,2.066-2.113c0.605,1.055,0.885,2.119,0.914,3.291
	c-0.979-0.26-1.932-0.514-2.883-0.766c0,0.537,0,1.039,0,1.592c0.941-0.252,1.893-0.504,2.881-0.768
	c-0.004,1.184-0.283,2.264-0.861,3.311c-0.717-0.727-1.412-1.436-2.113-2.146c-0.271,0.471-0.527,0.914-0.797,1.381
	c0.943,0.254,1.906,0.514,2.898,0.781c-0.41,0.732-0.918,1.34-1.537,1.85c-3.854,3.172-9.596,1.293-10.836-3.543
	c-0.746-2.906,0.646-6.082,3.281-7.488c0.006,0.098,0,0.195,0.023,0.289c0.105,0.416,0.219,0.828,0.33,1.244
	c0.129,0.477,0.258,0.955,0.383,1.414c0.469-0.27,0.912-0.525,1.379-0.793c-0.475-0.469-0.955-0.938-1.426-1.414
	C111.211,10.117,110.986,9.867,110.758,9.619z M114.068,12.082c-1.861,0.004-3.385,1.527-3.369,3.371
	c0.016,1.865,1.523,3.357,3.387,3.352c1.842-0.002,3.352-1.516,3.355-3.357C117.445,13.598,115.926,12.082,114.068,12.082z
	 M112.822,19.088c-0.428-0.246-0.871-0.504-1.33-0.768c-0.254,0.945-0.51,1.898-0.773,2.887
	C111.443,20.475,112.137,19.777,112.822,19.088z M115.33,19.078c0.678,0.684,1.371,1.385,2.088,2.109
	c-0.262-0.971-0.518-1.922-0.771-2.865C116.184,18.588,115.746,18.84,115.33,19.078z M108.395,12.121
	c0.672,0.689,1.359,1.395,2.025,2.078c0.25-0.43,0.504-0.869,0.773-1.33C110.256,12.619,109.303,12.363,108.395,12.121z
	 M111.189,18.021c-0.27-0.469-0.521-0.908-0.76-1.32c-0.676,0.674-1.375,1.371-2.084,2.08
	C109.293,18.527,110.24,18.273,111.189,18.021z M114.863,19.219c-0.541,0-1.053,0-1.588,0c0.254,0.947,0.51,1.895,0.766,2.846
	c0.02-0.004,0.041-0.004,0.062-0.008C114.357,21.111,114.609,20.164,114.863,19.219z M110.293,14.65
	c-0.947,0.252-1.9,0.508-2.854,0.764c-0.002,0.02-0.002,0.039-0.002,0.059c0.955,0.256,1.91,0.512,2.855,0.766
	C110.293,15.695,110.293,15.199,110.293,14.65z"/>
<g>
	<path fill="#B81C3D" d="M114.469,82.943c-0.072-0.107-7.544-10.896-33.429-12.361C38.667,68.184,18.068,61.5,18.068,50.5h1
		c0,10,20.869,16.754,62.028,19.084c26.445,1.497,33.9,12.307,34.204,12.764L114.469,82.943z"/>
</g>
<g>
	<path fill="#B81C3D" d="M113.984,82.943l-0.832-0.555c0.304-0.457,7.759-11.308,34.204-12.805
		c41.159-2.33,62.028-9.084,62.028-19.084h1c0,11-20.599,17.684-62.972,20.082C121.528,72.047,114.057,82.836,113.984,82.943z"/>
</g>
<circle fill-rule="evenodd" clip-rule="evenodd" fill="none" stroke="#B81C3D" stroke-width="2" stroke-miterlimit="10" cx="114.146" cy="83.693" r="7.569"/>
<g>
	<g>
		<polygon fill="#B81C3D" points="19.261,269.564 17.808,266.939 40.263,254.5 115,254.5 115,257.5 41.038,257.5 		"/>
	</g>
	<g>
		<polygon fill="#B81C3D" points="210.049,269.56 188.594,257.5 114,257.5 114,254.5 189.379,254.5 211.52,266.944 		"/>
	</g>
</g>
<g>
	
		<rect x="9.985" y="238.916" transform="matrix(0.6035 0.7974 -0.7974 0.6035 203.2495 72.1233)" fill="#B81C3D" width="38.25" height="3"/>
</g>
<g>
	
		<rect x="197.777" y="224.741" transform="matrix(0.8008 0.599 -0.599 0.8008 184.5974 -71.1643)" fill="#B81C3D" width="3" height="34.349"/>
</g>
<g>
	<polygon fill="#B81C3D" points="32.883,346.799 13.045,326.961 32.613,307.393 34.027,308.807 15.873,326.961 34.297,345.385 	"/>
</g>
<g>
	<path fill="#B81C3D" d="M14.342,340.232c-7.336,0-13.305-5.969-13.305-13.305s5.969-13.305,13.305-13.305
		s13.305,5.969,13.305,13.305S21.678,340.232,14.342,340.232z M14.342,315.623c-6.233,0-11.305,5.071-11.305,11.305
		s5.071,11.305,11.305,11.305s11.305-5.071,11.305-11.305S20.575,315.623,14.342,315.623z"/>
</g>
<g>
	<path fill="#B81C3D" d="M214.285,340.568c-7.336,0-13.305-5.969-13.305-13.305s5.969-13.305,13.305-13.305
		s13.305,5.969,13.305,13.305S221.621,340.568,214.285,340.568z M214.285,315.959c-6.233,0-11.305,5.071-11.305,11.305
		s5.071,11.305,11.305,11.305s11.305-5.071,11.305-11.305S220.519,315.959,214.285,315.959z"/>
</g>
<g>
	<polygon fill="#B81C3D" points="196.064,408.5 33,408.5 33,346.914 30.293,344.207 31.707,342.793 35,346.086 35,406.5 
		194.072,406.5 194.309,345.845 212.752,327.319 194.299,309.019 195.707,307.599 215.584,327.31 196.305,346.674 	"/>
</g>
</svg>
