<?xml version="1.0" encoding="utf-8"?>
<!-- Generator: Adobe Illustrator 16.0.0, SVG Export Plug-In . SVG Version: 6.00 Build 0)  -->
<!DOCTYPE svg PUBLIC "-//W3C//DTD SVG 1.1//EN" "http://www.w3.org/Graphics/SVG/1.1/DTD/svg11.dtd">
<svg version="1.1" id="圖層_1" xmlns="http://www.w3.org/2000/svg" xmlns:xlink="http://www.w3.org/1999/xlink" x="0px" y="0px"
	 width="615.667px" height="169px" viewBox="0 0 615.667 169" enable-background="new 0 0 615.667 169" xml:space="preserve">
<line fill="none" stroke="#B81C3D" stroke-width="3" stroke-miterlimit="10" x1="0" y1="7.833" x2="604" y2="7.833"/>
<line fill="none" stroke="#B81C3D" stroke-width="3" stroke-miterlimit="10" x1="0" y1="160.833" x2="604" y2="160.833"/>
<g>
	<path fill="#B81C3D" d="M605.201,168.384c-0.41,0-0.825-0.029-1.244-0.086c-3.61-0.497-6.598-3.197-7.103-6.42
		c-0.269-1.719-0.146-6.075,6.785-9.402c4.32-2.074,6.9-4.725,7.671-7.88c0.748-3.066-0.339-6.009-1.23-7.745l-19.692,21.617
		l-2.217-2.021l22.263-24.439l1.089,1.448c0.172,0.229,4.206,5.689,2.702,11.851c-0.993,4.07-4.117,7.393-9.286,9.874
		c-3.604,1.729-5.47,4.001-5.12,6.233c0.306,1.946,2.218,3.592,4.547,3.913c2.371,0.327,4.53-0.749,6.163-2.992H604v-3h11.452
		l-0.971,2.124C612.463,165.871,609.055,168.384,605.201,168.384z"/>
</g>
<g>
	<path fill="#B81C3D" d="M609.428,36.325l-22.256-24.317l2.213-2.025l19.695,21.52c0.885-1.714,1.965-4.612,1.235-7.613
		c-0.763-3.135-3.346-5.778-7.677-7.857c-6.927-3.325-7.053-7.651-6.786-9.357c0.507-3.233,3.403-5.842,7.044-6.343
		c4.38-0.604,8.34,1.968,10.585,6.877l0.971,2.124H603v-3h6.529c-1.646-2.271-3.826-3.359-6.224-3.03
		c-2.303,0.317-4.19,1.93-4.489,3.835c-0.345,2.205,1.521,4.46,5.121,6.188c5.192,2.492,8.322,5.817,9.3,9.881
		c1.467,6.099-2.55,11.463-2.722,11.689L609.428,36.325z"/>
</g>
<rect x="582" y="7.333" fill="#B81C3D" width="17" height="155"/>
</svg>
