<?xml version="1.0" encoding="utf-8"?>
<!-- Generator: Adobe Illustrator 16.0.0, SVG Export Plug-In . SVG Version: 6.00 Build 0)  -->
<!DOCTYPE svg PUBLIC "-//W3C//DTD SVG 1.1//EN" "http://www.w3.org/Graphics/SVG/1.1/DTD/svg11.dtd">
<svg version="1.1" id="圖層_1" xmlns="http://www.w3.org/2000/svg" xmlns:xlink="http://www.w3.org/1999/xlink" x="0px" y="0px"
	 width="178.5px" height="207.5px" viewBox="0 0 178.5 207.5" enable-background="new 0 0 178.5 207.5" xml:space="preserve">
<polygon fill="#FFFFFF" points="2,53.283 88,3.338 174,53.283 174,153.174 88,203.119 2,153.174 "/>
<g>
	<g>
		<path fill="#B81C3D" d="M88.5,206.621L0,155.308V52.684L88.5,1.37L178,52.684v102.624L88.5,206.621z M4,152.761l85,48.761
			l84-48.761V55.231L89,6.47L4,55.231V152.761z"/>
	</g>
</g>
<g>
	<polygon fill="#B81C3D" points="17,162 12,159 12,49 17,45 	"/>
</g>
<g>
	<g>
		<g>
			<g>
				<polygon fill="#B81C3D" points="44.387,77.218 54.434,108.795 120.459,108.795 130.507,77.218 113.283,77.218 110.412,93.007 
					97.697,93.007 96.262,77.218 80.312,77.218 79.363,93.007 67.625,93.007 64.685,77.218 				"/>
			</g>
		</g>
		<g>
			<g>
				<path fill="#B81C3D" d="M127.448,180.841l-38.141,21.813c0,0-41.171-25.587-41.529-23.813l-0.464,2.298l-4.596-0.927
					l0.464-2.299c0.091-0.453,9.153-45.496,9.571-58.627l2.344-2.271h64.699l2.318,1.993l9.969,61.129L127.448,180.841z"/>
			</g>
		</g>
	</g>
	<g>
		<g>
			<polyline fill="#B81C3D" points="88.933,80.163 89.122,34.95 121.884,44.902 89.122,54.543 89.122,34.95 			"/>
		</g>
		<g>
			<path fill="#B81C3D" d="M91.277,80.173l-4.689-0.02l0.202-48.362l43.277,13.147l-38.69,11.384L91.277,80.173z M91.466,38.112
				v13.296l22.233-6.541L91.466,38.112z"/>
		</g>
	</g>
</g>
</svg>
