<?xml version="1.0" encoding="utf-8"?>
<!-- Generator: Adobe Illustrator 16.0.0, SVG Export Plug-In . SVG Version: 6.00 Build 0)  -->
<!DOCTYPE svg PUBLIC "-//W3C//DTD SVG 1.1//EN" "http://www.w3.org/Graphics/SVG/1.1/DTD/svg11.dtd">
<svg version="1.1" id="圖層_1" xmlns="http://www.w3.org/2000/svg" xmlns:xlink="http://www.w3.org/1999/xlink" x="0px" y="0px"
	 width="20px" height="186.166px" viewBox="0 0 20 186.166" enable-background="new 0 0 20 186.166" xml:space="preserve">
<g>
	<g>
		<rect x="9" y="0.666" fill="#B81C3D" width="2" height="176"/>
	</g>
	<g>
		<g>
			<path fill="#B81C3D" d="M20,175.476c-4,2.498-7.422,6.387-10,10.523c-2.539-4.176-6-7.902-10-10.523v-2.496
				c4,2.619,7.379,5.771,10,9.662c2.66-3.892,6-7.166,10-9.703V175.476z"/>
		</g>
		<g>
			<path fill="#B81C3D" d="M20,169.458c-4,2.498-7.422,6.387-10,10.521c-2.539-4.176-6-7.9-10-10.521v-2.496
				c4,2.618,7.379,5.771,10,9.66c2.66-3.889,6-7.164,10-9.701V169.458z"/>
		</g>
	</g>
</g>
</svg>
