<?xml version="1.0" encoding="utf-8"?>
<!-- Generator: Adobe Illustrator 16.0.0, SVG Export Plug-In . SVG Version: 6.00 Build 0)  -->
<!DOCTYPE svg PUBLIC "-//W3C//DTD SVG 1.1//EN" "http://www.w3.org/Graphics/SVG/1.1/DTD/svg11.dtd">
<svg version="1.1" id="圖層_1" xmlns="http://www.w3.org/2000/svg" xmlns:xlink="http://www.w3.org/1999/xlink" x="0px" y="0px"
	 width="83px" height="95.25px" viewBox="0 0 83 95.25" enable-background="new 0 0 83 95.25" xml:space="preserve">
<g>
	<polygon fill="#B81C3D" points="0.25,23.622 41.75,-0.129 83.25,23.622 83.25,71.125 41.75,94.876 0.25,71.125 	"/>
</g>
<g>
	<path fill="#FFFFFF" d="M37.451,28h10.308c2.223,0,4.085-3,4.589-5H32.862C33.366,25,35.229,28,37.451,28z"/>
	<g>
		<path fill="#FFFFFF" d="M57.008,24h-3.015c-0.592,3-2.778,6-5.385,6H36.514c-2.608,0-4.794-3-5.385-6h-3.016
			c-1.947,0-3.863,1.358-3.863,3.307v41.879c0,1.948,1.916,3.814,3.863,3.814h28.895c1.948,0,3.242-1.866,3.242-3.814V27.307
			C60.25,25.358,58.956,24,57.008,24z M54.25,49.5c0,0.828-0.672,1.5-1.5,1.5h-21c-0.828,0-1.5-0.672-1.5-1.5l0,0
			c0-0.828,0.672-1.5,1.5-1.5h21C53.578,48,54.25,48.672,54.25,49.5L54.25,49.5z M54.25,43.5c0,0.828-0.672,1.5-1.5,1.5h-21
			c-0.828,0-1.5-0.672-1.5-1.5l0,0c0-0.828,0.672-1.5,1.5-1.5h21C53.578,42,54.25,42.672,54.25,43.5L54.25,43.5z M54.25,36.5
			c0,0.828-0.672,1.5-1.5,1.5h-21c-0.828,0-1.5-0.672-1.5-1.5l0,0c0-0.828,0.672-1.5,1.5-1.5h21C53.578,35,54.25,35.672,54.25,36.5
			L54.25,36.5z"/>
	</g>
</g>
</svg>
