<?xml version="1.0" encoding="utf-8"?>
<!-- Generator: Adobe Illustrator 16.0.0, SVG Export Plug-In . SVG Version: 6.00 Build 0)  -->
<!DOCTYPE svg PUBLIC "-//W3C//DTD SVG 1.1//EN" "http://www.w3.org/Graphics/SVG/1.1/DTD/svg11.dtd">
<svg version="1.1" id="圖層_1" xmlns="http://www.w3.org/2000/svg" xmlns:xlink="http://www.w3.org/1999/xlink" x="0px" y="0px"
	 width="91.5px" height="92px" viewBox="0 0 91.5 92" enable-background="new 0 0 91.5 92" xml:space="preserve">
<circle fill="#FFFFFF" cx="46.333" cy="46.377" r="45.125"/>
<g>
	<polygon fill="#B81C3D" points="20,30.335 47.5,14.43 75,30.335 75,62.146 47.5,78.049 20,62.146 	"/>
</g>
<g>
	<g>
		<g>
			<g>
				<g>
					<g>
						
							<rect x="32.213" y="42.775" transform="matrix(0.48 0.8773 -0.8773 0.48 66.445 -24.7378)" fill="#FFFFFF" width="43.753" height="1.81"/>
					</g>
				</g>
				<g>
					<g>
						
							<rect x="40.624" y="21.803" transform="matrix(0.8775 0.4795 -0.4795 0.8775 26.0323 -14.5642)" fill="#FFFFFF" width="1.808" height="43.755"/>
					</g>
				</g>
			</g>
			<g>
				<g>
					<polygon fill="#FFFFFF" points="48.604,30.673 46.798,30.628 47.014,21.438 48.819,21.484 					"/>
				</g>
			</g>
		</g>
	</g>
	<g>
		<polygon fill="#FFFFFF" points="47.889,31.952 31.627,63 63.805,63 		"/>
	</g>
	<g>
		<g>
			<g>
				<path fill="#B81C3D" d="M52.914,64.484h-2.113h-6.17h-2.115V53.026c0-2.863,2.333-5.197,5.199-5.197
					c2.868,0,5.199,2.334,5.199,5.197V64.484z"/>
			</g>
		</g>
	</g>
</g>
</svg>
