<?xml version="1.0" encoding="utf-8"?>
<!-- Generator: Adobe Illustrator 16.0.0, SVG Export Plug-In . SVG Version: 6.00 Build 0)  -->
<!DOCTYPE svg PUBLIC "-//W3C//DTD SVG 1.1//EN" "http://www.w3.org/Graphics/SVG/1.1/DTD/svg11.dtd">
<svg version="1.1" id="圖層_1" xmlns="http://www.w3.org/2000/svg" xmlns:xlink="http://www.w3.org/1999/xlink" x="0px" y="0px"
	 width="91.5px" height="92px" viewBox="0 0 91.5 92" enable-background="new 0 0 91.5 92" xml:space="preserve">
<circle fill="#FFFFFF" cx="46.083" cy="46.627" r="45.375"/>
<g>
	<polygon fill="#B81C3D" points="19,30.496 47,14.502 75,30.496 75,62.482 47,78.475 19,62.482 	"/>
</g>
<g>
	<g>
		<g>
			<g>
				<polygon fill="#FFFFFF" points="33.036,40.493 36.231,50.533 57.218,50.533 60.413,40.493 54.937,40.493 54.026,45.514 
					49.981,45.514 49.527,40.493 44.458,40.493 44.155,45.514 40.425,45.514 39.489,40.493 				"/>
			</g>
		</g>
		<g>
			<g>
				<path fill="#FFFFFF" d="M59.441,73.434l-12.124,6.575c0,0-13.089-7.774-13.203-7.21l-0.146,0.73l-1.462-0.294l0.149-0.732
					c0.027-0.142,2.908-14.462,3.044-18.634l0.743-0.723H57.01l0.735,0.633l3.17,19.433L59.441,73.434z"/>
			</g>
		</g>
	</g>
	<g>
		<g>
			<polyline fill="#FFFFFF" points="47.198,41.434 47.257,27.059 57.672,30.223 47.257,33.285 47.257,27.059 			"/>
		</g>
		<g>
			<path fill="#FFFFFF" d="M47.942,41.436l-1.491-0.008l0.065-15.373l13.757,4.179l-12.298,3.618L47.942,41.436z M48.003,28.064
				v4.227l7.067-2.082L48.003,28.064z"/>
		</g>
	</g>
</g>
</svg>
