<?xml version="1.0" encoding="utf-8"?>
<!-- Generator: Adobe Illustrator 16.0.0, SVG Export Plug-In . SVG Version: 6.00 Build 0)  -->
<!DOCTYPE svg PUBLIC "-//W3C//DTD SVG 1.1//EN" "http://www.w3.org/Graphics/SVG/1.1/DTD/svg11.dtd">
<svg version="1.1" id="圖層_1" xmlns="http://www.w3.org/2000/svg" xmlns:xlink="http://www.w3.org/1999/xlink" x="0px" y="0px"
	 width="79.75px" height="91.75px" viewBox="0 0 79.75 91.75" enable-background="new 0 0 79.75 91.75" xml:space="preserve">
<g>
	<g>
		<polygon fill="#B81C3D" points="0.75,22.754 39.75,-0.005 78.75,22.754 78.75,68.271 39.75,91.029 0.75,68.271 		"/>
	</g>
	<g>
		<g>
			<g>
				<g>
					<polygon fill="#FFFFFF" points="20.373,35.135 24.93,49.456 54.869,49.456 59.426,35.135 51.615,35.135 50.315,42.296 
						44.546,42.296 43.896,35.135 36.664,35.135 36.233,42.296 30.91,42.296 29.577,35.135 					"/>
				</g>
			</g>
			<g>
				<g>
					<path fill="#FFFFFF" d="M58.041,82.127l-17.297,9.379c0,0-18.672-11.09-18.834-10.286l-0.209,1.042l-2.086-0.42l0.213-1.043
						c0.04-0.204,4.149-20.633,4.341-26.586l1.062-1.029h29.339l1.051,0.902l4.522,27.723L58.041,82.127z"/>
				</g>
			</g>
		</g>
		<g>
			<g>
				<polyline fill="#FFFFFF" points="40.574,36.473 40.659,15.968 55.516,20.481 40.659,24.852 40.659,15.968 				"/>
			</g>
			<g>
				<path fill="#FFFFFF" d="M41.637,36.476l-2.126-0.008l0.091-21.932l19.627,5.962l-17.545,5.161L41.637,36.476z M41.723,17.402
					v6.031l10.083-2.97L41.723,17.402z"/>
			</g>
		</g>
	</g>
</g>
</svg>
