<?xml version="1.0" encoding="utf-8"?>
<!-- Generator: Adobe Illustrator 16.0.0, SVG Export Plug-In . SVG Version: 6.00 Build 0)  -->
<!DOCTYPE svg PUBLIC "-//W3C//DTD SVG 1.1//EN" "http://www.w3.org/Graphics/SVG/1.1/DTD/svg11.dtd">
<svg version="1.1" id="圖層_1" xmlns="http://www.w3.org/2000/svg" xmlns:xlink="http://www.w3.org/1999/xlink" x="0px" y="0px"
	 width="707px" height="54px" viewBox="0 0 707 54" enable-background="new 0 0 707 54" xml:space="preserve">
<g>
	<polygon fill="#98272D" points="-0.001,53 142,53 142,39 112.24,39 123.956,14 21.52,14 27.005,33.5 	"/>
	<polygon fill="#FBB03B" points="112.24,39 142,52.761 142,39 	"/>
	<polygon fill="#B81C3D" points="592.033,39 111,39 131.676,-1 573.045,-1 	"/>
	<polygon fill="#98272D" points="704.274,53 562,53 562,39 592.033,39 580.317,14 682.754,14 677.269,33.5 	"/>
	<polygon fill="#FBB03B" points="592.033,39 562,52.761 562,39 	"/>
	<g>
		<text transform="matrix(1 0 0 1 299.2939 24.584)" fill="#FFFFFF" font-family="'LiGothicMed'" font-size="21.9555">罷免日計劃</text>
	</g>
	<g>
		<circle fill="none" stroke="#FFFFFF" stroke-width="2" stroke-miterlimit="10" cx="263.859" cy="17.486" r="8.737"/>
		<line fill="none" stroke="#FFFFFF" stroke-width="2" stroke-miterlimit="10" x1="264" y1="18" x2="173" y2="18"/>
	</g>
	<g>
		<circle fill="none" stroke="#FFFFFF" stroke-width="2" stroke-miterlimit="10" cx="443.737" cy="17.486" r="8.737"/>
		<line fill="none" stroke="#FFFFFF" stroke-width="2" stroke-miterlimit="10" x1="444" y1="18" x2="535" y2="18"/>
	</g>
</g>
</svg>
