<?xml version="1.0" encoding="utf-8"?>
<!-- Generator: Adobe Illustrator 16.0.0, SVG Export Plug-In . SVG Version: 6.00 Build 0)  -->
<!DOCTYPE svg PUBLIC "-//W3C//DTD SVG 1.1//EN" "http://www.w3.org/Graphics/SVG/1.1/DTD/svg11.dtd">
<svg version="1.1" id="圖層_1" xmlns="http://www.w3.org/2000/svg" xmlns:xlink="http://www.w3.org/1999/xlink" x="0px" y="0px"
	 width="110.334px" height="109.667px" viewBox="0 0 110.334 109.667" enable-background="new 0 0 110.334 109.667"
	 xml:space="preserve">
<g>
	<polygon fill="none" stroke="#B81C3D" stroke-width="2" stroke-miterlimit="10" points="70.513,25.858 84.509,39.853 
		20.952,103.411 5.464,104.901 6.956,89.415 	"/>
	<line fill="none" stroke="#B81C3D" stroke-width="2" stroke-miterlimit="10" x1="5.464" y1="104.901" x2="77.511" y2="32.854"/>
	
		<rect x="62.636" y="26.108" transform="matrix(-0.7071 -0.7071 0.7071 -0.7071 115.836 108.1019)" fill="none" stroke="#B81C3D" stroke-width="2" stroke-miterlimit="10" width="35.342" height="7.905"/>
	
		<rect x="85.294" y="3.203" transform="matrix(-0.7071 -0.7071 0.7071 -0.7071 147.1478 95.8393)" fill="none" stroke="#B81C3D" stroke-width="2" stroke-miterlimit="10" width="16.258" height="28.483"/>
	<line fill="none" stroke="#B81C3D" stroke-width="2" stroke-miterlimit="10" x1="89.028" y1="33.229" x2="91.882" y2="6.864"/>
	<line fill="none" stroke="#B81C3D" stroke-width="2" stroke-miterlimit="10" x1="77.604" y1="21.765" x2="109.124" y2="13.05"/>
</g>
<circle fill="#B81C3D" cx="50.401" cy="59.333" r="34"/>
<text transform="matrix(1 0 0 1 31.0322 55.3027)"><tspan x="0" y="0" fill="#FFFFFF" font-family="'LiGothicMed'" font-size="18.2017" letter-spacing="1">前往</tspan><tspan x="0" y="21.842" fill="#FFFFFF" font-family="'LiGothicMed'" font-size="18.2017" letter-spacing="1">任務</tspan></text>
<circle fill="none" stroke="#B81C3D" stroke-miterlimit="10" cx="51.064" cy="58.997" r="49.663"/>
<circle fill="none" stroke="#B81C3D" stroke-width="2" stroke-miterlimit="10" cx="7.234" cy="35.894" r="5.833"/>
<circle fill="none" stroke="#B81C3D" stroke-width="2" stroke-miterlimit="10" cx="84.234" cy="95.894" r="5.833"/>
</svg>
