<svg xmlns="http://www.w3.org/2000/svg" width="174.667" height="92.334" viewBox="0 0 174.667 92.334"><path fill="#6C313D" d="M151 24.334h23.704l-7.828 22.233 7.828 21.767H137"/><path fill="#fff" d="M154.196 58.95l-17.906 9.464-.102-9.463"/><path fill="#B81C3D" d="M135.685 69.433l-.116-10.476 1.236-.013.09 8.45 17.01-8.99.578 1.094zM14 18.334h141v40H14zM7.173 13.696L.35 6.872 7.172.046 14 6.872l-6.827 6.824zM2.146 6.872L7.173 11.9l5.03-5.028-5.03-5.03-5.027 5.03zM7.173 13.262L1.245 7.334H13.1zM6 7.334h3v85H6z"/><text transform="translate(31.998 43.216)" fill="#fff" font-family="'LiGothicMed'" font-size="18.496">我要換任務！</text></svg>