<svg xmlns="http://www.w3.org/2000/svg" width="142" height="205" viewBox="0 0 142 205"><circle fill="#B81C3D" cx="69.214" cy="113.764" r="51.152"/><path fill="#B81C3D" d="M99.57 5.986s3.93 16.376-8.07 19.01v9.894s27.36-6.982 8.07-28.904z"/><path stroke="#B81C3D" stroke-width="3" stroke-miterlimit="10" d="M123.86 197.312l13.932-15.228s6.064 8.01-3.962 12.82 1.62 13.596 5.848 4.596H133.5M123.86 36.118l13.932 15.44s6.064-8.33-3.962-13.143 1.62-12.916 5.848-4.916H133.5M18.21 197.312L4.316 182.084s-6.045 8.01 3.98 12.82S6.694 208.5 2.468 199.5H8.5M18.21 36.118L4.316 51.558s-6.045-8.33 3.98-13.142S6.694 25.5 2.468 33.5H8.5" fill="none"/><path stroke="#B81C3D" stroke-width="3" stroke-miterlimit="10" fill="none" d="M7 36.5h128v161H7z"/><path stroke="#B81C3D" stroke-miterlimit="10" fill="none" d="M4 32.5h134v168H4zM44.51 34.567c0-14.765 11.97-26.733 26.734-26.733 14.764 0 26.733 11.97 26.733 26.733"/><path fill="#B81C3D" d="M71.17 11.86c-12.53 0-22.67 10.267-22.67 22.795V45.45s22.436 2.422 22.436 7.923c0 5.5.234-41.512.234-41.512z"/><path fill="#98272D" d="M70.865 11.86c12.527 0 22.635 10.267 22.635 22.795V45.45s-22.418 2.422-22.418 7.923c0 5.5-.217-41.512-.217-41.512z"/><path fill="#B81C3D" d="M44.43 5.986s-4.93 16.376 8.07 19.01v9.894s-27.36-6.982-8.07-28.904z"/><path fill="#fff" d="M57.052 28s4.95-7 10.892 0H57.052zM74.215 28s4.95-7 10.89 0h-10.89zM57.76 34.678S63.5 39.73 71.5 39.73v5.062s-13.74-5.487-13.74-10.114zM85.24 34.678S78.5 39.73 71.5 39.73v5.062s13.74-5.487 13.74-10.114z"/><path fill="#2974FF" d="M80.064 3.77L76.03 9.9l-5.1-6.004L65.866 9.9l-4-6.13s-3.21 10.84 1.512 13.143l7.555 2.74 7.588-2.74C83.24 14.61 80.064 3.77 80.064 3.77z"/><path fill-rule="evenodd" clip-rule="evenodd" fill="#fff" d="M68.73 9.445c.614-.36 1.595-.608 2.164-.534-.168.633-.335 1.262-.5 1.89h1.045c-.168-.624-.334-1.25-.508-1.903.783.002 1.483.21 2.156.586l-1.396 1.377c.318.184.612.352.923.53l.51-1.884c.664.395 1.176.914 1.575 1.578l-1.886.507.525.904 1.364-1.396c.398.696.582 1.4.603 2.173-.646-.17-1.275-.338-1.903-.505v1.05l1.902-.505c-.003.78-.187 1.494-.57 2.184-.47-.48-.93-.946-1.394-1.416-.18.312-.35.604-.525.912l1.912.516c-.272.483-.605.884-1.016 1.22-2.543 2.094-6.334.854-7.152-2.338-.492-1.92.428-4.017 2.167-4.943.003.062 0 .127.015.19.07.273.145.546.218.82l.253.934.91-.525c-.313-.31-.63-.62-.94-.933-.16-.158-.307-.324-.457-.487zm2.184 1.625c-1.23.003-2.234 1.01-2.225 2.225.01 1.232 1.005 2.218 2.235 2.213 1.215 0 2.212-1 2.215-2.215.004-1.223-1-2.223-2.226-2.223zm-.822 4.625l-.88-.507-.51 1.905 1.39-1.398zm1.655-.006l1.378 1.392c-.172-.643-.342-1.27-.51-1.893-.304.175-.594.34-.868.5zm-4.58-4.593l1.34 1.372c.163-.286.332-.574.51-.88-.62-.164-1.25-.334-1.85-.493zm1.847 3.894l-.502-.87-1.375 1.372 1.877-.5zm2.424.79H70.39l.505 1.88.042-.006.5-1.873zm-3.016-3.014l-1.884.505v.04c.63.17 1.26.337 1.884.504v-1.048z"/><path clip-rule="evenodd" stroke="#B81C3D" stroke-miterlimit="10" d="M71.453 57.663s-4.83-7.262-22.322-8.25C31.64 48.422 7.876 45.78 7.876 36.54M70.584 57.663s4.83-7.262 22.322-8.25c17.492-.99 41.256-3.632 41.256-12.873" fill="none"/><circle clip-rule="evenodd" stroke="#B81C3D" stroke-width="2" stroke-miterlimit="10" cx="70.735" cy="57.648" r="4.964" fill="none"/><g stroke="#B81C3D" stroke-width="3" stroke-miterlimit="10" fill="none"><path d="M7.838 179.588L22.45 171.5H71.5M135.07 179.588l-14.704-8.088H71.5"/></g><path stroke="#B81C3D" stroke-width="3" stroke-miterlimit="10" fill="none" d="M7.216 151.725l15.235 20.132M133.952 153.705l-13.586 18.152"/></svg>