<svg xmlns="http://www.w3.org/2000/svg" width="83" height="95.25" viewBox="0 0 83 95.25"><path fill="#666" d="M0 23.622L41.5-.128 83 23.62v47.503l-41.5 23.75L0 71.126z"/><path fill-rule="evenodd" clip-rule="evenodd" fill="#fff" d="M32.598 81l8.882-7.693L50.364 81z"/><path fill="#fff" d="M41.996 34l2.385 6h21.346l2.636-6zM41.744 21.297C38.942 21.11 24.486 21 5.584 33h72.32c-18.902-12-33.358-11.89-36.16-11.703zM41.492 34l-2.385 6H17.763l-2.637-6zM14.06 34l-2.45 6h-5.9l-.126-6zM69.584 34l2.448 6h5.9l.127-6z"/><circle fill="#fff" cx="41.744" cy="20.8" r="2.135"/><path fill="#fff" d="M40 34h3v47h-3z"/></svg>