<?xml version="1.0" encoding="UTF-8" standalone="no"?>
<svg width="338px" height="482px" viewBox="0 0 338 482" version="1.1" xmlns="http://www.w3.org/2000/svg" xmlns:xlink="http://www.w3.org/1999/xlink" xmlns:sketch="http://www.bohemiancoding.com/sketch/ns">
    <!-- Generator: Sketch 3.0.3 (7891) - http://www.bohemiancoding.com/sketch -->
    <title>boss</title>
    <desc>Created with Sketch.</desc>
    <defs></defs>
    <g id="Welcome" stroke="none" stroke-width="1" fill="none" fill-rule="evenodd" sketch:type="MSPage">
        <g id="Start-Here-3" sketch:type="MSArtboardGroup" transform="translate(-32.000000, -217.000000)">
            <g id="Imported-Layers" sketch:type="MSLayerGroup" transform="translate(32.000000, 216.980042)">
                <path d="M292.415804,264.789755 C292.415804,332.777529 237.263364,387.894775 169.232178,387.894775 C101.196252,387.894775 46.046972,332.777529 46.046972,264.789755 C46.046972,196.800402 101.196252,141.684735 169.232178,141.684735 C237.263364,141.684735 292.415804,196.800402 292.415804,264.789755" id="Fill-1" fill="#B81C3D" sketch:type="MSShapeGroup"></path>
                <path d="M235.691822,4.54430392 C235.691822,4.54430392 246.392523,43.7020294 216.383178,50.001549 L216.383178,73.6590784 C216.383178,73.6590784 281.850935,56.9655882 235.691822,4.54430392" id="Fill-2" fill="#B81C3D" sketch:type="MSShapeGroup"></path>
                <path d="M321.197925,479.876284 C320.551935,479.876284 319.898047,479.832088 319.237841,479.740539 C313.495,478.951324 308.744047,474.645363 307.938533,469.502833 C307.508925,466.776882 307.696879,459.868088 318.647131,454.615069 C325.443458,451.355608 329.512093,447.172765 330.740897,442.181765 C331.950748,437.272843 330.210206,432.54702 328.791869,429.765824 L297.646907,464.006735 L294.140551,460.821461 L329.360467,422.099382 L331.080477,424.403892 C331.35372,424.770088 337.758346,433.506706 335.341804,443.3135 C333.757626,449.745608 328.831355,454.982843 320.698822,458.884725 C315.006523,461.613833 312.060869,465.217392 312.619991,468.770441 C313.10014,471.848382 316.224271,474.545922 319.883832,475.05102 C323.589196,475.559275 326.98657,473.88298 329.55,470.372549 L319.046729,470.372549 L319.046729,465.637255 L337.331897,465.637255 L335.798262,468.989843 C332.625168,475.927049 327.261393,479.876284 321.197925,479.876284" id="Fill-3" fill="#B81C3D" sketch:type="MSShapeGroup"></path>
                <path d="M295.893729,78.1228824 L329.180411,114.284745 C329.180411,114.284745 343.667028,95.5140392 319.673766,84.0056961 C295.682084,72.4973529 323.532336,51.2990196 333.643907,73.3970588 L319.046729,73.3970588" id="Stroke-4" stroke="#B81C3D" stroke-width="3" sketch:type="MSShapeGroup"></path>
                <path d="M16.1671402,479.876284 C10.1226262,479.876284 4.77148598,475.927049 1.59681308,468.989843 L0.0631775701,465.637255 L17.3738318,465.637255 L17.3738318,470.372549 L7.84191589,470.372549 C10.4006075,473.879824 13.7900841,475.556118 17.4701776,475.05102 C21.1581682,474.544343 24.1875327,471.916255 24.6755794,468.805167 C25.2347009,465.237912 22.2795701,461.623304 16.5698972,458.884725 C8.42788785,454.978108 3.48898131,449.731402 1.88742991,443.291402 C-0.544906542,433.498814 5.79338318,424.77798 6.06504673,424.411784 L7.78821495,422.08202 L42.7727944,460.827775 L39.2569626,464.000422 L8.37102804,429.797392 C6.97164486,432.594373 5.27374766,437.320196 6.49465421,442.183343 C7.74714953,447.174343 11.8268411,451.355608 18.6215888,454.615069 C29.5955327,459.879137 29.783486,466.803716 29.3570374,469.537559 C28.5531028,474.665882 23.8258411,478.956059 18.1161682,479.743696 C17.4607009,479.832088 16.8115514,479.876284 16.1671402,479.876284" id="Fill-5" fill="#B81C3D" sketch:type="MSShapeGroup"></path>
                <path d="M42.5943178,78.1228824 L9.54928972,114.284745 C9.54928972,114.284745 -4.81571028,95.5140392 19.175972,84.0056961 C43.1660748,72.4973529 15.4421776,51.2990196 5.33060748,73.3970588 L18.953271,73.3970588" id="Stroke-6" stroke="#B81C3D" stroke-width="3" sketch:type="MSShapeGroup"></path>
                <path d="M14.2149533,75.7647059 L323.785047,75.7647059 L323.785047,465.637255 L14.2149533,465.637255 L14.2149533,75.7647059 Z M18.953271,460.901961 L319.046729,460.901961 L319.046729,80.5 L18.953271,80.5 L18.953271,460.901961 Z" id="Fill-7" fill="#B81C3D" sketch:type="MSShapeGroup"></path>
                <path d="M7.89719626,71.0294118 L330.102804,71.0294118 L330.102804,471.95098 L7.89719626,471.95098 L7.89719626,71.0294118 Z M9.47663551,470.372549 L328.523364,470.372549 L328.523364,72.6078431 L9.47663551,72.6078431 L9.47663551,470.372549 Z" id="Fill-8" fill="#B81C3D" sketch:type="MSShapeGroup"></path>
                <path d="M234.654131,72.6078431 L233.074692,72.6078431 C233.074692,37.8823529 204.733234,9.47058824 169.898701,9.47058824 C135.062589,9.47058824 106.719551,37.8823529 106.719551,72.6078431 L105.140112,72.6078431 C105.140112,37.8823529 134.190738,7.89215686 169.898701,7.89215686 C205.605084,7.89215686 234.654131,37.8823529 234.654131,72.6078431" id="Fill-9" fill="#B81C3D" sketch:type="MSShapeGroup"></path>
                <path d="M169.630196,18.5923431 C139.654019,18.5923431 115.299065,43.1416863 115.299065,73.1003137 L115.299065,98.9139804 C115.299065,98.9139804 169.02843,104.703667 169.02843,117.855157 C169.02843,131.009804 169.630196,18.5923431 169.630196,18.5923431" id="Fill-10" fill="#B81C3D" sketch:type="MSShapeGroup"></path>
                <path d="M168.766243,18.5923431 C198.742421,18.5923431 222.700935,43.1416863 222.700935,73.1003137 L222.700935,98.9139804 C222.700935,98.9139804 169.172159,104.703667 169.172159,117.855157 C169.172159,131.009804 168.766243,18.5923431 168.766243,18.5923431" id="Fill-11" fill="#98272D" sketch:type="MSShapeGroup"></path>
                <path d="M103.887617,4.54430392 C103.887617,4.54430392 93.1869159,43.7020294 123.196262,50.001549 L123.196262,73.6590784 C123.196262,73.6590784 57.7285047,56.9655882 103.887617,4.54430392" id="Fill-12" fill="#B81C3D" sketch:type="MSShapeGroup"></path>
                <path d="M135.939178,58.4019608 C135.939178,58.4019608 147.784972,42.6176471 161.999925,58.4019608 L135.939178,58.4019608" id="Fill-13" fill="#FFFFFF" sketch:type="MSShapeGroup"></path>
                <path d="M177.006178,58.4019608 C177.006178,58.4019608 188.851972,42.6176471 203.065346,58.4019608 L177.006178,58.4019608" id="Fill-14" fill="#FFFFFF" sketch:type="MSShapeGroup"></path>
                <path d="M136.120813,73.1508235 C136.120813,73.1508235 151.626168,85.2352941 169,85.2352941 L169,97.335549 C169,97.335549 136.120813,84.2172059 136.120813,73.1508235" id="Fill-15" fill="#FFFFFF" sketch:type="MSShapeGroup"></path>
                <path d="M201.879187,73.1508235 C201.879187,73.1508235 186.373832,85.2352941 169,85.2352941 L169,97.335549 C169,97.335549 201.879187,84.2172059 201.879187,73.1508235" id="Fill-16" fill="#FFFFFF" sketch:type="MSShapeGroup"></path>
                <path d="M191.001589,-0.752911765 L181.351215,13.9012451 L169.148467,-0.453009804 L157.02785,13.9012451 L147.458028,-0.752911765 C147.458028,-0.752911765 139.774056,25.1649314 151.073364,30.6752353 L169.148467,37.2288824 L187.305701,30.6752353 C198.60185,25.1649314 191.001589,-0.752911765 191.001589,-0.752911765" id="Fill-17" fill="#2974FF" sketch:type="MSShapeGroup"></path>
                <path d="M163.879458,12.8152843 C165.351495,11.9518824 167.698542,11.3599706 169.058439,11.5367549 C168.657262,13.0504706 168.256084,14.5547157 167.858065,16.0558039 L170.363056,16.0558039 C169.965037,14.5641863 169.567019,13.0678333 169.151626,11.5020294 C171.023262,11.5083431 172.699047,12.0071275 174.308495,12.902098 C173.182355,14.0148922 172.075168,15.1055882 170.97114,16.1978627 C171.734009,16.6350882 172.43686,17.0391667 173.179196,17.4653431 C173.575636,16.0005588 173.978393,14.5073627 174.398523,12.9605 C175.987439,13.904402 177.211505,15.1466275 178.168645,16.7345294 C176.619215,17.1496569 175.126645,17.5505784 173.654607,17.9451863 C174.081056,18.6728431 174.482234,19.3657745 174.913421,20.102902 C175.971645,19.0248333 177.051981,17.9183529 178.178121,16.7676765 C179.133682,18.4329216 179.574346,20.1123725 179.621729,21.9622941 C178.075458,21.551902 176.570252,21.1509804 175.068206,20.7532157 L175.068206,23.2660784 C176.554458,22.8683137 178.056505,22.470549 179.61857,22.0554216 C179.612252,23.9227059 179.171589,25.6274118 178.257093,27.2800294 C177.124636,26.1340882 176.026925,25.0149804 174.919738,23.8927157 C174.49171,24.6345784 174.087374,25.335402 173.660925,26.0725294 C175.151916,26.4718725 176.671336,26.8822647 178.23972,27.3052843 C177.59215,28.4606961 176.789794,29.4203824 175.812121,30.2238039 C169.724963,35.2305882 160.655822,32.2647157 158.697318,24.6314216 C157.519056,20.0445 159.717636,15.031402 163.879458,12.8121275 C163.888935,12.9668137 163.879458,13.1199216 163.915785,13.2682941 C164.083206,13.9249216 164.261682,14.5752353 164.437,15.2318627 C164.640748,15.9847745 164.844495,16.7392647 165.041925,17.4653431 C165.782682,17.0391667 166.482374,16.6350882 167.219972,16.2120686 C166.469738,15.4733627 165.711607,14.7330784 164.967692,13.9801667 C164.594944,13.6013431 164.23957,13.2067353 163.879458,12.8152843 L163.879458,12.8152843 Z M169.107402,16.7029608 C166.168065,16.7092745 163.762579,19.1132255 163.786271,22.0238529 C163.811542,24.9676275 166.193336,27.3226471 169.135832,27.3147549 C172.045159,27.311598 174.430112,24.9218529 174.43485,22.0143824 C174.441168,19.0958627 172.042,16.7029608 169.107402,16.7029608 L169.107402,16.7029608 Z M167.139421,27.761451 C166.463421,27.3731569 165.763729,26.9659216 165.038766,26.5492157 C164.637589,28.0424118 164.233252,29.5466569 163.81786,31.1061471 C164.961374,29.9507353 166.057505,28.8489902 167.139421,27.761451 L167.139421,27.761451 Z M171.100654,27.7456667 C172.171514,28.8253137 173.266065,29.9317941 174.398523,31.0745784 C173.98471,29.5435 173.580374,28.0424118 173.179196,26.5523725 C172.449495,26.9722353 171.757701,27.37 171.100654,27.7456667 L171.100654,27.7456667 Z M160.145664,16.7645196 C161.207047,17.8520588 162.293701,18.9664314 163.345607,20.0445 C163.740467,19.3657745 164.141645,18.6728431 164.568093,17.9451863 C163.086579,17.5505784 161.581374,17.1465 160.145664,16.7645196 L160.145664,16.7645196 Z M164.561776,26.0772647 C164.135327,25.3385588 163.737308,24.644049 163.361402,23.9937353 C162.293701,25.057598 161.189673,26.1577647 160.06985,27.2768725 C161.565579,26.875951 163.061308,26.4750294 164.561776,26.0772647 L164.561776,26.0772647 Z M170.363056,27.9682255 L167.854907,27.9682255 C168.256084,29.463 168.660421,30.9577745 169.064757,32.4588627 C169.096346,32.452549 169.129514,32.452549 169.164262,32.4478137 C169.56386,30.9546176 169.961879,29.4598431 170.363056,27.9682255 L170.363056,27.9682255 Z M163.145019,20.7563725 C161.64929,21.1541373 160.144084,21.5582157 158.638879,21.9622941 C158.63572,21.9938627 158.63572,22.0238529 158.63572,22.0554216 C160.144084,22.4579216 161.652449,22.862 163.145019,23.2629216 L163.145019,20.7563725 L163.145019,20.7563725 Z" id="Fill-18" fill="#FFFFFF" sketch:type="MSShapeGroup"></path>
                <path d="M169.740757,128.552186 C169.625458,128.383294 157.825467,111.353598 116.941682,109.041196 C50.0161028,105.256118 17.4812336,94.7058824 17.4812336,77.3431373 L19.0606729,77.3431373 C19.0606729,93.127451 52.0235701,103.788176 117.03171,107.465922 C158.799981,109.828833 170.574701,126.891676 171.05485,127.61302 L169.740757,128.552186" id="Fill-19" fill="#B81C3D" sketch:type="MSShapeGroup"></path>
                <path d="M168.974729,128.552186 L167.660636,127.677735 C168.140785,126.956392 179.915505,109.828833 221.685355,107.465922 C286.693495,103.788176 319.654813,93.127451 319.654813,77.3431373 L321.234252,77.3431373 C321.234252,94.7058824 288.699383,105.256118 221.773804,109.041196 C180.890019,111.353598 169.090028,128.383294 168.974729,128.552186" id="Fill-20" fill="#B81C3D" sketch:type="MSShapeGroup"></path>
                <path d="M181.185374,129.73601 C181.185374,136.335431 175.831075,141.684735 169.229019,141.684735 C162.626963,141.684735 157.274243,136.335431 157.274243,129.73601 C157.274243,123.139745 162.626963,117.790441 169.229019,117.790441 C175.831075,117.790441 181.185374,123.139745 181.185374,129.73601 L181.185374,129.73601 Z" id="Stroke-21" stroke="#B81C3D" stroke-width="2" sketch:type="MSShapeGroup"></path>
                <path d="M19.3655047,423.120627 L17.0705794,418.977245 L52.5368879,399.343137 L170.579439,399.343137 L170.579439,404.078431 L53.7609533,404.078431 L19.3655047,423.120627" id="Fill-22" fill="#B81C3D" sketch:type="MSShapeGroup"></path>
                <path d="M320.703561,423.114314 L286.816692,404.078431 L169,404.078431 L169,399.343137 L288.056551,399.343137 L323.026916,418.985137 L320.703561,423.114314" id="Fill-23" fill="#B81C3D" sketch:type="MSShapeGroup"></path>
                <path d="M51.2591215,402.612069 L14.8025047,354.469912 L18.5821028,351.612951 L55.0387196,399.755108 L51.2591215,402.612069" id="Fill-24" fill="#B81C3D" sketch:type="MSShapeGroup"></path>
                <path d="M289.332738,402.60102 L285.538925,399.766157 L318.046944,356.359294 L321.842336,359.194157 L289.332738,402.60102" id="Fill-25" fill="#B81C3D" sketch:type="MSShapeGroup"></path>
            </g>
        </g>
    </g>
</svg>