<?xml version="1.0" encoding="UTF-8" standalone="no"?>
<svg width="255px" height="328px" viewBox="0 0 255 328" version="1.1" xmlns="http://www.w3.org/2000/svg" xmlns:xlink="http://www.w3.org/1999/xlink" xmlns:sketch="http://www.bohemiancoding.com/sketch/ns">
    <!-- Generator: Sketch 3.0.3 (7891) - http://www.bohemiancoding.com/sketch -->
    <title>boss2</title>
    <desc>Created with Sketch.</desc>
    <defs></defs>
    <g id="Welcome" stroke="none" stroke-width="1" fill="none" fill-rule="evenodd" sketch:type="MSPage">
        <g id="Start-Here-5" sketch:type="MSArtboardGroup" transform="translate(-30.000000, -214.000000)">
            <g id="Imported-Layers" sketch:type="MSLayerGroup" transform="translate(30.000000, 216.960083)">
                <path d="M226.60693,220.205556 C226.60693,276.879938 180.627403,322.825309 123.908411,322.825309 C67.1894186,322.825309 21.2078837,276.879938 21.2078837,220.205556 C21.2078837,163.533179 67.1894186,117.587809 123.908411,117.587809 C180.627403,117.587809 226.60693,163.533179 226.60693,220.205556" id="Fill-1" fill="#B81C3D" sketch:type="MSShapeGroup"></path>
                <path d="M184.851713,3.98425926 C184.851713,3.98425926 192.744186,36.8373457 168.651163,42.1195988 L168.651163,61.970679 C168.651163,61.970679 223.583256,47.9635802 184.851713,3.98425926" id="Fill-2" fill="#B81C3D" sketch:type="MSShapeGroup"></path>
                <path d="M74.3068992,61.3226852 C74.3068992,31.7035494 98.3396899,7.69166667 127.98214,7.69166667 C157.624589,7.69166667 181.65738,31.7035494 181.65738,61.3226852" id="Stroke-3" stroke="#B81C3D" sketch:type="MSShapeGroup"></path>
                <path d="M127.833566,15.7705247 C102.678442,15.7705247 82.3178295,36.3658951 82.3178295,61.4992284 L82.3178295,83.1578704 C82.3178295,83.1578704 127.363752,88.0148148 127.363752,99.0507716 C127.363752,110.084722 127.833566,15.7705247 127.833566,15.7705247" id="Fill-4" fill="#B81C3D" sketch:type="MSShapeGroup"></path>
                <path d="M127.221202,15.7705247 C152.374318,15.7705247 172.666667,36.3658951 172.666667,61.4992284 L172.666667,83.1578704 C172.666667,83.1578704 127.656884,88.0148148 127.656884,99.0507716 C127.656884,110.084722 127.221202,15.7705247 127.221202,15.7705247" id="Fill-5" fill="#98272D" sketch:type="MSShapeGroup"></path>
                <path d="M74.1482868,3.98425926 C74.1482868,3.98425926 64.248062,36.8373457 90.3488372,42.1195988 L90.3488372,61.970679 C90.3488372,61.970679 35.4167442,47.9635802 74.1482868,3.98425926" id="Fill-6" fill="#B81C3D" sketch:type="MSShapeGroup"></path>
                <path d="M99.488124,48.1481481 C99.488124,48.1481481 109.426496,34.1049383 121.35455,48.1481481 L99.488124,48.1481481" id="Fill-7" fill="#FFFFFF" sketch:type="MSShapeGroup"></path>
                <path d="M133.947171,48.1481481 C133.947171,48.1481481 143.883535,34.1049383 155.813597,48.1481481 L133.947171,48.1481481" id="Fill-8" fill="#FFFFFF" sketch:type="MSShapeGroup"></path>
                <path d="M100.907605,61.5453704 C100.907605,61.5453704 112.434109,71.6805556 128.496124,71.6805556 L128.496124,81.8337963 C128.496124,81.8337963 100.907605,70.8279321 100.907605,61.5453704" id="Fill-9" fill="#FFFFFF" sketch:type="MSShapeGroup"></path>
                <path d="M156.084643,61.5453704 C156.084643,61.5453704 142.550388,71.6805556 128.496124,71.6805556 L128.496124,81.8337963 C128.496124,81.8337963 156.084643,70.8279321 156.084643,61.5453704" id="Fill-10" fill="#FFFFFF" sketch:type="MSShapeGroup"></path>
                <path d="M145.690512,-0.45941358 L137.593248,11.8344136 L127.355721,-0.208641975 L117.182442,11.8344136 L109.151434,-0.45941358 C109.151434,-0.45941358 102.704543,21.2854938 112.187155,25.9057099 L127.355721,31.4046296 L142.590543,25.9057099 C152.067132,21.2854938 145.690512,-0.45941358 145.690512,-0.45941358" id="Fill-11" fill="#2974FF" sketch:type="MSShapeGroup"></path>
                <path d="M122.932643,10.9236111 C124.167411,10.1993827 126.135008,9.70385802 127.279426,9.85231481 C126.942124,11.120216 126.606829,12.3820988 126.273543,13.6439815 L128.373651,13.6439815 C128.038357,12.3901235 127.703062,11.1362654 127.355721,9.82222222 C128.927791,9.82623457 130.333217,10.2455247 131.684434,10.9978395 C130.738783,11.9266975 129.809194,12.8435185 128.881612,13.7603395 C129.522085,14.1294753 130.112364,14.4665123 130.734767,14.8256173 C131.066047,13.5958333 131.405357,12.3439815 131.758721,11.0459877 C133.091868,11.8364198 134.119837,12.8796296 134.92093,14.2117284 C133.621915,14.5608025 132.369078,14.8978395 131.136318,15.228858 C131.49169,15.8387346 131.828992,16.4185185 132.190388,17.0404321 C133.077814,16.1356481 133.98331,15.204784 134.930969,14.2398148 C135.732062,15.6361111 136.099481,17.0464506 136.141643,18.5972222 C134.844636,18.2541667 133.579752,17.9191358 132.318884,17.5841049 L132.318884,19.6905864 C133.565698,19.3595679 134.828574,19.0225309 136.139636,18.6774691 C136.133612,20.242284 135.764186,21.6746914 134.995217,23.0569444 C134.049566,22.0959877 133.126,21.1591049 132.196411,20.2162037 C131.837023,20.8421296 131.495705,21.4299383 131.140333,22.0458333 C132.389155,22.3808642 133.664078,22.7259259 134.979155,23.0810185 C134.437062,24.05 133.766473,24.8544753 132.943295,25.5285494 C127.837581,29.7274691 120.226194,27.2398148 118.583853,20.8381173 C117.594031,16.9902778 119.441163,12.7813272 122.932643,10.9216049 C122.938667,11.05 122.932643,11.1783951 122.96276,11.304784 C123.103302,11.8544753 123.253884,12.4021605 123.40045,12.9518519 C123.571109,13.5837963 123.743775,14.2157407 123.908411,14.8256173 C124.526798,14.4665123 125.11507,14.1294753 125.735465,13.7723765 C125.107039,13.1524691 124.470581,12.5305556 123.846171,11.9026235 C123.530953,11.583642 123.233806,11.2506173 122.932643,10.9236111 L122.932643,10.9236111 Z M127.319581,14.183642 C124.854062,14.1896605 122.834264,16.2078704 122.854341,18.6473765 C122.874419,21.1189815 124.872132,23.0970679 127.343674,23.087037 C129.783093,23.0850309 131.784822,21.0808642 131.790845,18.6433642 C131.796868,16.1898148 129.783093,14.183642 127.319581,14.183642 L127.319581,14.183642 Z M125.669209,23.4621914 C125.103023,23.1371914 124.512744,22.796142 123.904395,22.4470679 C123.567093,23.7009259 123.229791,24.9587963 122.880442,26.2688272 C123.842155,25.2958333 124.759698,24.375 125.669209,23.4621914 L125.669209,23.4621914 Z M128.992039,23.4501543 C129.887496,24.3569444 130.807047,25.2858025 131.758721,26.2447531 C131.413388,24.954784 131.07207,23.7009259 130.736775,22.4470679 C130.124411,22.8001543 129.544171,23.133179 128.992039,23.4501543 L128.992039,23.4501543 Z M119.798543,14.2378086 C120.687977,15.1526235 121.601504,16.0854938 122.484915,16.9902778 C122.814186,16.4185185 123.153496,15.8387346 123.508868,15.228858 C122.26607,14.8978395 121.003194,14.5567901 119.798543,14.2378086 L119.798543,14.2378086 Z M123.504853,22.0498457 C123.147473,21.4299383 122.814186,20.8501543 122.496961,20.300463 C121.601504,21.195216 120.673922,22.1180556 119.736302,23.0549383 C120.991147,22.7219136 122.248,22.3848765 123.504853,22.0498457 L123.504853,22.0498457 Z M128.373651,23.6347222 L126.269527,23.6347222 C126.606829,24.8905864 126.944132,26.1464506 127.283442,27.404321 C127.309543,27.4003086 127.339659,27.3983025 127.367767,27.392284 C127.703062,26.1424383 128.038357,24.8885802 128.373651,23.6347222 L128.373651,23.6347222 Z M122.316264,17.5861111 C121.061419,17.9231481 119.798543,18.2601852 118.533659,18.5972222 C118.531651,18.6233025 118.531651,18.6473765 118.531651,18.6774691 C119.798543,19.0145062 121.063426,19.3515432 122.316264,19.6885802 L122.316264,17.5861111 L122.316264,17.5861111 Z" id="Fill-12" fill="#FFFFFF" sketch:type="MSShapeGroup"></path>
                <path d="M128.40176,107.657253 C128.40176,107.657253 118.704318,93.0884259 83.5847209,91.104321 C48.465124,89.1182099 0.752906977,83.8199074 0.752906977,65.2808642 M126.657023,107.657253 C126.657023,107.657253 136.354465,93.0884259 171.474062,91.104321 C206.593659,89.1182099 254.305876,83.8199074 254.305876,65.2808642" id="Stroke-13" stroke="#B81C3D" sketch:type="MSShapeGroup"></path>
                <path d="M136.926674,107.62716 C136.926674,113.130093 132.46545,117.587809 126.960194,117.587809 C121.456946,117.587809 116.995721,113.130093 116.995721,107.62716 C116.995721,102.128241 121.456946,97.6705247 126.960194,97.6705247 C132.46545,97.6705247 136.926674,102.128241 136.926674,107.62716 L136.926674,107.62716 Z" id="Stroke-14" stroke="#B81C3D" stroke-width="2" sketch:type="MSShapeGroup"></path>
            </g>
        </g>
    </g>
</svg>