<?xml version="1.0" encoding="UTF-8" standalone="no"?>
<svg width="163px" height="163px" viewBox="0 0 163 163" version="1.1" xmlns="http://www.w3.org/2000/svg" xmlns:xlink="http://www.w3.org/1999/xlink" xmlns:sketch="http://www.bohemiancoding.com/sketch/ns">
    <!-- Generator: Sketch 3.0.3 (7891) - http://www.bohemiancoding.com/sketch -->
    <title>bottom2</title>
    <desc>Created with Sketch.</desc>
    <defs></defs>
    <g id="Welcome" stroke="none" stroke-width="1" fill="none" fill-rule="evenodd" sketch:type="MSPage">
        <g id="Start-Here-6" sketch:type="MSArtboardGroup" transform="translate(-237.000000, -590.000000)">
            <g id="Imported-Layers" sketch:type="MSLayerGroup" transform="translate(238.000000, 591.703125)">
                <path d="M147.912409,85.8724711 C147.912409,126.718669 114.802403,159.830165 73.9576937,159.830165 C33.1100065,159.830165 0,126.718669 0,85.8724711 C0,45.0277622 33.1100065,11.9162666 73.9576937,11.9162666 C114.802403,11.9162666 147.912409,45.0277622 147.912409,85.8724711 L147.912409,85.8724711 Z" id="Fill-1" fill="#FFFFFF" sketch:type="MSShapeGroup"></path>
                <path d="M143.85209,110.103017 C133.819987,139.048447 106.3161,159.830165 73.9576937,159.830165 C33.1100065,159.830165 0,126.718669 0,85.8724711 C0,45.0277622 33.1100065,11.9162666 73.9576937,11.9162666 C114.802403,11.9162666 147.912409,45.0277622 147.912409,85.8724711 C147.912409,94.3590831 146.483105,102.511801 143.85209,110.103017 Z" id="Stroke-2" stroke="#B81C3D" stroke-width="2" sketch:type="MSShapeGroup"></path>
                <path d="M102.918898,36.5231636 L123.759706,57.3654614 L29.1145874,152.012069 L6.05046129,154.232409 L8.27228956,131.171261 L102.918898,36.5231636 L102.918898,36.5231636 Z" id="Fill-3" fill="#FFFFFF" sketch:type="MSShapeGroup"></path>
                <path d="M102.918898,36.5231636 L123.759706,57.3654614 L29.1145874,152.012069 L6.05046129,154.232409 L8.27228956,131.171261 L102.918898,36.5231636 L102.918898,36.5231636 Z" id="Stroke-4" stroke="#B81C3D" stroke-width="2" sketch:type="MSShapeGroup"></path>
                <path d="M6.05046129,154.232409 L113.340046,46.9428233" id="Fill-5" fill="#FFFFFF" sketch:type="MSShapeGroup"></path>
                <path d="M6.05046129,154.232409 L113.340046,46.9428233" id="Stroke-6" stroke="#B81C3D" stroke-width="2" sketch:type="MSShapeGroup"></path>
                <path d="M103.057389,20.0128352 L140.273013,57.2269695 L131.947114,65.5528688 L94.7329793,28.3357562 L103.057389,20.0128352 L103.057389,20.0128352 Z" id="Fill-7" fill="#FFFFFF" sketch:type="MSShapeGroup"></path>
                <path d="M103.057389,20.0128352 L140.273013,57.2269695 L131.947114,65.5528688 L94.7329793,28.3357562 L103.057389,20.0128352 L103.057389,20.0128352 Z" id="Stroke-8" stroke="#B81C3D" stroke-width="2" sketch:type="MSShapeGroup"></path>
                <path d="M143.471731,0.439302506 L160.591126,17.5586978 L130.597934,47.5518902 L113.478538,30.4310058 L143.471731,0.439302506 L143.471731,0.439302506 Z" id="Fill-9" fill="#FFFFFF" sketch:type="MSShapeGroup"></path>
                <path d="M143.471731,0.439302506 L160.591126,17.5586978 L130.597934,47.5518902 L113.478538,30.4310058 L143.471731,0.439302506 L143.471731,0.439302506 Z" id="Stroke-10" stroke="#B81C3D" stroke-width="2" sketch:type="MSShapeGroup"></path>
                <path d="M130.492203,47.5012587 L134.74078,8.23803885" id="Fill-11" fill="#FFFFFF" sketch:type="MSShapeGroup"></path>
                <path d="M130.492203,47.5012587 L134.74078,8.23803885" id="Stroke-12" stroke="#B81C3D" stroke-width="2" sketch:type="MSShapeGroup"></path>
                <path d="M113.478538,30.4295166 L160.416894,17.4514782" id="Fill-13" fill="#FFFFFF" sketch:type="MSShapeGroup"></path>
                <path d="M113.478538,30.4295166 L160.416894,17.4514782" id="Stroke-14" stroke="#B81C3D" stroke-width="2" sketch:type="MSShapeGroup"></path>
                <path d="M123.600366,86.3743184 C123.600366,114.336295 100.930868,137.005794 72.9688908,137.005794 C45.006914,137.005794 22.3374155,114.336295 22.3374155,86.3743184 C22.3374155,58.4123416 45.006914,35.7428432 72.9688908,35.7428432 C100.930868,35.7428432 123.600366,58.4123416 123.600366,86.3743184" id="Fill-15" fill="#B81C3D" sketch:type="MSShapeGroup"></path>
                <path d="M17.3725526,51.4698729 C17.3725526,56.2664606 13.4843532,60.1561492 8.68627632,60.1561492 C3.88819947,60.1561492 0,56.2664606 0,51.4698729 C0,46.671796 3.88819947,42.7821074 8.68627632,42.7821074 C13.4843532,42.7821074 17.3725526,46.671796 17.3725526,51.4698729 L17.3725526,51.4698729 Z" id="Fill-16" fill="#FFFFFF" sketch:type="MSShapeGroup"></path>
                <path d="M17.3725526,51.4698729 C17.3725526,56.2664606 13.4843532,60.1561492 8.68627632,60.1561492 C3.88819947,60.1561492 0,56.2664606 0,51.4698729 C0,46.671796 3.88819947,42.7821074 8.68627632,42.7821074 C13.4843532,42.7821074 17.3725526,46.671796 17.3725526,51.4698729 L17.3725526,51.4698729 Z" id="Stroke-17" stroke="#B81C3D" stroke-width="2" sketch:type="MSShapeGroup"></path>
                <path d="M132.037952,140.818046 C132.037952,145.616123 128.149753,149.505811 123.351676,149.505811 C118.553599,149.505811 114.6654,145.616123 114.6654,140.818046 C114.6654,136.021458 118.553599,132.13177 123.351676,132.13177 C128.149753,132.13177 132.037952,136.021458 132.037952,140.818046 L132.037952,140.818046 Z" id="Fill-18" fill="#FFFFFF" sketch:type="MSShapeGroup"></path>
                <path d="M132.037952,140.818046 C132.037952,145.616123 128.149753,149.505811 123.351676,149.505811 C118.553599,149.505811 114.6654,145.616123 114.6654,140.818046 C114.6654,136.021458 118.553599,132.13177 123.351676,132.13177 C128.149753,132.13177 132.037952,136.021458 132.037952,140.818046 L132.037952,140.818046 Z" id="Stroke-19" stroke="#B81C3D" stroke-width="2" sketch:type="MSShapeGroup"></path>
            </g>
            <text id="行前" fill="#FFFFFF" sketch:type="MSTextLayer" font-family="Heiti TC" font-size="34" font-weight="bold" sketch:alignment="middle">
                <tspan x="276" y="671.331604">行前</tspan>
                <tspan x="276" y="706.331604">通知</tspan>
            </text>
        </g>
    </g>
</svg>