<?xml version="1.0" encoding="UTF-8" standalone="no"?>
<svg width="192px" height="186px" viewBox="0 0 192 186" version="1.1" xmlns="http://www.w3.org/2000/svg" xmlns:xlink="http://www.w3.org/1999/xlink" xmlns:sketch="http://www.bohemiancoding.com/sketch/ns">
    <!-- Generator: Sketch 3.0.3 (7891) - http://www.bohemiancoding.com/sketch -->
    <title>bottom1</title>
    <desc>Created with Sketch.</desc>
    <defs></defs>
    <g id="Welcome" stroke="none" stroke-width="1" fill="none" fill-rule="evenodd" sketch:type="MSPage">
        <g id="Start-Here-3" sketch:type="MSArtboardGroup" transform="translate(-419.000000, -317.000000)">
            <g id="Imported-Layers-+-前往" sketch:type="MSLayerGroup" transform="translate(421.000000, 314.000000)">
                <g id="Imported-Layers" sketch:type="MSShapeGroup">
                    <path d="M120.285946,42.0043727 L144.621333,66.3030455 L34.1123153,176.664582 L7.18272973,179.251764 L9.77692793,152.362436 L120.285946,42.0043727 L120.285946,42.0043727 Z M7.18272973,179.251764 L132.45364,54.1519727 L7.18272973,179.251764 Z M120.447649,22.7515727 L163.900468,66.1450364 L154.180919,75.8513091 L110.729838,32.4578455 L120.447649,22.7515727 L120.447649,22.7515727 Z M167.635279,-0.0711909091 L187.62382,19.8900455 L152.605622,54.8621455 L132.615342,34.9009091 L167.635279,-0.0711909091 L167.635279,-0.0711909091 Z M152.478694,54.8031091 L157.441054,9.02388182 L152.478694,54.8031091 Z M132.615342,34.8974364 L187.420387,19.7650273 L132.615342,34.8974364 Z" id="Stroke-1" stroke="#B81C3D" stroke-width="2"></path>
                    <path d="M144.43355,100.129145 C144.43355,132.732845 117.966468,159.165509 85.3164324,159.165509 C52.6681351,159.165509 26.1993153,132.732845 26.1993153,100.129145 C26.1993153,67.5254455 52.6681351,41.0927818 85.3164324,41.0927818 C117.966468,41.0927818 144.43355,67.5254455 144.43355,100.129145" id="Fill-2" fill="#B81C3D"></path>
                    <path d="M172.821937,99.5457273 C172.821937,147.170709 134.161081,185.780491 86.470955,185.780491 C38.7790901,185.780491 0.118234234,147.170709 0.118234234,99.5457273 C0.118234234,51.9207455 38.7790901,13.3109636 86.470955,13.3109636 C134.161081,13.3109636 172.821937,51.9207455 172.821937,99.5457273 L172.821937,99.5457273 Z" id="Stroke-3" stroke="#B81C3D" stroke-width="3"></path>
                    <path d="M20.4023604,59.4305182 C20.4023604,65.0250818 15.8625135,69.5587273 10.2585586,69.5587273 C4.65981982,69.5587273 0.118234234,65.0250818 0.118234234,59.4305182 C0.118234234,53.8376909 4.65981982,49.3005727 10.2585586,49.3005727 C15.8625135,49.3005727 20.4023604,53.8376909 20.4023604,59.4305182 L20.4023604,59.4305182 Z M154.285243,163.612336 C154.285243,169.2069 149.745396,173.740545 144.141441,173.740545 C138.542703,173.740545 134.001117,169.2069 134.001117,163.612336 C134.001117,158.019509 138.542703,153.482391 144.141441,153.482391 C149.745396,153.482391 154.285243,158.019509 154.285243,163.612336 L154.285243,163.612336 Z" id="Stroke-4" stroke="#B81C3D" stroke-width="2"></path>
                </g>
                <text id="前往" fill="#FFFFFF" sketch:type="MSTextLayer" font-family="Heiti TC" font-size="34" font-weight="bold" sketch:alignment="middle" line-spacing="19">
                    <tspan x="52" y="108.220062">前往</tspan>
                    <tspan x="52" y="148.220062">任務</tspan>
                </text>
            </g>
        </g>
    </g>
</svg>