<?xml version="1.0" encoding="UTF-8" standalone="no"?>
<svg width="54px" height="62px" viewBox="0 0 54 62" version="1.1" xmlns="http://www.w3.org/2000/svg" xmlns:xlink="http://www.w3.org/1999/xlink" xmlns:sketch="http://www.bohemiancoding.com/sketch/ns">
    <!-- Generator: Sketch 3.0.3 (7891) - http://www.bohemiancoding.com/sketch -->
    <title>menu_red5</title>
    <desc>Created with Sketch.</desc>
    <defs></defs>
    <g id="Welcome" stroke="none" stroke-width="1" fill="none" fill-rule="evenodd" sketch:type="MSPage">
        <g id="Start-Here" sketch:type="MSArtboardGroup" transform="translate(-549.000000, -1038.000000)">
            <text id="--------這是一場全民覺醒的運動，" sketch:type="MSTextLayer" font-family="Heiti TC" font-size="20" font-weight="260" line-spacing="30">
                <tspan x="71" y="799" fill="#333333">        這是一場全民覺醒的運動，超越了議會，從家庭、從</tspan>
                <tspan x="71" y="830" fill="#333333">巷口、從網路，從社會的各個角落開始綻放，罷免不再是</tspan>
                <tspan x="71" y="861" fill="#333333">瀕死的法條，而是活著的行動。割去發炎的「闌尾」，從</tspan>
                <tspan x="71" y="892" fill="#333333">體制內去影響、去改變現今有缺陷的代議制度，讓我們一</tspan>
                <tspan x="71" y="923" fill="#333333">起締造台灣新型態的社會運動。</tspan>
                <tspan x="351" y="923" font-family="Helvetica Neue" font-weight="normal" fill="#333333"></tspan>
                <tspan x="71" y="964" fill="#262626">        </tspan>
                <tspan x="111" y="964" fill="#333333">不論你是想擔任當天擺攤志工、物資提供或純粹想要</tspan>
                <tspan x="71" y="995" fill="#333333">鍵盤參戰，亦或是您想要長期熱情參與，你都可以成為割</tspan>
                <tspan x="71" y="1026" fill="#333333">闌尾</tspan>
                <tspan x="111" y="1026" font-family="Helvetica Neue" font-weight="normal" fill="#333333">V</tspan>
                <tspan x="123.22" y="1026" fill="#333333">計劃的公民</tspan>
                <tspan x="223.22" y="1026" font-family="Helvetica Neue" font-weight="normal" fill="#333333">V</tspan>
                <tspan x="235.44" y="1026" fill="#333333">，現在就點擊下方「前往任務」輕鬆三</tspan>
                <tspan x="71" y="1057" fill="#333333">步驟即可完成：</tspan>
                <tspan x="211" y="1057" font-family="Helvetica Neue" font-weight="normal" fill="#333333"></tspan>
                <tspan x="71" y="1098" font-family="Helvetica Neue" font-weight="normal" fill="#333333">Step 1 </tspan>
                <tspan x="135.1" y="1098" fill="#333333">：選擇想要支援的選區</tspan>
                <tspan x="335.1" y="1098" font-family="Helvetica Neue" font-weight="normal" fill="#333333"> (</tspan>
                <tspan x="345.84" y="1098" fill="#333333">蔡正元、吳育昇、林鴻池</tspan>
                <tspan x="565.84" y="1098" font-family="Helvetica Neue" font-weight="normal" fill="#333333">)</tspan>
                <tspan x="71" y="1129" font-family="Helvetica Neue" font-weight="normal" fill="#333333">Step 2</tspan>
                <tspan x="129.54" y="1129" fill="#333333">：選擇里、投開票所</tspan>
                <tspan x="309.540009" y="1129" font-family="Helvetica Neue" font-weight="normal" fill="#333333"></tspan>
                <tspan x="71" y="1160" font-family="Helvetica Neue" font-weight="normal" fill="#333333">Step 3</tspan>
                <tspan x="129.54" y="1160" fill="#333333">：填寫資料</tspan>
                <tspan x="229.540009" y="1160" font-family="Helvetica Neue" font-weight="normal" fill="#333333"></tspan>
                <tspan x="71" y="1201" fill="#333333">資料填寫完成後，我們將有專人與您聯繫相關訊息。</tspan>
            </text>
            <rect id="Rectangle-5" fill="#B81C3D" sketch:type="MSShapeGroup" x="512.294365" y="1029.29688" width="128.178291" height="107.703125"></rect>
            <polygon id="Polygon-5" stroke="#FFFFFF" stroke-width="2" sketch:type="MSShapeGroup" points="576 1038 601.980762 1053 601.980762 1083 576 1098 550.019238 1083 550.019238 1053 "></polygon>
            <g id="Imported-Layers" sketch:type="MSLayerGroup" transform="translate(562.680000, 1049.500000)" fill="#FFFFFF">
                <path d="M9.76874,3.7 L17.39666,3.7 C19.04094,3.7 20.41956,1.48 20.79252,0 L6.37288,0 C6.74584,1.48 8.1252,3.7 9.76874,3.7" id="Fill-1" sketch:type="MSShapeGroup"></path>
                <path d="M24.24092,0.74 L22.00982,0.74 C21.57174,2.96 19.9541,5.18 18.02492,5.18 L9.07536,5.18 C7.1447,5.18 5.5278,2.96 5.09046,0.74 L2.85862,0.74 C1.41784,0.74 0,1.74492 0,3.18718 L0,34.1769 C0,35.61916 1.41784,37 2.85862,37 L24.24092,37 C25.68244,37 26.64,35.61916 26.64,34.1769 L26.64,3.18718 C26.64,1.74492 25.68244,0.74 24.24092,0.74 L24.24092,0.74 Z M22.2,19.61 C22.2,20.22272 21.70272,20.72 21.09,20.72 L5.55,20.72 C4.93728,20.72 4.44,20.22272 4.44,19.61 C4.44,18.99728 4.93728,18.5 5.55,18.5 L21.09,18.5 C21.70272,18.5 22.2,18.99728 22.2,19.61 L22.2,19.61 Z M22.2,15.17 C22.2,15.78272 21.70272,16.28 21.09,16.28 L5.55,16.28 C4.93728,16.28 4.44,15.78272 4.44,15.17 C4.44,14.55728 4.93728,14.06 5.55,14.06 L21.09,14.06 C21.70272,14.06 22.2,14.55728 22.2,15.17 L22.2,15.17 Z M22.2,9.99 C22.2,10.60272 21.70272,11.1 21.09,11.1 L5.55,11.1 C4.93728,11.1 4.44,10.60272 4.44,9.99 C4.44,9.37728 4.93728,8.88 5.55,8.88 L21.09,8.88 C21.70272,8.88 22.2,9.37728 22.2,9.99 L22.2,9.99 Z" id="Fill-2" sketch:type="MSShapeGroup"></path>
            </g>
        </g>
    </g>
</svg>