<?xml version="1.0" encoding="UTF-8" standalone="no"?>
<svg width="54px" height="63px" viewBox="0 0 54 63" version="1.1" xmlns="http://www.w3.org/2000/svg" xmlns:xlink="http://www.w3.org/1999/xlink" xmlns:sketch="http://www.bohemiancoding.com/sketch/ns">
    <!-- Generator: Sketch 3.0.3 (7891) - http://www.bohemiancoding.com/sketch -->
    <title>menu5</title>
    <desc>Created with Sketch.</desc>
    <defs></defs>
    <g id="Welcome" stroke="none" stroke-width="1" fill="none" fill-rule="evenodd" sketch:type="MSPage">
        <g id="000" sketch:type="MSArtboardGroup" transform="translate(-549.000000, -1036.000000)">
            <polygon id="Polygon-5" stroke="#B81C3D" stroke-width="2" sketch:type="MSShapeGroup" points="576 1038 601.980762 1053 601.980762 1083 576 1098 550.019238 1083 550.019238 1053 "></polygon>
            <g id="Imported-Layers" sketch:type="MSLayerGroup" transform="translate(562.680000, 1049.500000)" fill="#B81C3D">
                <path d="M9.76874,3.7 L17.39666,3.7 C19.04094,3.7 20.41956,1.48 20.79252,0 L6.37288,0 C6.74584,1.48 8.1252,3.7 9.76874,3.7" id="Fill-1" sketch:type="MSShapeGroup"></path>
                <path d="M24.24092,0.74 L22.00982,0.74 C21.57174,2.96 19.9541,5.18 18.02492,5.18 L9.07536,5.18 C7.1447,5.18 5.5278,2.96 5.09046,0.74 L2.85862,0.74 C1.41784,0.74 -1.13686838e-13,1.74492 -1.13686838e-13,3.18718 L-1.13686838e-13,34.1769 C-1.13686838e-13,35.61916 1.41784,37 2.85862,37 L24.24092,37 C25.68244,37 26.64,35.61916 26.64,34.1769 L26.64,3.18718 C26.64,1.74492 25.68244,0.74 24.24092,0.74 L24.24092,0.74 Z M22.2,19.61 C22.2,20.22272 21.70272,20.72 21.09,20.72 L5.55,20.72 C4.93728,20.72 4.44,20.22272 4.44,19.61 C4.44,18.99728 4.93728,18.5 5.55,18.5 L21.09,18.5 C21.70272,18.5 22.2,18.99728 22.2,19.61 L22.2,19.61 Z M22.2,15.17 C22.2,15.78272 21.70272,16.28 21.09,16.28 L5.55,16.28 C4.93728,16.28 4.44,15.78272 4.44,15.17 C4.44,14.55728 4.93728,14.06 5.55,14.06 L21.09,14.06 C21.70272,14.06 22.2,14.55728 22.2,15.17 L22.2,15.17 Z M22.2,9.99 C22.2,10.60272 21.70272,11.1 21.09,11.1 L5.55,11.1 C4.93728,11.1 4.44,10.60272 4.44,9.99 C4.44,9.37728 4.93728,8.88 5.55,8.88 L21.09,8.88 C21.70272,8.88 22.2,9.37728 22.2,9.99 L22.2,9.99 Z" id="Fill-2" sketch:type="MSShapeGroup"></path>
            </g>
        </g>
    </g>
</svg>