<?xml version="1.0" encoding="UTF-8" standalone="no"?>
<svg width="257px" height="333px" viewBox="0 0 257 333" version="1.1" xmlns="http://www.w3.org/2000/svg" xmlns:xlink="http://www.w3.org/1999/xlink" xmlns:sketch="http://www.bohemiancoding.com/sketch/ns">
    <!-- Generator: Sketch 3.0.3 (7891) - http://www.bohemiancoding.com/sketch -->
    <title>people</title>
    <desc>Created with Sketch.</desc>
    <defs></defs>
    <g id="Welcome" stroke="none" stroke-width="1" fill="none" fill-rule="evenodd" sketch:type="MSPage">
        <g id="Start-Here-5" sketch:type="MSArtboardGroup" transform="translate(-366.000000, -206.000000)">
            <g id="Imported-Layers" sketch:type="MSLayerGroup" transform="translate(368.000000, 208.000000)">
                <path d="M135.647531,10.9102909 C135.647531,16.5632182 131.072063,21.1465091 125.426297,21.1465091 C119.778516,21.1465091 115.201031,16.5632182 115.201031,10.9102909 C115.201031,5.25736364 119.778516,0.674072727 125.426297,0.674072727 C131.072063,0.674072727 135.647531,5.25736364 135.647531,10.9102909 L135.647531,10.9102909 Z" id="Stroke-1" stroke="#B81C3D" sketch:type="MSShapeGroup"></path>
                <path d="M130.679016,7.3704 C130.679016,10.2241091 128.371125,12.5369455 125.519016,12.5369455 C122.668922,12.5369455 120.361031,10.2241091 120.361031,7.3704 C120.361031,4.51669091 122.668922,2.20587273 125.519016,2.20587273 C128.371125,2.20587273 130.679016,4.51669091 130.679016,7.3704" id="Fill-2" fill="#B81C3D" sketch:type="MSShapeGroup"></path>
                <path d="M229.541391,227.578255 C229.541391,284.591891 183.377531,330.812291 126.438141,330.812291 C69.4967344,330.812291 23.3348906,284.591891 23.3348906,227.578255 C23.3348906,170.566636 69.4967344,124.346236 126.438141,124.346236 C183.377531,124.346236 229.541391,170.566636 229.541391,227.578255" id="Fill-3" fill="#B81C3D" sketch:type="MSShapeGroup"></path>
                <path d="M127.512469,114.356236 C127.512469,114.356236 117.777,99.7002 82.5176719,97.7042182 C47.2583437,95.7062182 -0.6369375,90.3762 -0.6369375,71.7261818 M125.758875,114.356236 C125.758875,114.356236 135.494344,99.7002 170.751656,97.7042182 C206.008969,95.7062182 253.908281,90.3762 253.908281,71.7261818" id="Stroke-4" stroke="#B81C3D" sketch:type="MSShapeGroup"></path>
                <path d="M136.070812,114.325964 C136.070812,119.861836 131.588063,124.346236 126.063234,124.346236 C120.538406,124.346236 116.057672,119.861836 116.057672,114.325964 C116.057672,108.794127 120.538406,104.309727 126.063234,104.309727 C131.588063,104.309727 136.070812,108.794127 136.070812,114.325964 L136.070812,114.325964 Z" id="Stroke-5" stroke="#B81C3D" stroke-width="2" sketch:type="MSShapeGroup"></path>
                <path d="M84.65625,58.7795455 L84.65625,78.8624727 C84.65625,78.8624727 86.4521719,79.2318 88.8447187,79.8554182 L126.984375,95.2723091 L126.984375,93.2056909 C126.984375,93.3005455 126.551016,93.3913636 126.567141,93.4781455 C126.599391,84.6102545 127.050891,16.3694727 127.050891,16.3694727 C103.772437,16.3694727 84.65625,35.4675273 84.65625,58.7795455" id="Fill-6" fill="#B81C3D" sketch:type="MSShapeGroup"></path>
                <path d="M126.081375,93.6052909 C126.081375,93.5588727 126.071297,93.5185091 126.061219,93.4781455 C126.059203,94.6446545 126.063234,94.7980364 126.081375,93.6052909" id="Fill-7" fill="#B81C3D" sketch:type="MSShapeGroup"></path>
                <path d="M167.296875,58.7795455 L167.296875,78.8624727 C167.296875,78.8624727 166.50675,79.2318 164.116219,79.8554182 L126.984375,95.2723091 L126.984375,93.2056909 C126.984375,93.3005455 126.311156,93.3913636 126.295031,93.4781455 C126.268828,84.6102545 125.35575,16.3694727 125.35575,16.3694727 C148.634203,16.3694727 167.296875,35.4675273 167.296875,58.7795455" id="Fill-8" fill="#98272D" sketch:type="MSShapeGroup"></path>
                <path d="M125.676234,93.6052909 C125.676234,93.5588727 125.684297,93.5185091 125.694375,93.4781455 C125.696391,94.6446545 125.694375,94.7980364 125.676234,93.6052909" id="Fill-9" fill="#98272D" sketch:type="MSShapeGroup"></path>
                <path d="M104.092922,60.5172 C107.821828,62.2427455 112.201781,60.7795636 114.185156,57.2578364 L100.025391,50.7068182 C98.6386406,54.5030182 100.366031,58.7916545 104.092922,60.5172" id="Fill-10" fill="#FFFFFF" sketch:type="MSShapeGroup"></path>
                <path d="M146.326313,60.5172 C142.599422,62.2427455 138.219469,60.7795636 136.232063,57.2578364 L150.393844,50.7068182 C151.782609,54.5030182 150.055219,58.7916545 146.326313,60.5172" id="Fill-11" fill="#FFFFFF" sketch:type="MSShapeGroup"></path>
                <path d="M84.65625,29.859 L125.287219,26.3110364 L167.296875,29.9982545 L167.296875,31.1122909 L125.287219,28.7126727 L84.65625,31.1122909 L84.65625,29.859" id="Fill-12" fill="#FFFFFF" sketch:type="MSShapeGroup"></path>
                <path d="M74.8703906,59.2316182 C74.8703906,31.0658727 97.6751719,8.23014545 125.805234,8.23014545 C153.935297,8.23014545 176.740078,31.0658727 176.740078,59.2316182" id="Stroke-13" stroke="#B81C3D" sketch:type="MSShapeGroup"></path>
            </g>
        </g>
    </g>
</svg>