<?xml version="1.0" encoding="UTF-8" standalone="no"?>
<svg width="83px" height="98px" viewBox="0 0 83 98" version="1.1" xmlns="http://www.w3.org/2000/svg" xmlns:xlink="http://www.w3.org/1999/xlink" xmlns:sketch="http://www.bohemiancoding.com/sketch/ns">
    <!-- Generator: Sketch 3.0.3 (7891) - http://www.bohemiancoding.com/sketch -->
    <title>Start Here 6</title>
    <desc>Created with Sketch.</desc>
    <defs></defs>
    <g id="Welcome" stroke="none" stroke-width="1" fill="none" fill-rule="evenodd" sketch:type="MSPage">
        <g id="Start-Here-6" sketch:type="MSArtboardGroup" transform="translate(-97.000000, -345.000000)">
            <polygon id="Polygon-6" fill="#B81C3D" sketch:type="MSShapeGroup" points="138 346 178.703194 369.5 178.703194 416.5 138 440 97.296806 416.5 97.296806 369.5 "></polygon>
            <path d="M121,384.575 C121,393.755 138.5,419 138.5,419 C138.5,419 156,393.755 156,384.575 C156,375.426875 148.172727,368 138.5,368 C128.827273,368 121,375.426875 121,384.575 L121,384.575 Z M127.363636,384.989375 C127.363636,379.3475 132.709091,374.375 138.5,374.375 C144.290909,374.375 149.572727,379.41125 149.572727,385.02125 C149.572727,390.663125 144.259091,396.62375 138.436364,396.62375 C132.645455,396.62375 127.363636,390.63125 127.363636,384.989375 L127.363636,384.989375 Z" id="Shape-4" fill="#FFFFFF" sketch:type="MSShapeGroup"></path>
        </g>
    </g>
</svg>