<?xml version="1.0" encoding="UTF-8" standalone="no"?>
<svg width="118px" height="136px" viewBox="0 0 118 136" version="1.1" xmlns="http://www.w3.org/2000/svg" xmlns:xlink="http://www.w3.org/1999/xlink" xmlns:sketch="http://www.bohemiancoding.com/sketch/ns">
    <!-- Generator: Sketch 3.0.3 (7891) - http://www.bohemiancoding.com/sketch -->
    <title>vicon</title>
    <desc>Created with Sketch.</desc>
    <defs></defs>
    <g id="Welcome" stroke="none" stroke-width="1" fill="none" fill-rule="evenodd" sketch:type="MSPage">
        <g id="000" sketch:type="MSArtboardGroup" transform="translate(-36.000000, -620.000000)">
            <path d="M-1.43762234,714.5 L639.810231,714.5" id="Line" stroke="#B81C3D" stroke-width="3" stroke-linecap="square" sketch:type="MSShapeGroup"></path>
            <path d="M-1.43762234,663.5 L639.810231,663.5" id="Line-2" stroke="#B81C3D" stroke-width="3" stroke-linecap="square" sketch:type="MSShapeGroup"></path>
            <g id="Imported-Layers" sketch:type="MSLayerGroup" transform="translate(35.000000, 620.000000)">
                <path d="M2.64444444,35.2609709 L60.1611111,2.94314563 L117.677778,35.2609709 L117.677778,99.9005825 L60.1611111,132.219728 L2.64444444,99.9005825 L2.64444444,35.2609709" id="Fill-1" fill="#FFFFFF" sketch:type="MSShapeGroup"></path>
                <path d="M59.5,135.007068 L0,101.310757 L0,33.8507961 L59.5,0.154485437 L119,33.8507961 L119,101.310757 L59.5,135.007068 L59.5,135.007068 Z M6.61111111,98.4904078 L60.1611111,129.433709 L113.711111,98.4904078 L113.711111,36.6711456 L60.1611111,5.72784466 L6.61111111,36.6711456 L6.61111111,98.4904078 L6.61111111,98.4904078 Z" id="Fill-2" fill="#B81C3D" sketch:type="MSShapeGroup"></path>
                <path d="M40.0289556,26.7299417 L42.0665,30.3068738 L67.9979222,15.6135922 C67.6158,14.2219029 67.0075778,13.0111068 66.3306,11.832 L40.0289556,26.7299417" id="Fill-3" fill="#B81C3D" sketch:type="MSShapeGroup"></path>
                <path d="M37.8433222,22.8598835 C38.1818111,23.4553786 38.5136889,24.0640777 38.8561444,24.6542913 L40.0725889,26.7946408 L70.9478,11.4570097 C70.2073556,10.1709515 67.9833778,6.98353398 67.2508667,5.60900971 L37.8433222,22.8598835" id="Fill-4" fill="#B81C3D" sketch:type="MSShapeGroup"></path>
                <path d="M16.0821889,43.992699 L41.6222333,29.5225631 L38.5136889,24.0640777 C38.5136889,24.0640777 37.2232,27.2250874 35.1433444,28.7884272 C33.2538889,30.2170874 31.2242778,30.4177864 29.3573,30.4930485 C28.5890889,30.5260583 24.0737,30.6448932 20.5103111,32.6822524 C17.3264,34.4951456 12.8771222,38.9593786 10.8541222,42.550835 C8.95673333,45.9349903 8.39346667,48.3526214 8.39346667,48.3526214 L16.0821889,43.992699" id="Fill-5" fill="#B81C3D" sketch:type="MSShapeGroup"></path>
                <path d="M24.0829556,38.2318447 C21.4504111,37.4897864 18.8112556,36.7701748 16.1760667,36.0373592 C15.0786222,37.0897087 13.9772111,38.2582524 13.0225667,39.4175534 L20.5129556,41.4866019 L25.5347556,38.6398447 C25.0547889,38.5012039 24.5668889,38.3638835 24.0829556,38.2318447" id="Fill-6" fill="#FFFFFF" sketch:type="MSShapeGroup"></path>
                <path d="M92.2078111,101.272466 L96.3543,98.776932 L95.2119,96.8861359 L90.9120333,99.1083495 L92.2078111,101.272466" id="Fill-7" fill="#B81C3D" sketch:type="MSShapeGroup"></path>
                <path d="M92.1668222,101.202485 L93.4136778,103.274175 L97.3988556,100.509282 L96.3119889,98.7016699 L92.1668222,101.202485" id="Fill-8" fill="#B81C3D" sketch:type="MSShapeGroup"></path>
                <path d="M78.9181556,109.148583 C79.1191333,110.869049 79.2645778,112.601398 79.5078667,114.195107 L93.7191111,105.658796 C94.6883,105.071223 95.0016667,103.815534 94.4185667,102.846369 L93.0804778,100.636039 L78.9181556,109.148583" id="Fill-9" fill="#B81C3D" sketch:type="MSShapeGroup"></path>
                <path d="M88.7383,97.3971262 L77.9555778,103.867029 C78.4540556,105.557126 78.7185,107.395107 78.9287333,109.24365 L93.1320444,100.709981 L91.5533111,98.103534 C90.9755,97.1317282 89.7114556,96.8135146 88.7383,97.3971262" id="Fill-10" fill="#B81C3D" sketch:type="MSShapeGroup"></path>
                <path d="M102.169433,96.063534 C101.742356,96.3091262 101.216111,96.2034951 100.931833,95.8258641 L95.9153222,98.8389903 L96.7628667,100.243883 L105.566222,97.4301359 L105.597956,97.358835 C106.022389,94.6190291 110.133178,90.6327767 110.322256,90.5205437 C110.438611,90.4452816 110.500756,90.3066408 110.486211,90.191767 L102.555522,94.9596893 C102.706256,95.3624078 102.551556,95.8311456 102.169433,96.063534" id="Fill-11" fill="#B81C3D" sketch:type="MSShapeGroup"></path>
                <path d="M95.1193444,97.5159612 L95.9589556,98.9089709 L100.9715,95.8984854 C100.9715,95.8958447 100.9715,95.8958447 100.962244,95.8958447 C100.704411,95.454835 100.847211,94.8778252 101.286189,94.6163883 C101.674922,94.3879612 102.1615,94.4711456 102.455033,94.7814369 L110.344733,90.0346408 C110.244244,90.008233 110.139789,90.0108738 110.049878,90.0650097 C109.868733,90.1812039 104.366967,91.8845049 101.745,90.9721165 L101.670956,90.9800388 L95.1193444,97.5159612" id="Fill-12" fill="#B81C3D" sketch:type="MSShapeGroup"></path>
                <path d="M86.9255333,109.773126 L49.6362222,131.073631 L42.4882889,124.78066 L82.2501556,101.569553 L86.9255333,109.773126" id="Fill-13" fill="#B81C3D" sketch:type="MSShapeGroup"></path>
                <path d="M26.4444444,49.2386019 L59.5,30.0863689 L92.5555556,49.2386019 L92.5555556,87.5536311 L59.5,106.711146 L26.4444444,87.5536311 L26.4444444,49.2386019" id="Fill-14" fill="#B81C3D" sketch:type="MSShapeGroup"></path>
                <path d="M63.2656889,91.823767 L53.8924556,91.823767 L39.0399333,51.5334369 L51.9395333,51.5334369 L58.6167556,72.4259417 L65.2133222,51.5334369 L78.1142444,51.5334369 L63.2656889,91.823767" id="Fill-15" fill="#FFFFFF" sketch:type="MSShapeGroup"></path>
                <path d="M104.455556,79.223301 L103.133333,79.223301 L103.133333,42.4768932 L69.2950222,23.2414757 L70.2232222,21.664932 L104.455556,41.4258641 L104.455556,79.223301" id="Fill-16" fill="#B81C3D" sketch:type="MSShapeGroup"></path>
                <path d="M48.7186,113.479456 L14.5444444,93.4016311 L14.5444444,55.4563107 L17.1888889,55.4563107 L17.1888889,92.3598447 L50.0699111,111.909515 L48.7186,113.479456" id="Fill-17" fill="#B81C3D" sketch:type="MSShapeGroup"></path>
                <path d="M93.4017778,50.024233 L92.4749,48.4542913 L116.196889,34.4766602 L117.123767,36.0466019 L93.4017778,50.024233" id="Fill-18" fill="#C1272D" sketch:type="MSShapeGroup"></path>
                <path d="M5.8072,99.28 L4.89486667,97.7021359 L31.3604667,82.4344854 L32.2728,84.0123495 L5.8072,99.28" id="Fill-19" fill="#C1272D" sketch:type="MSShapeGroup"></path>
            </g>
        </g>
    </g>
</svg>