<?xml version="1.0" encoding="UTF-8" standalone="no"?>
<svg width="83px" height="97px" viewBox="0 0 83 97" version="1.1" xmlns="http://www.w3.org/2000/svg" xmlns:xlink="http://www.w3.org/1999/xlink" xmlns:sketch="http://www.bohemiancoding.com/sketch/ns">
    <!-- Generator: Sketch 3.0.3 (7891) - http://www.bohemiancoding.com/sketch -->
    <title>water</title>
    <desc>Created with Sketch.</desc>
    <defs></defs>
    <g id="Welcome" stroke="none" stroke-width="1" fill="none" fill-rule="evenodd" sketch:type="MSPage">
        <g id="Start-Here-5" sketch:type="MSArtboardGroup" transform="translate(-97.000000, -759.000000)">
            <g id="Imported-Layers" sketch:type="MSLayerGroup" transform="translate(97.000000, 761.000000)">
                <path d="M0,23.622 L41.5,-0.129 L83,23.622 L83,71.125 L41.5,94.876 L0,71.125 L0,23.622" id="Fill-1" fill="#B81C3D" sketch:type="MSShapeGroup"></path>
                <path d="M56.596,71.142 C56.596,76.207 52.488,80.315 47.422,80.315 L36.507,80.315 C31.441,80.315 27.334,76.207 27.334,71.142 L32.791,29.44 C32.791,24.374 36.898,20.268 41.965,20.268 C47.031,20.268 51.138,24.374 51.138,29.44 L56.596,71.142" id="Fill-2" fill="#FFFFFF" sketch:type="MSShapeGroup"></path>
                <path d="M47.422,17.117 C47.422,18.016 46.801,18.743 46.033,18.743 L37.897,18.743 C37.129,18.743 36.507,18.016 36.507,17.117 L36.507,14.784 C36.507,13.887 37.129,13.159 37.897,13.159 L46.033,13.159 C46.801,13.159 47.422,13.887 47.422,14.784 L47.422,17.117" id="Fill-3" fill="#FFFFFF" sketch:type="MSShapeGroup"></path>
                <path d="M32.385,76.816 C32.385,76.816 41.21,67.062 51.66,76.816" id="Fill-4" fill="#B81C3D" sketch:type="MSShapeGroup"></path>
                <path d="M44.486,22.057 C44.486,22.057 48.508,22.981 49.181,28.893 C49.181,28.893 48.645,30.506 47.772,29.163 C46.9,27.82 47.992,26.074 43.968,23.26 C43.968,23.26 43.02,22.316 44.486,22.057" id="Fill-5" fill="#B81C3D" sketch:type="MSShapeGroup"></path>
                <path d="M49.454,31.586 C49.454,32.003 49.116,32.341 48.699,32.341 C48.283,32.341 47.945,32.003 47.945,31.586 C47.945,31.169 48.283,30.831 48.699,30.831 C49.116,30.831 49.454,31.169 49.454,31.586" id="Fill-6" fill="#B81C3D" sketch:type="MSShapeGroup"></path>
                <path d="M41.077,64.698 C40.147,64.423 39.166,64.259 38.297,63.856 C34.34,62.021 32.459,57.722 33.721,53.544 C34.416,51.238 35.496,49.1 36.805,47.101 C38.354,44.734 40.037,42.459 41.665,40.146 C41.738,40.041 41.834,39.952 41.969,39.8 C42.373,40.316 42.766,40.804 43.143,41.304 C45.409,44.307 47.534,47.401 49.136,50.821 C49.819,52.28 50.425,53.774 50.566,55.404 C50.953,59.86 47.681,63.968 43.256,64.596 C43.113,64.616 42.975,64.663 42.836,64.698 L41.077,64.698 L41.077,64.698 Z M39.132,61.754 C38.834,60.339 38.483,58.97 38.267,57.579 C37.994,55.827 38.35,54.103 38.798,52.421 C39.458,49.941 40.202,47.484 40.905,45.017 C40.979,44.758 41.02,44.489 41.076,44.226 C40.846,44.494 40.702,44.785 40.543,45.065 C39.332,47.201 38.091,49.318 36.914,51.472 C35.976,53.19 35.291,54.981 35.701,57.018 C36.129,59.139 37.223,60.748 39.132,61.754 L39.132,61.754 Z" id="Fill-7" fill="#B81C3D" sketch:type="MSShapeGroup"></path>
            </g>
        </g>
    </g>
</svg>