<svg xmlns="http://www.w3.org/2000/svg" width="83" height="95.25" viewBox="0 0 83 95.25"><path fill="#B81C3D" d="M0 23.872L41.5.122 83 23.87v47.503l-41.5 23.75L0 71.376z"/><g fill="#fff"><path d="M58.653 29.316c0 5.156-7.86 9.34-17.558 9.34-9.695 0-17.556-4.184-17.556-9.34 0-5.162 7.86-9.342 17.555-9.342 9.698 0 17.558 4.18 17.558 9.342zM24.135 75.438c-.038.87-.545 1.557-1.13 1.535-.588-.026-1.034-.753-.997-1.624l1.96-46.82c.038-.87.542-1.557 1.13-1.534.586.025 1.033.752.997 1.623l-1.96 46.818zM58.884 74.788c.055.868.572 1.51 1.16 1.436.583-.077 1.015-.844.96-1.713l-2.918-46.678c-.052-.87-.57-1.512-1.156-1.437-.586.077-1.016.845-.96 1.713l2.914 46.68zM39.96 82.95c.003 1.02.485 1.794 1.072 1.735.59-.058 1.062-.93 1.06-1.95l-.216-54.65c-.004-1.018-.483-1.794-1.07-1.736-.59.06-1.064.935-1.06 1.953l.213 54.648zM25.2 53.308s15.858 6.954 33.405-.564l.218 2.77s-17.85 7.483-35.13-.576l1.508-1.63z"/></g></svg>