<svg xmlns="http://www.w3.org/2000/svg" width="178.5" height="207.5" viewBox="0 0 178.5 207.5"><path fill="#fff" d="M2 53.283L88 3.338l86 49.945v99.89L88 203.12 2 153.173z"/><path fill="#B81C3D" d="M88.5 206.62L0 155.31V52.684L88.5 1.37 178 52.684v102.624L88.5 206.62zM4 152.76l85 48.762 84-48.76V55.23L89 6.47 4 55.23v97.53zM17 162l-5-3V49l5-4zM44.387 77.218l10.047 31.577h66.025l10.047-31.577h-17.224l-2.87 15.79H97.696l-1.435-15.79h-15.95l-.95 15.79H67.626l-2.94-15.79zM127.448 180.84l-38.14 21.814s-41.172-25.587-41.53-23.813l-.464 2.3-4.596-.928.464-2.3c.09-.452 9.153-45.495 9.57-58.626l2.345-2.27h64.7l2.317 1.992 9.97 61.13-4.636.703zM88.933 80.163l.19-45.213 32.76 9.952-32.76 9.64V34.95"/><path fill="#B81C3D" d="M91.277 80.173l-4.69-.02.203-48.362 43.277 13.148-38.69 11.384-.1 23.85zm.19-42.06v13.295l22.232-6.54-22.234-6.756z"/></svg>