<svg xmlns="http://www.w3.org/2000/svg" width="178.5" height="207.5" viewBox="0 0 178.5 207.5"><path fill="#fff" d="M2 53.783L88 3.838l86 49.945v99.89L88 203.62 2 153.673z"/><path fill="#B81C3D" d="M88.5 207.12L0 155.81V53.184L88.5 1.87 178 53.184v102.624L88.5 207.12zM5 153.26l84.5 48.762 84.5-48.76V55.73L89.5 6.97 5 55.73v97.53zM175.257 156.204L89.61 106.678 3.962 156.204l-1.768-3.058 87.414-50.55 87.415 50.55zM175.257 146.49L89.61 96.966 3.962 146.49l-1.768-3.056 87.414-50.55 87.415 50.55z"/><path fill-rule="evenodd" clip-rule="evenodd" fill="#B81C3D" d="M105.048 28.813c3.054 5.017 2.42 9.95-.69 14.588-2.31 3.448-4.938 6.695-7.547 9.934-1.768 2.193-2.594 4.48-2.584 7.39.097 27.126-1.03 27.616-1.002 54.74.002 1.67.197 3.365.536 5 .85 4.08 2.762 5.686 6.916 6.04 8.627.738 8.792.742 8.58 9.514-.305 12.57-4.4 23.797-12.714 33.34-1.32 1.517-2.902 2.818-4.45 4.116-2.71 2.276-5.715 2.476-8.208-.007-3.32-3.307-6.722-6.7-9.27-10.592-5.953-9.094-8.114-19.42-8.328-30.174-.085-4.403 1.365-5.783 5.81-6.06 1.346-.085 2.707-.04 4.042-.215 3.092-.41 5.216-2.08 5.872-5.192.416-1.965.726-3.996.73-5.997.05-27.125 1.166-27.617 1.015-54.738-.013-2.27-1.136-4.702-2.293-6.747-1.263-2.22-3.15-4.09-4.795-6.086C72.072 42.07 69.29 36.1 72.62 28.81c10.81 0 21.617.002 32.428.003zm-28.686 6.135l-.652.884c4.357 4.537 8.712 9.077 13.39 13.95l13.33-14.03-.668-.8c-8.467 0-16.932 0-25.4-.004z"/><path fill="#B81C3D" d="M135.786 121.5h-3.532c0-24-19.07-42.514-42.513-42.514-23.44 0-42.513 18.514-42.513 42.514h-3.532c0-25 20.656-46.045 46.046-46.045S135.787 96.5 135.787 121.5zM13.216 61.23l33.11 18.676-1.735 3.078-33.11-18.677zM161.58 59.907l1.734 3.076-33.11 18.677-1.736-3.077zM166.843 105.52l.03 3.532-25.85.227-.032-3.532zM38.376 105.516l.03 3.53-25.85.228-.03-3.53z"/></svg>