<svg xmlns="http://www.w3.org/2000/svg" width="178.5" height="207.5" viewBox="0 0 178.5 207.5"><path fill="#fff" d="M3 54.283L89 4.338l86 49.945v99.89L89 204.12 3 154.173z"/><path fill="#B81C3D" d="M78.382 33.03l66.155 120.912-4.997 2.734L73.385 35.763zM99.983 33.04l4.993 2.733L38.78 156.658l-4.993-2.734zM86.663 24.787l5.694.13-.67 28.946-5.692-.132zM89 205.664L0 155.05V53.825L89 3.208l89 50.616V155.05l-89 50.614zM5 152.536l84 48.1 83-48.1V56.34L89 8.24 5 56.34v96.196zM112.166 191.88l-23.562-13.55-21.85 12.41-1.743-3.015 23.594-13.422 25.305 14.56zM89.43 59.19L38.207 157h101.357z"/><path fill="#fff" d="M102.88 158.2h-5.692v-30.837c0-4.58-3.726-8.304-8.305-8.304-4.578 0-8.303 3.724-8.303 8.303V158.2h-5.692v-30.837c0-7.72 6.28-14 13.995-14 7.72 0 13.997 6.28 13.997 14V158.2z"/><path fill="#B81C3D" d="M12 47h5v113h-5zM160 47h5v113h-5z"/></svg>