<svg xmlns="http://www.w3.org/2000/svg" width="140.667" height="31.333" viewBox="0 0 140.667 31.333"><path stroke="#B81C3D" stroke-width="2" stroke-miterlimit="10" fill="none" d="M131.333 15h-122"/><g fill="#B81C3D"><path d="M129.606 25c2.498-4 6.387-7.423 10.523-10-4.177-2.54-7.903-6-10.524-10h-2.496c2.62 4 5.77 7.378 9.662 10-3.892 2.66-7.166 6-9.703 10h2.536zM123.59 25c2.497-4 6.386-7.423 10.52-10-4.176-2.54-7.9-6-10.52-10h-2.497c2.618 4 5.77 7.378 9.66 10-3.89 2.66-7.164 6-9.7 10h2.536z"/></g><g fill="#B81C3D"><path d="M11.024 25C8.526 21 4.637 17.576.5 15c4.177-2.54 7.903-6 10.524-10h2.496c-2.62 4-5.77 7.378-9.662 10 3.892 2.66 7.166 6 9.703 10h-2.536zM17.042 25c-2.498-4-6.387-7.423-10.52-10 4.175-2.54 7.9-6 10.52-10h2.496c-2.618 4-5.77 7.378-9.66 10 3.89 2.66 7.164 6 9.7 10h-2.536z"/></g><path fill="#fff" stroke="#B81C3D" stroke-width="2" stroke-miterlimit="10" d="M30.126 30l-6.26-14.5L30.127 1h80.776l6.26 14.5L110.9 30z"/></svg>