<svg xmlns="http://www.w3.org/2000/svg" width="64.75" height="75" viewBox="0 0 64.75 75"><path fill="#fff" d="M1 19.596L32.5 1.86 64 19.595v35.472L32.5 72.805 1 55.068z"/><path fill="#B81C3D" d="M32.5 74.334L0 55.844V18.822L32.5.33 65 18.822v37.02L32.5 74.335zM3 54.294l29.5 16.983L62 54.295V20.37L32.5 3.39 3 20.37v33.925zM21.672 14.914l1.116 1.963 14.21-8.062c-.21-.764-.542-1.43-.913-2.076l-14.413 8.174zM20.474 12.79c.186.327.367.66.555.985l.666 1.174 16.92-8.417c-.405-.705-1.624-2.455-2.025-3.21l-16.116 9.468zM8.548 24.39l13.996-7.942-1.703-2.996s-.706 1.734-1.846 2.592c-1.035.785-2.147.896-3.17.938-.422.018-2.897.082-4.85 1.2-1.744.995-4.183 3.444-5.292 5.415-1.04 1.857-1.35 3.186-1.35 3.186L8.55 24.39z"/><path fill="#fff" d="M12.933 21.227c-1.443-.408-2.89-.803-4.333-1.205-.602.578-1.205 1.218-1.73 1.855l4.105 1.135 2.753-1.562c-.263-.075-.53-.15-.795-.223z"/><path fill="#B81C3D" d="M50.267 55.822l2.272-1.37-.627-1.038-2.356 1.22zM50.244 55.783l.684 1.137 2.183-1.518-.594-.99zM42.983 60.145c.11.943.19 1.895.323 2.77l7.788-4.684c.53-.323.703-1.013.384-1.544l-.733-1.213-7.762 4.672zM48.365 53.695l-5.91 3.55c.274.93.42 1.937.534 2.952l7.783-4.684-.865-1.43c-.317-.534-1.01-.708-1.543-.388zM55.726 52.963c-.233.135-.522.078-.678-.13l-2.75 1.653.465.77 4.824-1.544.02-.04c.23-1.503 2.483-3.69 2.587-3.75.064-.042.1-.118.09-.183l-4.346 2.616c.082.222-.003.48-.212.607zM51.862 53.76l.46.766 2.747-1.652s0-.002-.006-.002c-.142-.242-.063-.56.178-.7.213-.126.48-.08.64.09l4.324-2.606c-.055-.014-.112-.012-.16.018-.1.062-3.116.998-4.553.498l-.04.004-3.59 3.584zM47.372 60.486L28.5 71l-5.48-2.277 21.79-12.74zM14 27.268l18.5-10.512L51 27.268v21.025L32.5 58.807 14 48.293z"/><path fill="#fff" d="M34.405 50.637h-5.137L21.13 28.525h7.07l3.657 11.467 3.616-11.467h7.07l-8.138 22.112z"/><path fill="#B81C3D" d="M57 44.25h-1V23.555L37.584 13l.583-.865L57 22.98zM26.58 62.52L8 51.505V31.25h1v19.682L27.17 61.66z"/><path fill="#C1272D" d="M63.416 19.167l.508.86-13.002 7.667-.508-.86zM16.92 45.48l.5.866-14.5 8.38-.5-.865z"/></svg>