<svg xmlns="http://www.w3.org/2000/svg" viewBox="0 0 90 150" enable-background="new 0 0 90 150"><circle fill="#fff" stroke="#FFF200" stroke-width="6" stroke-miterlimit="10" cx="45.7" cy="45" r="41.4"/><path fill="#B91F3F" d="M18.2 29.4l27.5-15.5 27.5 15.5v31.1L45.7 76.1 18.2 60.5z"/><path fill="#fff" d="M61.165 62.442L40.14 24.016l1.58-.864 21.024 38.426zM29.173 62.473l-1.58-.863 21.002-38.434 1.58.863zM46 29.9l-1.8-.1.2-9.2 1.8.1zM45.2 31.1L29 62.2h32.2z"/><path fill="#B91F3F" d="M50.3 63.7H39.9V52.2c0-2.9 2.3-5.2 5.2-5.2 2.9 0 5.2 2.3 5.2 5.2v11.5z"/><path stroke="#FFF200" stroke-width="6" stroke-miterlimit="10" fill="none" d="M45.2 86.2v50.5"/><circle fill="#fff" stroke="#FFF200" stroke-width="6" stroke-miterlimit="10" cx="44.9" cy="139" r="7"/></svg>