<svg xmlns="http://www.w3.org/2000/svg" viewBox="0 0 90 150" enable-background="new 0 0 90 150"><circle fill="#fff" stroke="#fff" stroke-width="6" stroke-miterlimit="10" cx="44.7" cy="44.9" r="41.4"/><path fill="#B91F3F" d="M18.2 29.4l27.5-15.5 27.5 15.5v31.1L45.7 76.1 18.2 60.5z"/><path fill="#fff" d="M31 33.5l3.2 10h21l3.2-10h-5.5l-.9 5h-4l-.5-5h-5l-.3 5h-3.8l-.9-5zM57.4 66.4L45.3 73s-13.1-7.8-13.2-7.2l-.1.7-1.5-.3.1-.7c0-.1 2.9-14.5 3-18.6l.7-.7H55l.7.6 3.2 19.4-1.5.2zM45.2 34.4l.1-14.3 10.4 3.1-10.4 3.1v-6.2"/><path fill="#fff" d="M45.9 34.4h-1.5l.1-15.4 13.8 4.2L46 26.9l-.1 7.5zm.1-13.3v4.2l7.1-2.1-7.1-2.1z"/><path stroke="#fff" stroke-width="6" stroke-miterlimit="10" fill="none" d="M45.2 86.2v50.5"/><circle fill="#fff" stroke="#fff" stroke-width="6" stroke-miterlimit="10" cx="44.9" cy="139" r="7"/></svg>