<svg xmlns="http://www.w3.org/2000/svg" viewBox="0 0 90 150" enable-background="new 0 0 90 150"><circle fill="#fff" stroke="#fff" stroke-width="6" stroke-miterlimit="10" cx="44.7" cy="44.9" r="41.4"/><path fill="#B91F3F" d="M18.2 29.4l27.5-15.5 27.5 15.5v31.1L45.7 76.1 18.2 60.5z"/><path fill="#fff" d="M64.3 30.7c-.4 1.9-1.7 3-3.5 3.4-1.3.3-2.7.5-4.1.7-.9.1-1.6.5-2.3 1.2-6.1 6.6-6.5 6.5-12.6 13-.4.4-.7.9-1 1.3-.7 1.2-.6 2 .3 3 1.9 2.1 2 2.2-.1 4.2-2.9 3-6.4 4.8-10.6 5.2-.7.1-1.3 0-2 0-1.2-.1-1.9-.7-2-1.8-.1-1.5-.1-3.1.1-4.7.6-3.5 2.4-6.5 4.8-9.2 1-1.1 1.6-1.1 2.8-.2.3.3.7.6 1 .9.8.6 1.7.7 2.6.1.5-.4 1.1-.8 1.5-1.3 6.1-6.6 6.5-6.4 12.6-13 .5-.5.8-1.4 1-2.1.2-.8.2-1.7.2-2.6.1-2.4.8-4.5 3.3-5.5 2.7 2.5 5.4 4.9 8 7.4zm-8.3-5c-.1 0-.2 0-.4.1 0 2.1.1 4.2.1 6.4 2.3-.1 4.3-.3 6.4-.4v-.3c-2.1-2-4.1-3.9-6.1-5.8z"/><path stroke="#fff" stroke-width="6" stroke-miterlimit="10" fill="none" d="M45.2 86.2v50.5"/><circle fill="#fff" stroke="#fff" stroke-width="6" stroke-miterlimit="10" cx="44.9" cy="140" r="7"/></svg>