<svg xmlns="http://www.w3.org/2000/svg" viewBox="293 -21 704.7 172" enable-background="new 293 -21 704.7 172"><path stroke="#B81C3D" stroke-width="4" stroke-miterlimit="10" fill="none" d="M642.6 148.6l-98.9-98.9h197.9z"/><path fill="#B81C3D" d="M642.8 130.5L560 47.7h165.7z"/><path fill="#98272D" d="M293.3 65.7h142v-14h-29.7l11.7-25H314.9l5.4 19.5z"/><path fill="#FBB03B" d="M405.6 51.7l29.7 14v-14z"/><path fill="#B81C3D" d="M885.4 51.7H404.3l20.7-40h441.4z"/><path fill="#98272D" d="M997.6 65.7H855.3v-14h30.1l-11.7-25h102.4l-5.5 19.5z"/><path fill="#FBB03B" d="M885.4 51.7l-30.1 14v-14z"/><g stroke="#fff" stroke-width="2" stroke-miterlimit="10" fill="none"><circle cx="551.2" cy="30.4" r="8.7"/><path d="M551.3 30.7h-91"/></g><g stroke="#fff" stroke-width="2" stroke-miterlimit="10" fill="none"><circle cx="734.1" cy="30.4" r="8.7"/><path d="M734.3 30.7h91"/></g><circle fill="#fff" stroke="#B81C3D" stroke-width="2" stroke-miterlimit="10" cx="640" cy="38.3" r="49.7"/><g stroke="#B81C3D" stroke-width="2" stroke-miterlimit="10"><path fill="#fff" d="M659.4 5.2l14 14-63.5 63.5-15.5 1.5 1.5-15.4z"/><path fill="none" d="M594.4 84.2l72-72"/><path fill="#fff" d="M659.588-5.913l24.96 24.96-5.585 5.587-24.96-24.96zM686.684-19.09L698.21-7.562 678.056 12.59 666.53 1.063z"/><path fill="none" d="M678 12.6l2.8-26.4M666.5 1.1l31.6-8.7"/></g><circle fill="#B81C3D" cx="639.3" cy="38.7" r="34"/><text transform="translate(619.964 33.3)" fill="#fff" font-family="'LiGothicMed'" font-size="18.202">即時</text><text transform="translate(619.964 55.142)" fill="#fff" font-family="'LiGothicMed'" font-size="18.202">戰況</text><circle fill="#fff" stroke="#B81C3D" stroke-width="2" stroke-miterlimit="10" cx="596.2" cy="15.2" r="5.8"/><circle fill="#fff" stroke="#B81C3D" stroke-width="2" stroke-miterlimit="10" cx="673.2" cy="75.2" r="5.8"/></svg>