<svg xmlns="http://www.w3.org/2000/svg" viewBox="344 -79 704.7 172" enable-background="new 344 -79 704.7 172"><path stroke="#B81C3D" stroke-width="4" stroke-miterlimit="10" fill="none" d="M697.6 90.6L598.7-8.3h197.9z"/><path fill="#B81C3D" d="M697.8 72.5L615-10.3h165.7z"/><path fill="#98272D" d="M344.3 7.7h142v-14h-29.7l11.7-25H365.9l5.4 19.5z"/><path fill="#FBB03B" d="M456.6-6.3l29.7 14v-14z"/><path fill="#B81C3D" d="M936.4-6.3H455.3l20.7-40h441.4z"/><path fill="#98272D" d="M1048.6 7.7H906.3v-14h30.1l-11.7-25h102.4l-5.5 19.5z"/><path fill="#FBB03B" d="M936.4-6.3l-30.1 14v-14z"/><g stroke="#fff" stroke-width="2" stroke-miterlimit="10" fill="none"><circle cx="602.2" cy="-27.6" r="8.7"/><path d="M602.3-27.3h-91"/></g><g stroke="#fff" stroke-width="2" stroke-miterlimit="10" fill="none"><circle cx="785.1" cy="-27.6" r="8.7"/><path d="M785.3-27.3h91"/></g><circle fill="#fff" stroke="#B81C3D" stroke-width="2" stroke-miterlimit="10" cx="696" cy="-19.7" r="49.7"/><g stroke="#B81C3D" stroke-width="2" stroke-miterlimit="10"><path fill="#fff" d="M715.4-52.8l14 14-63.5 63.5-15.5 1.5 1.5-15.4z"/><path fill="none" d="M650.4 26.2l72-72"/><path fill="#fff" d="M715.588-63.913l24.96 24.96-5.586 5.587-24.96-24.96zM742.683-77.09l11.526 11.527-20.154 20.152-11.525-11.526z"/><path fill="none" d="M734-45.4l2.8-26.4M722.5-56.9l31.6-8.7"/></g><circle fill="#B81C3D" cx="695.3" cy="-19.3" r="34"/><text transform="translate(675.964 -24.7)" fill="#fff" font-family="'LiGothicMed'" font-size="18.202">即時</text><text transform="translate(675.964 -2.858)" fill="#fff" font-family="'LiGothicMed'" font-size="18.202">戰況</text><circle fill="#fff" stroke="#B81C3D" stroke-width="2" stroke-miterlimit="10" cx="652.2" cy="-42.8" r="5.8"/><circle fill="#fff" stroke="#B81C3D" stroke-width="2" stroke-miterlimit="10" cx="729.2" cy="17.2" r="5.8"/></svg>