<svg width="142" height="205" viewBox="0 0 142 205" xmlns="http://www.w3.org/2000/svg"><title>Artboard 1</title><desc>Created with Sketch.</desc><g transform="translate(1 6)" fill="none"><ellipse id="Oval" fill="#000" cx="69.495" cy="109.608" rx="50.658" ry="50.887"/><path d="M96.927 2.205s4.4 16.187-7.94 18.79v9.78s26.922-6.902 7.94-28.57zM132.09 198.687c-.265 0-.534-.018-.806-.056-2.36-.325-4.316-2.105-4.647-4.23-.176-1.128-.098-3.983 4.404-6.155 2.796-1.347 4.47-3.076 4.975-5.14.497-2.028-.218-3.982-.802-5.13l-12.808 14.152-1.443-1.317 14.485-16.006.707.953c.113.15 2.747 3.763 1.753 7.816-.652 2.658-2.678 4.824-6.022 6.436-2.34 1.127-3.552 2.617-3.322 4.086.198 1.272 1.482 2.387 2.988 2.596 1.524.21 2.92-.483 3.976-1.934h-4.32V192.8h7.52l-.63 1.387c-1.306 2.868-3.512 4.5-6.006 4.5z" id="Shape" fill="#000"/><path d="M121.684 32.62l13.69 14.947s5.957-7.76-3.91-12.517c-9.867-4.756 1.586-13.52 5.745-4.384h-6.004" id="Shape" stroke="#000" stroke-width="3"/><path d="M6.65 198.687c-2.487 0-4.688-1.633-5.994-4.5l-.63-1.385h7.12v1.957h-3.92c1.05 1.45 2.446 2.142 3.958 1.933 1.517-.21 2.763-1.295 2.964-2.582.23-1.473-.986-2.968-3.334-4.1-3.348-1.614-5.38-3.783-6.038-6.445-1-4.048 1.606-7.653 1.718-7.804l.71-.962 14.386 16.016-1.447 1.31-12.7-14.137c-.576 1.156-1.274 3.11-.772 5.12.516 2.063 2.194 3.792 4.988 5.14 4.513 2.175 4.59 5.037 4.415 6.167-.33 2.12-2.275 3.894-4.623 4.22-.27.035-.536.053-.8.053z" id="Shape" fill="#000"/><path d="M17.517 32.62L3.927 47.566s-5.907-7.76 3.96-12.517c9.865-4.757-1.537-13.52-5.695-4.384h5.602" id="Shape" stroke="#000" stroke-width="3"/><path d="M133.154 192.802H5.846V31.644h127.308v161.158zm-125.36-1.958h123.412V33.602H7.794v157.242zM135.752 195.41H3.248V29.688h132.504V195.41zm-131.855-.65h131.206V30.34H3.897v164.42zM96.5 30.34h-.65c0-14.355-11.655-26.1-25.98-26.1-14.327 0-25.982 11.745-25.982 26.1h-.65c0-14.355 11.947-26.75 26.63-26.75C84.554 3.59 96.5 15.984 96.5 30.34z" id="Shape" fill="#000"/><path d="M47.416 30.543v10.67s22.096 2.393 22.096 7.83.247-41.03.247-41.03c-12.328 0-22.344 10.146-22.344 22.53z" id="Shape" fill="#464646"/><path d="M69.404 8.012c12.327 0 22.18 10.147 22.18 22.53v10.67s-22.013 2.394-22.013 7.83c0 5.438-.166-41.03-.166-41.03z" id="Shape" fill="#000"/><path d="M42.723 2.205s-4.4 16.187 7.94 18.79v9.78s-26.923-6.902-7.94-28.57z" id="Shape" fill="#464646"/><path d="M55.904 24.467s4.87-6.524 10.717 0H55.905zM72.792 24.467s4.87-6.524 10.717 0H72.79zM55.98 30.564s6.375 4.995 13.52 4.995v5s-13.52-5.422-13.52-9.996zM83.02 30.564S76.646 35.56 69.5 35.56v5s13.52-5.422 13.52-9.996z" id="Shape" fill="#fff"/><path d="M78.548.015L74.58 6.072 69.56.138l-4.983 5.934L60.64.015s-3.16 10.713 1.488 12.99l7.432 2.71 7.467-2.71c4.647-2.277 1.52-12.99 1.52-12.99z" id="Shape" fill="#2974FF"/><path d="M67.394 5.624c.606-.357 1.57-.602 2.13-.53l-.494 1.868h1.03l-.498-1.882c.77.003 1.46.21 2.12.58l-1.37 1.36c.312.182.6.35.907.525.16-.605.327-1.222.5-1.862.653.39 1.156.904 1.55 1.56-.637.172-1.25.338-1.856.5l.518.893 1.342-1.38c.393.69.575 1.384.593 2.15-.635-.17-1.254-.337-1.872-.5v1.037l1.87-.5c0 .772-.183 1.477-.558 2.16-.466-.475-.917-.937-1.373-1.4l-.517.9 1.882.51c-.267.478-.597.874-1 1.207-2.503 2.07-6.232.844-7.038-2.31-.484-1.898.42-3.97 2.132-4.887.003.064 0 .127.015.188.067.273.14.542.213.813.084.31.167.623.25.923l.894-.518c-.308-.306-.62-.612-.926-.922-.152-.158-.298-.32-.446-.482zm2.15 1.607c-1.21.003-2.198.997-2.188 2.2.01 1.217.99 2.19 2.2 2.187 1.196 0 2.177-.99 2.18-2.19.002-1.207-.985-2.196-2.192-2.196zm-.81 4.572c-.277-.16-.565-.33-.863-.5-.164.615-.33 1.237-.5 1.882.47-.477.92-.933 1.365-1.382zm1.63-.007l1.356 1.376-.5-1.868-.856.493zm-4.505-4.54l1.315 1.357.502-.868-1.818-.488zm1.814 3.85c-.175-.305-.338-.592-.493-.86L65.828 11.6l1.847-.494zm2.387.782h-1.03c.164.618.33 1.237.497 1.857.013-.003.026-.003.04-.005l.494-1.853zm-2.968-2.98c-.615.163-1.234.33-1.854.498v.038l1.854.5V8.906z" id="Shape" fill="#fff"/><path d="M69.805 53.464c-.047-.07-4.9-7.11-21.714-8.065-27.52-1.565-40.9-5.926-40.9-13.103h.65c0 6.524 13.554 10.93 40.288 12.45 17.177.978 22.02 8.03 22.216 8.33l-.54.387zM69.49 53.464l-.54-.362c.197-.298 5.04-7.378 22.216-8.354 26.734-1.52 40.29-5.927 40.29-12.452h.65c0 7.177-13.38 11.538-40.904 13.103-16.812.955-21.665 7.995-21.712 8.064z" id="Shape" fill="#000"/><ellipse stroke="#000" stroke-width="2" cx="69.87" cy="53.873" rx="4.916" ry="4.938"/><g fill="#000"><path d="M7.964 175.227l-.944-1.713 14.585-8.116H70.15v1.958H22.11l-14.146 7.87zM131.887 175.224l-13.936-7.868H69.5v-1.958h48.96l14.382 8.12-.955 1.706z"/></g><path fill="#000" d="M7.613 145.766l14.98 19.8-1.558 1.18-14.982-19.8zM130.835 147.858l1.56 1.168-13.424 17.952-1.56-1.168z"/></g></svg>