<svg xmlns="http://www.w3.org/2000/svg" width="142" height="205" viewBox="0 0 142 205"><circle stroke="#B81C3D" stroke-miterlimit="10" cx="70.726" cy="6.906" r="5.072" fill="none"/><circle fill="#B81C3D" cx="70.773" cy="5.152" r="2.56"/><circle fill="#B81C3D" cx="71.229" cy="114.264" r="51.152"/><path stroke="#B81C3D" stroke-width="3" stroke-miterlimit="10" d="M124.516 197.812l13.758-15.228s5.978 8.01-4.05 12.82S135.76 209 139.985 200H134.5M124.516 36.618l13.758 15.44s5.978-8.33-4.05-13.143S135.76 26 139.985 34H134.5M18.365 197.812L4.547 182.584s-6.007 8.01 4.02 12.82S7 209 2.775 200H8.5M18.365 36.618L4.547 52.058s-6.007-8.33 4.02-13.142S7 26 2.775 34H8.5" fill="none"/><path stroke="#B81C3D" stroke-width="3" stroke-miterlimit="10" fill="none" d="M8 37h128v161H8z"/><path stroke="#B81C3D" stroke-miterlimit="10" fill="none" d="M4 33h134v168H4z"/><path clip-rule="evenodd" stroke="#B81C3D" stroke-miterlimit="10" d="M71.762 58.163s-4.83-7.262-22.322-8.25C31.946 48.922 8.184 46.28 8.184 37.04M70.892 58.163s4.83-7.262 22.322-8.25c17.492-.99 41.256-3.632 41.256-12.873" fill="none"/><circle clip-rule="evenodd" stroke="#B81C3D" stroke-width="2" stroke-miterlimit="10" cx="71.043" cy="58.148" r="4.964" fill="none"/><g stroke="#B81C3D" stroke-width="3" stroke-miterlimit="10" fill="none"><path d="M7.992 180.088L22.76 172H71.5M135.225 180.088L120.675 172H71.5"/></g><path stroke="#B81C3D" stroke-width="3" stroke-miterlimit="10" fill="none" d="M7.523 152.225l15.237 20.132M134.26 154.205l-13.586 18.152"/><path fill="#fff" d="M28.5 90.205L72 65.73l43.5 24.475v48.955L72 163.637 28.5 139.16z"/><path fill="#B81C3D" d="M71.5 165.748l-45-25.52v-51.09l45-25.52 45 25.52v51.09l-45 25.52zm-40-27.656L72 161.527l40.5-23.436V91.274L72 67.838 31.5 91.273v46.82zM56.774 83.744l1.54 2.71 19.612-11.13c-.29-1.053-.75-1.97-1.26-2.863L56.773 83.745zM55.12 80.812c.257.45.508.912.767 1.36l.92 1.62L80.16 72.176c-.562-.974-2.243-3.388-2.797-4.43L55.12 80.813zM38.663 96.818l19.315-10.96-2.35-4.134s-.977 2.395-2.55 3.578c-1.43 1.082-2.964 1.234-4.376 1.29-.58.026-3.996.116-6.69 1.66-2.408 1.372-5.773 4.753-7.304 7.473-1.435 2.563-1.86 4.395-1.86 4.395l5.815-3.302z"/><path fill="#fff" d="M44.714 92.455c-1.99-.562-3.987-1.107-5.98-1.662-.83.797-1.662 1.682-2.385 2.56l5.664 1.567 3.8-2.156c-.365-.105-.734-.21-1.1-.31z"/><path fill="#B81C3D" d="M96.237 140.2l3.136-1.89-.864-1.433-3.253 1.684zM96.206 140.146l.943 1.57 3.013-2.095-.822-1.368zM86.186 146.164c.152 1.303.263 2.615.446 3.822l10.748-6.465c.733-.444.97-1.395.53-2.13l-1.013-1.674-10.71 6.448zM93.613 137.264l-8.155 4.9c.377 1.28.577 2.672.736 4.072l10.742-6.464-1.194-1.974c-.437-.736-1.393-.976-2.13-.534zM103.77 136.254c-.32.186-.72.106-.935-.18l-3.794 2.28.642 1.065 6.658-2.132.024-.054c.32-2.075 3.43-5.095 3.572-5.18.09-.057.136-.16.125-.25l-5.997 3.612c.114.307-.003.662-.292.838zM98.44 137.354l.634 1.056 3.79-2.28c0-.002 0-.002-.006-.002-.195-.334-.088-.77.245-.97.294-.172.66-.11.884.126l5.967-3.596c-.076-.02-.155-.018-.223.023-.137.09-4.298 1.38-6.28.69l-.057.005-4.954 4.95zM92.242 146.637L64.04 162.77l-5.406-4.767 30.072-17.58zM46.5 100.79l25-14.504 25 14.505v29.02l-25 14.508-25-14.51z"/><path fill="#fff" d="M74.348 133.043h-7.09L56.03 102.53h9.755l5.05 15.82 4.99-15.82h9.756l-11.232 30.513z"/><path fill="#B81C3D" d="M105.5 123.5h-1V95.67L78.908 81.103l.702-1.195 25.89 14.966zM63.346 149.444L37.5 134.238V105.5h2v27.95l24.868 14.805z"/><path fill="#C1272D" d="M114.382 89.618l.7 1.188-17.948 10.574-.7-1.188zM50.212 125.93l.69 1.195-20.02 11.556-.69-1.193z"/><g fill="#B81C3D"><path d="M50.5 30.625v9.95s.89.184 2.078.493l18.922 7.64v-1.025c0 .048-.215.093-.207.136.016-4.396.24-38.208.24-38.208-11.55 0-21.033 9.462-21.033 21.013zM71.052 47.88c0-.02-.005-.042-.01-.06 0 .576 0 .652.01.06z"/></g><g fill="#98272D"><path d="M91.5 30.625v9.95s-.392.184-1.578.493L71.5 48.708v-1.025c0 .048-.334.093-.342.136-.014-4.396-.466-38.208-.466-38.208 11.55 0 20.808 9.462 20.808 21.013zM70.85 47.88c0-.02.006-.042.01-.06 0 .576 0 .652-.01.06z"/></g><path fill="#fff" d="M60.143 31.486c1.85.854 4.023.13 5.008-1.615l-7.024-3.245c-.69 1.88.168 4.006 2.017 4.86zM81.096 31.486c-1.85.854-4.02.13-5.008-1.615l7.026-3.245c.69 1.88-.168 4.006-2.018 4.86zM50.5 16.295l20.158-1.758L91.5 16.364v.552l-20.842-1.19-20.158 1.19z"/><path stroke="#B81C3D" stroke-miterlimit="10" d="M45.646 30.85c0-13.957 11.313-25.272 25.27-25.272s25.27 11.314 25.27 25.27" fill="none"/></svg>