<svg xmlns="http://www.w3.org/2000/svg" viewBox="0 0 118 131" enable-background="new 0 0 118 131"><g><path d="M30.99 80.372c-8.57 0-15.542-6.97-15.542-15.54S22.418 49.29 30.99 49.29c8.57 0 15.54 6.972 15.54 15.542s-6.97 15.54-15.54 15.54zm121.458-1.016c-7.45 0-13.508 6.06-13.508 13.51 0 7.447 6.06 13.505 13.508 13.505 7.45 0 13.508-6.057 13.508-13.505s-6.06-13.51-13.508-13.51z" fill="#b81c3d"/><path fill="#b81c3d" d="M104.435-1.062l1.348 1.525L31.68 66.007l-1.347-1.525z"/><path fill="#b81c3d" d="M117.655-1.056L119.003.47 44.9 66.012l-1.347-1.525z"/><path fill="#b81c3d" d="M31.76 64.372l75.084 67.348-1.358 1.514-75.084-67.348z"/><path fill="#b81c3d" d="M44.98 64.37l75.084 67.348-1.358 1.514-75.084-67.348z"/><path fill="#b81c3d" d="M.024 63.686h67.122v3.05H.024z"/></g></svg>