<svg xmlns="http://www.w3.org/2000/svg" width="704.667" height="171.999" viewBox="0 0 704.667 171.999"><path stroke="#B81C3D" stroke-width="4" stroke-miterlimit="10" fill="none" d="M348.65 169.59l-98.924-98.924h197.847z"/><path fill="#B81C3D" d="M348.833 151.525l-82.858-82.86H431.69z"/><path fill="#98272D" d="M.332 86.666h142v-14h-29.76l11.717-25H21.852l5.485 19.5z"/><path fill="#FBB03B" d="M112.573 72.666l29.76 14.013V72.665z"/><path fill="#B81C3D" d="M592.366 72.666H111.333l20.676-40h441.368z"/><path fill="#98272D" d="M704.607 86.666H562.333v-14h30.033l-11.716-25h102.437l-5.485 19.5z"/><path fill="#FBB03B" d="M592.366 72.666L562.333 86.68V72.665z"/><g stroke="#fff" stroke-width="2" stroke-miterlimit="10" fill="none"><circle cx="258.192" cy="51.404" r="8.737"/><path d="M258.333 51.666h-91"/></g><g stroke="#fff" stroke-width="2" stroke-miterlimit="10" fill="none"><circle cx="441.07" cy="51.404" r="8.737"/><path d="M441.333 51.666h91"/></g><circle fill="#fff" stroke="#B81C3D" stroke-width="2" stroke-miterlimit="10" cx="346.996" cy="59.331" r="49.663"/><g fill="#fff" stroke="#B81C3D" stroke-width="2" stroke-miterlimit="10"><path d="M366.445 26.192l13.995 13.996-63.556 63.557-15.488 1.49 1.492-15.485zM301.396 105.236l72.047-72.047"/><path d="M385.946 45.684l-24.99-24.99 5.59-5.592 24.99 24.99zM385.035 33.6L373.54 22.104l20.14-20.14 11.495 11.495zM384.96 33.564l2.854-26.366M373.536 22.1l31.52-8.715"/></g><circle fill="#B81C3D" cx="346.333" cy="59.668" r="34"/><text transform="translate(326.964 55.637)"><tspan x="0" y="0" fill="#fff" font-family="'LiGothicMed'" font-size="18.202" letter-spacing="1">即時</tspan><tspan x="0" y="21.842" fill="#fff" font-family="'LiGothicMed'" font-size="18.202" letter-spacing="1">戰況</tspan></text><circle fill="#fff" stroke="#B81C3D" stroke-width="2" stroke-miterlimit="10" cx="303.166" cy="36.229" r="5.833"/><circle fill="#fff" stroke="#B81C3D" stroke-width="2" stroke-miterlimit="10" cx="380.166" cy="96.229" r="5.833"/></svg>