<svg xmlns="http://www.w3.org/2000/svg" width="83" height="95.25" viewBox="0 0 83 95.25"><path fill="#B81C3D" d="M0 24.122L41.5.372 83 24.12v47.503l-41.5 23.75L0 71.626z"/><path fill-rule="evenodd" clip-rule="evenodd" fill="#fff" d="M32.598 81.5l8.882-7.693 8.884 7.693z"/><path fill="#fff" d="M41.996 34.5l2.385 6h21.346l2.636-6zM41.744 21.797C38.942 21.61 24.486 21.5 5.584 33.5h72.32c-18.902-12-33.358-11.89-36.16-11.703zM41.492 34.5l-2.385 6H17.763l-2.637-6zM14.06 34.5l-2.45 6h-5.9l-.126-6zM69.584 34.5l2.448 6h5.9l.127-6z"/><circle fill="#fff" cx="41.744" cy="21.3" r="2.135"/><path fill="#fff" d="M40 34.5h3v47h-3z"/></svg>