<svg xmlns="http://www.w3.org/2000/svg" width="83" height="95.25" viewBox="0 0 83 95.25"><path fill="#666" d="M0 23.872L41.5.122 83 23.87v47.503l-41.5 23.75L0 71.376z"/><path fill="#fff" d="M37.2 28.25h10.31c2.222 0 4.084-3 4.588-5H32.612c.504 2 2.367 5 4.59 5zM56.758 24.25h-3.015c-.592 3-2.778 6-5.385 6H36.264c-2.608 0-4.794-3-5.385-6h-3.017c-1.947 0-3.863 1.358-3.863 3.307v41.88c0 1.947 1.916 3.813 3.863 3.813h28.895c1.948 0 3.242-1.866 3.242-3.814v-41.88c0-1.948-1.294-3.306-3.242-3.306zM54 49.75c0 .828-.672 1.5-1.5 1.5h-21c-.828 0-1.5-.672-1.5-1.5s.672-1.5 1.5-1.5h21c.828 0 1.5.672 1.5 1.5zm0-6c0 .828-.672 1.5-1.5 1.5h-21c-.828 0-1.5-.672-1.5-1.5s.672-1.5 1.5-1.5h21c.828 0 1.5.672 1.5 1.5zm0-7c0 .828-.672 1.5-1.5 1.5h-21c-.828 0-1.5-.672-1.5-1.5s.672-1.5 1.5-1.5h21c.828 0 1.5.672 1.5 1.5z"/></svg>