<svg xmlns="http://www.w3.org/2000/svg" width="83" height="95.25" viewBox="0 0 83 95.25"><path fill="#666" d="M0 23.872L41.5.122 83 23.87v47.503l-41.5 23.75L0 71.376z"/><path fill-rule="evenodd" clip-rule="evenodd" fill="#fff" d="M64.09 20.09c1.383.316 2.335 1.258 3.264 2.24.47.496.97.962 1.438 1.457 1.414 1.487 1.6 3.847.23 5.357-1.454 1.602-3.086 3.04-4.61 4.522l-8.13-8.123c-.007.01.018-.056.06-.1 1.423-1.423 2.803-2.894 4.292-4.243.567-.514 1.386-.75 2.09-1.112h1.366zM16.684 73.33c.59-1.452 1.19-2.9 1.77-4.357.953-2.387 1.893-4.78 2.838-7.17.057-.143.117-.283.157-.38l8.123 8.134c-.045.02-.174.094-.31.147-3.72 1.477-7.443 2.95-11.166 4.425-.48.19-.96.35-1.413-.063v-.737zM33.767 64.346c-2.7-2.7-5.408-5.412-8.072-8.078C34.5 47.46 43.32 38.638 52.12 29.84l8.063 8.086-26.416 26.42z"/></svg>