<svg xmlns="http://www.w3.org/2000/svg" width="83" height="95.25" viewBox="0 0 83 95.25"><path fill="#666" d="M0 23.622L41.5-.128 83 23.62v47.503l-41.5 23.75L0 71.126z"/><g fill-rule="evenodd" clip-rule="evenodd" fill="#fff"><path d="M41.837 45.184c-5.75 0-11.5.01-17.25-.014-.632-.002-.84.153-.838.813.022 6.797.02 13.595.007 20.392 0 .522-.065 1.062-.205 1.563-.246.877-.96 1.38-1.858 1.397-.535.01-1.07.003-1.604.003-1.594 0-2.38-.776-2.38-2.35V46.665c0-.312.047-.635-.02-.932-.048-.21-.214-.484-.395-.554-1.156-.445-1.697-1.236-1.64-2.49.05-1.113.03-2.23.004-3.344-.02-.697.237-1.255.732-1.708 2.968-2.713 5.925-5.438 8.935-8.104.364-.32 1.025-.43 1.55-.432 9.938-.025 19.878-.01 29.817-.036 1.056-.002 1.777.512 2.48 1.158 2.674 2.455 5.345 4.912 8.018 7.37.53.486.83 1.066.817 1.81-.02 1.114-.034 2.23.005 3.343.042 1.194-.475 2.012-1.583 2.38-.44.146-.47.375-.47.73.005 2.005.002 4.01.002 6.017 0 5.015 0 10.028-.003 15.043 0 1.672-.767 2.426-2.447 2.423-.4 0-.802-.002-1.204 0-1.53.003-2.385-.81-2.39-2.36-.017-5.082-.01-10.164-.012-15.245 0-1.938-.023-3.878.013-5.816.012-.604-.196-.746-.77-.745-5.77.018-11.542.012-17.313.012zM57.9 52.615c0 1.536.01 3.07-.005 4.606-.01.924-.57 1.71-1.332 1.93-.93.27-1.81-.013-2.315-.845-.194-.317-.282-.748-.286-1.13-.032-3.114-.033-6.23-.042-9.346 0-.377.086-.643.56-.633.956.02 1.913.02 2.87.002.45-.01.563.192.56.607-.016 1.602-.006 3.204-.006 4.807H57.9zM25.77 52.547c0-1.558.02-3.115-.012-4.67-.01-.545.19-.7.7-.683.89.03 1.78.022 2.67.003.414-.01.622.13.62.566-.016 3.18-.002 6.362-.045 9.542-.017 1.218-.833 1.945-1.995 1.92-1.133-.022-1.915-.814-1.93-2.008-.02-1.557-.006-3.114-.006-4.67h-.003z"/></g></svg>