<svg xmlns="http://www.w3.org/2000/svg" width="83" height="95.25" viewBox="0 0 83 95.25"><path fill="#B81C3D" d="M.25 23.622l41.5-23.75 41.5 23.75v47.503l-41.5 23.75-41.5-23.75z"/><path fill="#fff" d="M37.45 28h10.31c2.222 0 4.084-3 4.588-5H32.862c.504 2 2.367 5 4.59 5zM57.008 24h-3.015c-.592 3-2.778 6-5.385 6H36.514c-2.608 0-4.794-3-5.385-6h-3.017c-1.947 0-3.863 1.358-3.863 3.307v41.88c0 1.947 1.916 3.813 3.863 3.813h28.895c1.948 0 3.242-1.866 3.242-3.814v-41.88c0-1.948-1.294-3.306-3.242-3.306zM54.25 49.5c0 .828-.672 1.5-1.5 1.5h-21c-.828 0-1.5-.672-1.5-1.5s.672-1.5 1.5-1.5h21c.828 0 1.5.672 1.5 1.5zm0-6c0 .828-.672 1.5-1.5 1.5h-21c-.828 0-1.5-.672-1.5-1.5s.672-1.5 1.5-1.5h21c.828 0 1.5.672 1.5 1.5zm0-7c0 .828-.672 1.5-1.5 1.5h-21c-.828 0-1.5-.672-1.5-1.5s.672-1.5 1.5-1.5h21c.828 0 1.5.672 1.5 1.5z"/></svg>