<svg xmlns="http://www.w3.org/2000/svg" width="83" height="95.25" viewBox="0 0 83 95.25"><path fill="#666" d="M0 23.622L41.5-.128 83 23.62v47.503l-41.5 23.75L0 71.126z"/><path fill="#fff" d="M56.596 71.142c0 5.065-4.107 9.173-9.174 9.173H36.507c-5.065 0-9.173-4.107-9.173-9.173l5.457-41.7c0-5.067 4.108-9.174 9.175-9.174 5.066 0 9.173 4.106 9.173 9.173l5.458 41.702zM47.422 17.117c0 .898-.62 1.626-1.39 1.626h-8.136c-.768 0-1.39-.728-1.39-1.626v-2.333c0-.897.622-1.625 1.39-1.625h8.137c.768 0 1.39.727 1.39 1.624v2.333z"/><path fill="#666" d="M32.385 76.816s8.825-9.754 19.275 0"/><path fill="#666" d="M44.486 22.057s4.02.924 4.694 6.836c0 0-.535 1.613-1.408.27-.872-1.342.22-3.088-3.805-5.902 0 0-.946-.944.52-1.203z"/><circle fill="#666" cx="48.7" cy="31.586" r=".754"/><path fill-rule="evenodd" clip-rule="evenodd" fill="#666" d="M41.077 64.698c-.93-.275-1.91-.44-2.78-.843-3.957-1.835-5.838-6.134-4.576-10.312.696-2.306 1.776-4.444 3.085-6.443 1.55-2.366 3.232-4.642 4.86-6.955.073-.104.17-.193.304-.346.403.516.796 1.003 1.173 1.503 2.267 3.003 4.392 6.098 5.993 9.518.684 1.46 1.29 2.954 1.43 4.584.388 4.456-2.885 8.563-7.31 9.19-.143.022-.28.068-.42.104h-1.76zm-1.945-2.944c-.298-1.415-.65-2.784-.865-4.175-.272-1.753.083-3.477.53-5.16.66-2.478 1.405-4.936 2.108-7.403.073-.26.114-.527.17-.79-.23.268-.373.56-.532.84-1.21 2.135-2.452 4.252-3.63 6.405-.937 1.72-1.622 3.51-1.212 5.546.43 2.12 1.523 3.73 3.432 4.736z"/></svg>