<?xml version="1.0" encoding="utf-8"?>
<!-- Generator: Adobe Illustrator 16.0.0, SVG Export Plug-In . SVG Version: 6.00 Build 0)  -->
<!DOCTYPE svg PUBLIC "-//W3C//DTD SVG 1.1//EN" "http://www.w3.org/Graphics/SVG/1.1/DTD/svg11.dtd">
<svg version="1.1" id="圖層_1" xmlns="http://www.w3.org/2000/svg" xmlns:xlink="http://www.w3.org/1999/xlink" x="0px" y="0px"
	 width="55.5px" height="129px" viewBox="0 0 55.5 129" enable-background="new 0 0 55.5 129" xml:space="preserve">
<g>
	<g>
		<polygon fill="#FFFFFF" points="0.5,17.996 28,2.002 55.5,17.996 55.5,49.982 28,65.975 0.5,49.982 		"/>
	</g>
	<g id="mfeLxH_4_">
		<g>
			<g>
				<g>
					<path fill-rule="evenodd" clip-rule="evenodd" fill="#B81C3D" d="M46.905,19.27c-0.4,1.956-1.699,3.039-3.547,3.473
						c-1.375,0.323-2.781,0.523-4.178,0.725c-0.949,0.138-1.686,0.516-2.355,1.242c-6.256,6.775-6.648,6.637-12.92,13.396
						c-0.387,0.416-0.73,0.883-1.024,1.367c-0.733,1.215-0.628,2.056,0.323,3.105c1.979,2.182,2.018,2.221-0.066,4.355
						c-2.986,3.057-6.604,4.904-10.883,5.357c-0.678,0.071-1.375,0.029-2.061-0.006c-1.201-0.061-1.996-0.707-2.043-1.902
						c-0.06-1.592-0.123-3.224,0.146-4.782c0.622-3.642,2.476-6.714,4.911-9.439c1-1.116,1.68-1.124,2.85-0.165
						c0.354,0.291,0.683,0.617,1.057,0.883c0.863,0.613,1.779,0.689,2.662,0.067c0.561-0.394,1.106-0.827,1.57-1.325
						c6.291-6.74,6.684-6.605,12.924-13.393c0.522-0.566,0.805-1.432,0.991-2.21c0.199-0.845,0.161-1.747,0.216-2.625
						c0.148-2.456,0.84-4.587,3.357-5.631C41.524,14.265,44.215,16.767,46.905,19.27z M38.345,14.158
						c-0.123,0.021-0.246,0.045-0.369,0.068c0.035,2.139,0.069,4.275,0.105,6.572c2.316-0.145,4.441-0.275,6.566-0.408
						c0.006-0.117,0.013-0.236,0.019-0.354C42.558,18.078,40.452,16.117,38.345,14.158z"/>
				</g>
			</g>
		</g>
	</g>
</g>
<line fill="none" stroke="#FFFFFF" stroke-miterlimit="10" x1="28" y1="56" x2="28" y2="116"/>
<circle fill="#FFFFFF" cx="27.71" cy="121.25" r="7"/>
</svg>
