<?xml version="1.0" encoding="utf-8"?>
<!-- Generator: Adobe Illustrator 16.0.0, SVG Export Plug-In . SVG Version: 6.00 Build 0)  -->
<!DOCTYPE svg PUBLIC "-//W3C//DTD SVG 1.1//EN" "http://www.w3.org/Graphics/SVG/1.1/DTD/svg11.dtd">
<svg version="1.1" id="圖層_1" xmlns="http://www.w3.org/2000/svg" xmlns:xlink="http://www.w3.org/1999/xlink" x="0px" y="0px"
	 width="55.5px" height="129px" viewBox="0 0 55.5 129" enable-background="new 0 0 55.5 129" xml:space="preserve">
<g>
	<polygon fill="#FFFFFF" points="0,18.496 28,2.502 56,18.496 56,50.482 28,66.475 0,50.482 	"/>
</g>
<line fill="none" stroke="#FFFFFF" stroke-miterlimit="10" x1="27.5" y1="56.5" x2="27.5" y2="116.5"/>
<circle fill="#FFFFFF" cx="27.71" cy="121.75" r="7"/>
<g>
	<g>
		<g>
			<g>
				<polygon fill="#B81C3D" points="14.036,26.993 17.231,37.033 38.218,37.033 41.413,26.993 35.937,26.993 35.026,32.014 
					30.981,32.014 30.527,26.993 25.458,26.993 25.155,32.014 21.425,32.014 20.489,26.993 				"/>
			</g>
		</g>
		<g>
			<g>
				<path fill="#B81C3D" d="M40.441,59.934l-12.124,6.575c0,0-13.089-7.774-13.203-7.21l-0.146,0.73l-1.462-0.294l0.149-0.732
					c0.027-0.142,2.908-14.462,3.044-18.634l0.743-0.723H38.01l0.735,0.633l3.17,19.433L40.441,59.934z"/>
			</g>
		</g>
	</g>
	<g>
		<g>
			<polyline fill="#B81C3D" points="28.198,27.934 28.257,13.559 38.672,16.723 28.257,19.785 28.257,13.559 			"/>
		</g>
		<g>
			<path fill="#B81C3D" d="M28.942,27.936l-1.491-0.008l0.065-15.373l13.757,4.179l-12.298,3.618L28.942,27.936z M29.003,14.564
				v4.227l7.067-2.082L29.003,14.564z"/>
		</g>
	</g>
</g>
</svg>
