<?xml version="1.0" encoding="utf-8"?>
<!-- Generator: Adobe Illustrator 16.0.0, SVG Export Plug-In . SVG Version: 6.00 Build 0)  -->
<!DOCTYPE svg PUBLIC "-//W3C//DTD SVG 1.1//EN" "http://www.w3.org/Graphics/SVG/1.1/DTD/svg11.dtd">
<svg version="1.1" id="圖層_1" xmlns="http://www.w3.org/2000/svg" xmlns:xlink="http://www.w3.org/1999/xlink" x="0px" y="0px"
	 width="55.5px" height="129px" viewBox="0 0 55.5 129" enable-background="new 0 0 55.5 129" xml:space="preserve">
<g>
	<polygon fill="#FFFFFF" points="0,18.496 28,2.502 56,18.496 56,50.482 28,66.475 0,50.482 	"/>
</g>
<line fill="none" stroke="#FFFFFF" stroke-miterlimit="10" x1="27.5" y1="56.5" x2="27.5" y2="116.5"/>
<circle fill="#FFFFFF" cx="27.71" cy="121.75" r="7"/>
<g>
	<g>
		<g>
			<g>
				<g>
					<g>
						
							<rect x="11.385" y="31.005" transform="matrix(0.48 0.8773 -0.8773 0.48 45.3568 -12.69)" fill="#B81C3D" width="43.996" height="1.82"/>
					</g>
				</g>
				<g>
					<g>
						
							<rect x="19.842" y="9.917" transform="matrix(0.8775 0.4796 -0.4796 0.8775 17.8473 -6.0421)" fill="#B81C3D" width="1.818" height="43.997"/>
					</g>
				</g>
			</g>
			<g>
				<g>
					
						<rect x="26.158" y="9.572" transform="matrix(0.9997 0.0247 -0.0247 0.9997 0.3594 -0.6652)" fill="#B81C3D" width="1.816" height="9.243"/>
				</g>
			</g>
		</g>
	</g>
	<g>
		<polygon fill="#B81C3D" points="27.146,20.279 10.796,51.5 43.151,51.5 		"/>
	</g>
	<g>
		<g>
			<g>
				<path fill="#FFFFFF" d="M32.2,52.834h-2.125h-6.204h-2.127V41.313c0-2.88,2.347-5.227,5.228-5.227
					c2.885,0,5.229,2.347,5.229,5.227V52.834z"/>
			</g>
		</g>
	</g>
</g>
</svg>
