<?xml version="1.0" encoding="utf-8"?>
<!-- Generator: Adobe Illustrator 16.0.0, SVG Export Plug-In . SVG Version: 6.00 Build 0)  -->
<!DOCTYPE svg PUBLIC "-//W3C//DTD SVG 1.1//EN" "http://www.w3.org/Graphics/SVG/1.1/DTD/svg11.dtd">
<svg version="1.1" id="圖層_1" xmlns="http://www.w3.org/2000/svg" xmlns:xlink="http://www.w3.org/1999/xlink" x="0px" y="0px"
	 width="174.667px" height="92.334px" viewBox="0 0 174.667 92.334" enable-background="new 0 0 174.667 92.334"
	 xml:space="preserve">
<g>
	<g>
		<polyline fill="#6C313D" points="150.999,24.334 174.704,24.334 166.876,46.567 174.704,68.334 136.999,68.334 		"/>
	</g>
	<g>
		<polyline fill="#FFFFFF" points="154.196,58.951 136.29,68.414 136.188,58.951 		"/>
		<polygon fill="#B81C3D" points="135.685,69.433 135.569,58.957 136.806,58.944 136.897,67.393 153.907,58.405 154.484,59.498 		
			"/>
	</g>
	<g>
		<rect x="13.999" y="18.334" fill="#B81C3D" width="141" height="40"/>
	</g>
	<g>
		<path fill="#B81C3D" d="M7.173,13.696L0.349,6.872l6.824-6.826l6.826,6.826L7.173,13.696z M2.146,6.872L7.173,11.9l5.029-5.028
			L7.173,1.843L2.146,6.872z"/>
	</g>
	<g>
		<polygon fill="#B81C3D" points="7.173,13.262 1.245,7.334 13.101,7.334 		"/>
	</g>
	<rect x="5.999" y="7.334" fill="#B81C3D" width="3" height="85"/>
	<g>
		<text transform="matrix(1 0 0 1 31.998 43.2158)" fill="#FFFFFF" font-family="'LiGothicMed'" font-size="18.4956">我要換任務！</text>
	</g>
</g>
</svg>
