<?xml version="1.0" encoding="utf-8"?>
<!-- Generator: Adobe Illustrator 18.1.0, SVG Export Plug-In . SVG Version: 6.00 Build 0)  -->
<svg version="1.1" id="Layer_1" xmlns="http://www.w3.org/2000/svg" xmlns:xlink="http://www.w3.org/1999/xlink" x="0px" y="0px"
	 viewBox="0 0 90 150" enable-background="new 0 0 90 150" xml:space="preserve">
<circle fill="#FFF200" stroke="#FFF200" stroke-width="6" stroke-miterlimit="10" cx="44.7" cy="44.9" r="41.4"/>
<g>
	<g>
		<polygon fill="#B91F3F" points="18.2,29.4 45.7,13.9 73.2,29.4 73.2,60.5 45.7,76.1 18.2,60.5 		"/>
	</g>
	<g>
		<g>
			<g>
				<g>
					<g>
						<g>
							
								<rect x="29.6" y="42" transform="matrix(-0.48 -0.8773 0.8773 -0.48 38.5263 108.5697)" fill="#FFFFFF" width="43.8" height="1.8"/>
						</g>
					</g>
					<g>
						<g>
							
								<rect x="38" y="21" transform="matrix(-0.8775 -0.4795 0.4795 -0.8775 52.4482 99.1216)" fill="#FFFFFF" width="1.8" height="43.8"/>
						</g>
					</g>
				</g>
				<g>
					<g>
						<polygon fill="#FFFFFF" points="46,29.9 44.2,29.8 44.4,20.6 46.2,20.7 						"/>
					</g>
				</g>
			</g>
		</g>
		<g>
			<polygon fill="#FFFFFF" points="45.2,31.1 29,62.2 61.2,62.2 			"/>
		</g>
		<g>
			<g>
				<g>
					<path fill="#B91F3F" d="M50.3,63.7h-2.1H42h-2.1V52.2c0-2.9,2.3-5.2,5.2-5.2c2.9,0,5.2,2.3,5.2,5.2L50.3,63.7z"/>
				</g>
			</g>
		</g>
	</g>
</g>
<line fill="none" stroke="#FFF200" stroke-width="6" stroke-miterlimit="10" x1="45.2" y1="86.2" x2="45.2" y2="136.7"/>
<circle fill="#FFF200" stroke="#FFF200" stroke-width="6" stroke-miterlimit="10" cx="44.9" cy="139" r="7"/>
</svg>
