<?xml version="1.0" encoding="utf-8"?>
<!-- Generator: Adobe Illustrator 18.1.0, SVG Export Plug-In . SVG Version: 6.00 Build 0)  -->
<svg version="1.1" id="Layer_1" xmlns="http://www.w3.org/2000/svg" xmlns:xlink="http://www.w3.org/1999/xlink" x="0px" y="0px"
	 viewBox="0 0 90 150" enable-background="new 0 0 90 150" xml:space="preserve">
<circle fill="#FFF200" stroke="#FFF200" stroke-width="6" stroke-miterlimit="10" cx="44.7" cy="44.9" r="41.4"/>
<g>
	<g>
		<polygon fill="#B91F3F" points="18.2,29.4 45.7,13.9 73.2,29.4 73.2,60.5 45.7,76.1 18.2,60.5 		"/>
	</g>
	<g>
		<g>
			<g>
				<g>
					<polygon fill="#FFFFFF" points="31,33.5 34.2,43.5 55.2,43.5 58.4,33.5 52.9,33.5 52,38.5 48,38.5 47.5,33.5 42.5,33.5 
						42.2,38.5 38.4,38.5 37.5,33.5 					"/>
				</g>
			</g>
			<g>
				<g>
					<path fill="#FFFFFF" d="M57.4,66.4L45.3,73c0,0-13.1-7.8-13.2-7.2L32,66.5l-1.5-0.3l0.1-0.7c0-0.1,2.9-14.5,3-18.6l0.7-0.7H55
						l0.7,0.6l3.2,19.4L57.4,66.4z"/>
				</g>
			</g>
		</g>
		<g>
			<g>
				<polyline fill="#FFFFFF" points="45.2,34.4 45.3,20.1 55.7,23.2 45.3,26.3 45.3,20.1 				"/>
			</g>
			<g>
				<path fill="#FFFFFF" d="M45.9,34.4l-1.5,0l0.1-15.4l13.8,4.2L46,26.9L45.9,34.4z M46,21.1v4.2l7.1-2.1L46,21.1z"/>
			</g>
		</g>
	</g>
</g>
<line fill="none" stroke="#FFF200" stroke-width="6" stroke-miterlimit="10" x1="45.2" y1="86.2" x2="45.2" y2="136.7"/>
<circle fill="#FFF200" stroke="#FFF200" stroke-width="6" stroke-miterlimit="10" cx="44.9" cy="139" r="7"/>
</svg>
