<?xml version="1.0" encoding="utf-8"?>
<!-- Generator: Adobe Illustrator 18.1.0, SVG Export Plug-In . SVG Version: 6.00 Build 0)  -->
<svg version="1.1" id="Layer_1" xmlns="http://www.w3.org/2000/svg" xmlns:xlink="http://www.w3.org/1999/xlink" x="0px" y="0px"
	 viewBox="0 0 90 150" enable-background="new 0 0 90 150" xml:space="preserve">
<circle fill="#FFFFFF" stroke="#FFF200" stroke-width="6" stroke-miterlimit="10" cx="44.7" cy="44.9" r="41.4"/>
<g>
	<g>
		<polygon fill="#B91F3F" points="18.2,29.4 45.7,13.9 73.2,29.4 73.2,60.5 45.7,76.1 18.2,60.5 		"/>
	</g>
	<g id="mfeLxH_3_">
		<g>
			<g>
				<g>
					<path fill="#FFFFFF" d="M64.3,30.7c-0.4,1.9-1.7,3-3.5,3.4c-1.3,0.3-2.7,0.5-4.1,0.7c-0.9,0.1-1.6,0.5-2.3,1.2
						c-6.1,6.6-6.5,6.5-12.6,13c-0.4,0.4-0.7,0.9-1,1.3c-0.7,1.2-0.6,2,0.3,3c1.9,2.1,2,2.2-0.1,4.2c-2.9,3-6.4,4.8-10.6,5.2
						c-0.7,0.1-1.3,0-2,0c-1.2-0.1-1.9-0.7-2-1.8c-0.1-1.5-0.1-3.1,0.1-4.7c0.6-3.5,2.4-6.5,4.8-9.2c1-1.1,1.6-1.1,2.8-0.2
						c0.3,0.3,0.7,0.6,1,0.9c0.8,0.6,1.7,0.7,2.6,0.1c0.5-0.4,1.1-0.8,1.5-1.3c6.1-6.6,6.5-6.4,12.6-13c0.5-0.5,0.8-1.4,1-2.1
						c0.2-0.8,0.2-1.7,0.2-2.6c0.1-2.4,0.8-4.5,3.3-5.5C59,25.8,61.7,28.2,64.3,30.7z M56,25.7c-0.1,0-0.2,0-0.4,0.1
						c0,2.1,0.1,4.2,0.1,6.4c2.3-0.1,4.3-0.3,6.4-0.4c0-0.1,0-0.2,0-0.3C60,29.5,58,27.6,56,25.7z"/>
				</g>
			</g>
		</g>
	</g>
</g>
<line fill="none" stroke="#FFF200" stroke-width="6" stroke-miterlimit="10" x1="45.2" y1="86.2" x2="45.2" y2="136.7"/>
<circle fill="#FFFFFF" stroke="#FFF200" stroke-width="6" stroke-miterlimit="10" cx="44.9" cy="139" r="7"/>
</svg>
