<?xml version="1.0" encoding="utf-8"?>
<!-- Generator: Adobe Illustrator 18.1.0, SVG Export Plug-In . SVG Version: 6.00 Build 0)  -->
<svg version="1.1" id="圖層_1" xmlns="http://www.w3.org/2000/svg" xmlns:xlink="http://www.w3.org/1999/xlink" x="0px" y="0px"
	 viewBox="293 -21 704.7 172" enable-background="new 293 -21 704.7 172" xml:space="preserve">
<polygon fill="none" stroke="#B81C3D" stroke-width="4" stroke-miterlimit="10" points="642.6,148.6 543.7,49.7 741.6,49.7 "/>
<polygon fill="#B81C3D" points="642.8,130.5 560,47.7 725.7,47.7 "/>
<polygon fill="#98272D" points="293.3,65.7 435.3,65.7 435.3,51.7 405.6,51.7 417.3,26.7 314.9,26.7 320.3,46.2 "/>
<polygon fill="#FBB03B" points="405.6,51.7 435.3,65.7 435.3,51.7 "/>
<polygon fill="#B81C3D" points="885.4,51.7 404.3,51.7 425,11.7 866.4,11.7 "/>
<polygon fill="#98272D" points="997.6,65.7 855.3,65.7 855.3,51.7 885.4,51.7 873.7,26.7 976.1,26.7 970.6,46.2 "/>
<polygon fill="#FBB03B" points="885.4,51.7 855.3,65.7 855.3,51.7 "/>
<g>
	<circle fill="none" stroke="#FFFFFF" stroke-width="2" stroke-miterlimit="10" cx="551.2" cy="30.4" r="8.7"/>
	<line fill="none" stroke="#FFFFFF" stroke-width="2" stroke-miterlimit="10" x1="551.3" y1="30.7" x2="460.3" y2="30.7"/>
</g>
<g>
	<circle fill="none" stroke="#FFFFFF" stroke-width="2" stroke-miterlimit="10" cx="734.1" cy="30.4" r="8.7"/>
	<line fill="none" stroke="#FFFFFF" stroke-width="2" stroke-miterlimit="10" x1="734.3" y1="30.7" x2="825.3" y2="30.7"/>
</g>
<g>
	<circle fill="#FFFFFF" stroke="#B81C3D" stroke-width="2" stroke-miterlimit="10" cx="640" cy="38.3" r="49.7"/>
	<g>
		<polygon fill="#FFFFFF" stroke="#B81C3D" stroke-width="2" stroke-miterlimit="10" points="659.4,5.2 673.4,19.2 609.9,82.7 
			594.4,84.2 595.9,68.8 		"/>
		<line fill="none" stroke="#B81C3D" stroke-width="2" stroke-miterlimit="10" x1="594.4" y1="84.2" x2="666.4" y2="12.2"/>
		
			<rect x="651.6" y="5.4" transform="matrix(0.7071 0.7071 -0.7071 0.7071 202.6603 -470.4775)" fill="#FFFFFF" stroke="#B81C3D" stroke-width="2" stroke-miterlimit="10" width="35.3" height="7.9"/>
		
			<rect x="674.2" y="-17.5" transform="matrix(0.7071 0.7071 -0.7071 0.7071 197.5826 -483.4414)" fill="#FFFFFF" stroke="#B81C3D" stroke-width="2" stroke-miterlimit="10" width="16.3" height="28.5"/>
		<line fill="none" stroke="#B81C3D" stroke-width="2" stroke-miterlimit="10" x1="678" y1="12.6" x2="680.8" y2="-13.8"/>
		<line fill="none" stroke="#B81C3D" stroke-width="2" stroke-miterlimit="10" x1="666.5" y1="1.1" x2="698.1" y2="-7.6"/>
	</g>
	<circle fill="#B81C3D" cx="639.3" cy="38.7" r="34"/>
	<text transform="matrix(1 0 0 1 619.9639 33.3)" fill="#FFFFFF" font-family="'LiGothicMed'" font-size="18.2017">即時</text>
	<text transform="matrix(1 0 0 1 619.9639 55.142)" fill="#FFFFFF" font-family="'LiGothicMed'" font-size="18.2017">戰況</text>
	<circle fill="#FFFFFF" stroke="#B81C3D" stroke-width="2" stroke-miterlimit="10" cx="596.2" cy="15.2" r="5.8"/>
	<circle fill="#FFFFFF" stroke="#B81C3D" stroke-width="2" stroke-miterlimit="10" cx="673.2" cy="75.2" r="5.8"/>
</g>
</svg>
