<?xml version="1.0" encoding="UTF-8" standalone="no"?>
<svg width="142px" height="205px" viewBox="0 0 142 205" version="1.1" xmlns="http://www.w3.org/2000/svg" xmlns:xlink="http://www.w3.org/1999/xlink" xmlns:sketch="http://www.bohemiancoding.com/sketch/ns">
    <!-- Generator: Sketch 3.1.1 (8761) - http://www.bohemiancoding.com/sketch -->
    <title>Artboard 1</title>
    <desc>Created with Sketch.</desc>
    <defs></defs>
    <g id="Page-1" stroke="none" stroke-width="1" fill="none" fill-rule="evenodd" sketch:type="MSPage">
        <g id="Artboard-1" sketch:type="MSArtboardGroup">
            <g id="Group" sketch:type="MSLayerGroup" transform="translate(1.000000, 6.000000)">
                <ellipse id="Oval" fill="#000000" sketch:type="MSShapeGroup" cx="69.4948037" cy="109.607895" rx="50.6583551" ry="50.8865836"></ellipse>
                <path d="M96.9265187,2.20465902 C96.9265187,2.20465902 101.327103,18.3915148 88.9859813,20.9948262 L88.9859813,30.773882 C88.9859813,30.773882 115.909112,23.8734754 96.9265187,2.20465902 L96.9265187,2.20465902 Z" id="Shape" fill="#000000" sketch:type="MSShapeGroup"></path>
                <path d="M132.090271,198.687472 C131.824612,198.687472 131.555706,198.669203 131.284201,198.631361 C128.9225,198.305131 126.968056,196.52457 126.637444,194.399511 C126.461421,193.272062 126.538715,190.416902 131.041276,188.244866 C133.836215,186.89819 135.509411,185.168521 136.014748,183.105446 C136.51229,181.076951 135.796505,179.122836 135.213224,177.973856 L122.405089,192.126997 L120.962477,190.810334 L135.447056,174.80421 L136.154397,175.7568 C136.266766,175.90817 138.900621,179.520184 137.906836,183.573259 C137.255355,186.231377 135.229463,188.396889 131.885019,190.009115 C129.544103,191.137216 128.332724,192.627433 128.562659,194.096118 C128.760766,195.367761 130.044893,196.483466 131.550509,196.692252 C133.074313,196.902344 134.471458,196.209433 135.52565,194.758364 L131.205607,194.758364 L131.205607,192.800987 L138.725248,192.800987 L138.094551,194.18681 C136.78964,197.05502 134.583827,198.687472 132.090271,198.687472 L132.090271,198.687472 Z" id="Shape" fill="#000000" sketch:type="MSShapeGroup"></path>
                <path d="M121.684107,32.6190361 L135.373009,47.5668721 C135.373009,47.5668721 141.330523,39.807177 131.462822,35.0500984 C121.59707,30.2936721 133.05028,21.5311475 137.208589,30.6655738 L131.205607,30.6655738" id="Shape" stroke="#000000" stroke-width="3" sketch:type="MSShapeGroup"></path>
                <path d="M6.64861682,198.687472 C4.16285514,198.687472 1.96158879,197.054367 0.656028037,194.187462 L0.0259813084,192.801639 L7.14485981,192.801639 L7.14485981,194.759016 L3.22492991,194.759016 C4.2771729,196.20878 5.67171963,196.901692 7.18448131,196.692905 C8.70114019,196.483466 9.94694393,195.397774 10.1476495,194.111125 C10.3775841,192.636567 9.16230841,191.142436 6.81424766,190.01042 C3.46590654,188.395584 1.43481776,186.22681 0.776191589,183.564777 C-0.224088785,179.516921 2.38248598,175.912085 2.49420561,175.760715 L3.20284579,174.797685 L17.5899953,190.813597 L16.143486,192.125039 L3.44252336,177.986905 C2.86703738,179.143062 2.16878972,181.097177 2.6708785,183.106751 C3.18595794,185.169826 4.86370093,186.898843 7.65799065,188.245518 C12.1709439,190.422121 12.2482383,193.284459 12.0728645,194.413866 C11.7422523,196.533705 9.79820093,198.307741 7.45014019,198.632666 C7.18058411,198.669203 6.91362617,198.687472 6.64861682,198.687472 L6.64861682,198.687472 Z" id="Shape" fill="#000000" sketch:type="MSShapeGroup"></path>
                <path d="M17.5165981,32.6190361 L3.92707477,47.5668721 C3.92707477,47.5668721 -1.98042523,39.807177 7.88597664,35.0500984 C17.7523785,30.2930197 6.35048131,21.5311475 2.1921729,30.6655738 L7.79439252,30.6655738" id="Shape" stroke="#000000" stroke-width="3" sketch:type="MSShapeGroup"></path>
                <path d="M133.154206,192.801639 L5.84579439,192.801639 L5.84579439,31.6442623 L133.154206,31.6442623 L133.154206,192.801639 L133.154206,192.801639 Z M7.79439252,190.844262 L131.205607,190.844262 L131.205607,33.6016393 L7.79439252,33.6016393 L7.79439252,190.844262 L7.79439252,190.844262 Z" id="Shape" fill="#000000" sketch:type="MSShapeGroup"></path>
                <path d="M135.752336,195.411475 L3.24766355,195.411475 L3.24766355,29.6868852 L135.752336,29.6868852 L135.752336,195.411475 L135.752336,195.411475 Z M3.89719626,194.759016 L135.102804,194.759016 L135.102804,30.3393443 L3.89719626,30.3393443 L3.89719626,194.759016 L3.89719626,194.759016 Z" id="Shape" fill="#000000" sketch:type="MSShapeGroup"></path>
                <path d="M96.4997757,30.3393443 L95.850243,30.3393443 C95.850243,15.9852459 84.195028,4.24098361 69.8689346,4.24098361 C55.5428411,4.24098361 43.8876262,15.9852459 43.8876262,30.3393443 L43.2380935,30.3393443 C43.2380935,15.9852459 55.1849486,3.58852459 69.8689346,3.58852459 C84.5529206,3.58852459 96.4997757,15.9852459 96.4997757,30.3393443 L96.4997757,30.3393443 Z" id="Shape" fill="#000000" sketch:type="MSShapeGroup"></path>
                <path d="M47.4158879,30.5429115 L47.4158879,41.2132262 C47.4158879,41.2132262 69.5116916,43.6064459 69.5116916,49.0427344 C69.5116916,54.4803279 69.7591636,8.01154426 69.7591636,8.01154426 C57.4316822,8.01154426 47.4158879,18.1592393 47.4158879,30.5429115 Z" id="Shape" fill="#464646" sketch:type="MSShapeGroup"></path>
                <path d="M69.4038692,8.01154426 C81.7313505,8.01154426 91.5841121,18.1592393 91.5841121,30.5429115 L91.5841121,41.2132262 C91.5841121,41.2132262 69.5707991,43.6064459 69.5707991,49.0427344 C69.5707991,54.4803279 69.4038692,8.01154426 69.4038692,8.01154426 L69.4038692,8.01154426 Z" id="Shape" fill="#000000" sketch:type="MSShapeGroup"></path>
                <path d="M42.723014,2.20465902 C42.723014,2.20465902 38.3224299,18.3915148 50.6635514,20.9948262 L50.6635514,30.773882 C50.6635514,30.773882 23.7404206,23.8734754 42.723014,2.20465902 L42.723014,2.20465902 Z" id="Shape" fill="#464646" sketch:type="MSShapeGroup"></path>
                <path d="M55.9039813,24.4672131 C55.9039813,24.4672131 60.7754766,17.942623 66.621271,24.4672131 L55.9039813,24.4672131 L55.9039813,24.4672131 Z" id="Shape" fill="#FFFFFF" sketch:type="MSShapeGroup"></path>
                <path d="M72.7918318,24.4672131 C72.7918318,24.4672131 77.6633271,17.942623 83.5091215,24.4672131 L72.7918318,24.4672131 L72.7918318,24.4672131 Z" id="Shape" fill="#FFFFFF" sketch:type="MSShapeGroup"></path>
                <path d="M55.9786776,30.5637902 C55.9786776,30.5637902 62.3551402,35.5590164 69.5,35.5590164 L69.5,40.5607672 C69.5,40.5607672 55.9786776,35.1381803 55.9786776,30.5637902 L55.9786776,30.5637902 Z" id="Shape" fill="#FFFFFF" sketch:type="MSShapeGroup"></path>
                <path d="M83.0213224,30.5637902 C83.0213224,30.5637902 76.6448598,35.5590164 69.5,35.5590164 L69.5,40.5607672 C69.5,40.5607672 83.0213224,35.1381803 83.0213224,30.5637902 L83.0213224,30.5637902 Z" id="Shape" fill="#FFFFFF" sketch:type="MSShapeGroup"></path>
                <path d="M78.5479907,0.0150065574 L74.5799953,6.07178361 L69.5610561,0.138321311 L64.5765421,6.07178361 L60.6410234,0.0150065574 C60.6410234,0.0150065574 57.4810467,10.7283836 62.1278037,13.0054656 L69.5604065,15.7144754 L77.0274346,13.0054656 C81.6735421,10.7283836 78.5479907,0.0150065574 78.5479907,0.0150065574 L78.5479907,0.0150065574 Z" id="Shape" fill="#2974FF" sketch:type="MSShapeGroup"></path>
                <path d="M67.394215,5.62354426 C67.9995794,5.26664918 68.964785,5.02197705 69.5240327,5.0944 C69.3590514,5.7201082 69.1940701,6.34190164 69.0303879,6.96239016 L70.0605467,6.96239016 C69.8968645,6.34581639 69.7331822,5.72728525 69.5617056,5.0800459 C70.3320514,5.08265574 71.0205561,5.28883279 71.6830794,5.65877705 C71.2199626,6.11876066 70.7646402,6.56960984 70.3106168,7.02111148 C70.6236916,7.20184262 70.9133832,7.36887213 71.2186636,7.54503607 C71.3810467,6.9395541 71.5473271,6.32298033 71.7194533,5.68291803 C72.3728832,6.07308852 72.876271,6.58657377 73.2698879,7.24294754 C72.6333458,7.41519672 72.0188879,7.58092131 71.4141729,7.74403607 C71.5895467,8.04481967 71.7538785,8.33124918 71.9318505,8.63594754 C72.3670374,8.18966557 72.8113178,7.7322918 73.273785,7.25730164 C73.6667523,7.9456459 73.8486215,8.6398623 73.8674579,9.40454426 C73.2315654,9.23490492 72.6125607,9.06918033 71.9948551,8.90476066 L71.9948551,9.94347541 C72.6060654,9.77905574 73.2244206,9.61463607 73.8661589,9.44238689 C73.8635607,10.2148984 73.6823411,10.9195541 73.3069112,11.6026787 C72.8411963,11.128341 72.389771,10.6657475 71.9344486,10.2025016 C71.7584252,10.5098098 71.5921449,10.7988492 71.416771,11.1035475 C72.0292804,11.2692721 72.6547804,11.4389115 73.2991168,11.613118 C73.0328084,12.090718 72.7028458,12.4874131 72.300785,12.8201672 C69.797486,14.8897672 66.0678692,13.6637967 65.2624486,10.5085049 C64.7778972,8.61245902 65.6820467,6.54024918 67.3935654,5.6228918 C67.3974626,5.68683279 67.3935654,5.75012131 67.4085047,5.81145246 C67.4767056,6.08287541 67.5507523,6.35168852 67.6228505,6.62311148 C67.7066402,6.93433443 67.7904299,7.24620984 67.8716215,7.54568852 C68.1762523,7.36952459 68.4639953,7.20314754 68.7673271,7.02828852 C68.4587991,6.72228525 68.1470234,6.41628197 67.8410935,6.10571148 C67.6884533,5.94846885 67.5423084,5.7853541 67.394215,5.62354426 L67.394215,5.62354426 Z M69.5441682,7.23055082 C68.3353879,7.23316066 67.3455,8.22685574 67.3558925,9.42999016 C67.366285,10.6468262 68.3451308,11.6202951 69.5558598,11.6170328 C70.7522991,11.6157279 71.7330935,10.6279049 71.7350421,9.42672787 C71.7376402,8.21967869 70.751,7.23055082 69.5441682,7.23055082 L69.5441682,7.23055082 Z M68.7348505,11.8016787 C68.4568505,11.6411738 68.1691075,11.4728393 67.870972,11.3005902 C67.7059907,11.9171639 67.5397103,12.5389574 67.3688832,13.1842393 C67.8391449,12.7066393 68.2899206,12.251223 68.7348505,11.8016787 L68.7348505,11.8016787 Z M70.3638785,11.7951541 C70.8042617,12.2414361 71.2543879,12.6988098 71.7201028,13.1711902 C71.5499252,12.5376525 71.3836449,11.9171639 71.2193131,11.3018951 C70.9185794,11.4754492 70.6340841,11.6398689 70.3638785,11.7951541 L70.3638785,11.7951541 Z M65.8593692,7.25599672 C66.2958551,7.70554098 66.7420841,8.16617705 67.1746729,8.61180656 C67.3370561,8.33124918 67.5020374,8.04481967 67.6767617,7.74403607 C67.0681495,7.58092131 66.4491449,7.4138918 65.8593692,7.25599672 L65.8593692,7.25599672 Z M67.6741636,11.1055049 C67.4987897,10.7995016 67.335757,10.5130721 67.1805187,10.244259 C66.7414346,10.6840164 66.2874112,11.1387803 65.8268925,11.6013738 C66.4426495,11.4356492 67.057757,11.2699246 67.6741636,11.1055049 L67.6741636,11.1055049 Z M70.0605467,11.8871508 L69.0290888,11.8871508 C69.1940701,12.5050295 69.3603505,13.1235607 69.5266308,13.7440492 C69.5396215,13.7414393 69.5532617,13.7414393 69.5669019,13.7388295 C69.7318832,13.1216033 69.8955654,12.5037246 70.0605467,11.8871508 L70.0605467,11.8871508 Z M67.0921822,8.90606557 C66.4770748,9.07048525 65.8580701,9.23751475 65.2384159,9.40454426 C65.2371168,9.41759344 65.2371168,9.42999016 65.2371168,9.44303934 C65.8574206,9.61006885 66.4777243,9.77709836 67.0915327,9.94282295 C67.0921822,9.58788525 67.0921822,9.26426557 67.0921822,8.90606557 L67.0921822,8.90606557 Z" id="Shape" fill="#FFFFFF" sketch:type="MSShapeGroup"></path>
                <path d="M69.8046308,53.4644492 C69.7578645,53.3946361 64.9045561,46.3552557 48.0914019,45.3994033 C20.5687523,43.8348066 7.18902804,39.4737705 7.18902804,32.2967213 L7.83856075,32.2967213 C7.83856075,38.8213115 21.3936589,43.2280197 48.1277757,44.7482492 C65.3046682,45.7249803 70.1469346,52.7780623 70.3443925,53.0762361 L69.8046308,53.4644492 L69.8046308,53.4644492 Z" id="Shape" fill="#000000" sketch:type="MSShapeGroup"></path>
                <path d="M69.4896075,53.4644492 L68.9491963,53.1023344 C69.1466542,52.8041607 73.9889206,45.7243279 91.1658131,44.7475967 C117.89993,43.2273672 131.455028,38.820659 131.455028,32.2960689 L132.104561,32.2960689 C132.104561,39.473118 118.724836,43.8341541 91.2021869,45.3987508 C74.3896822,46.3552557 69.5370234,53.3946361 69.4896075,53.4644492 L69.4896075,53.4644492 Z" id="Shape" fill="#000000" sketch:type="MSShapeGroup"></path>
                <ellipse id="Oval" stroke="#000000" stroke-width="2" sketch:type="MSShapeGroup" cx="69.8695841" cy="53.8728885" rx="4.91631308" ry="4.9384623"></ellipse>
                <g transform="translate(7.144860, 165.724590)" id="Shape" fill="#000000" sketch:type="MSShapeGroup">
                    <path d="M0.819060748,9.50241311 L-0.12471028,7.7897082 L14.4605467,-0.326229508 L63.0046729,-0.326229508 L63.0046729,1.63114754 L14.9639346,1.63114754 L0.819060748,9.50241311 Z"></path>
                    <path d="M124.742107,9.49980328 L110.806383,1.63114754 L62.3551402,1.63114754 L62.3551402,-0.326229508 L111.316266,-0.326229508 L125.69757,7.79297049 L124.742107,9.49980328 Z"></path>
                </g>
                <rect id="Rectangle-path" fill="#000000" sketch:type="MSShapeGroup" transform="translate(14.323325, 156.256969) rotate(52.880299) translate(-14.323325, -156.256969) " x="1.90064523" y="155.278252" width="24.8453592" height="1.9574348"></rect>
                <rect id="Rectangle-path" fill="#000000" sketch:type="MSShapeGroup" transform="translate(124.901551, 157.418486) rotate(36.796562) translate(-124.901551, -157.418486) " x="123.927212" y="146.212372" width="1.94867767" height="22.4122296"></rect>
            </g>
        </g>
    </g>
</svg>