<?xml version="1.0" encoding="utf-8"?>
<!-- Generator: Adobe Illustrator 16.0.0, SVG Export Plug-In . SVG Version: 6.00 Build 0)  -->
<!DOCTYPE svg PUBLIC "-//W3C//DTD SVG 1.1//EN" "http://www.w3.org/Graphics/SVG/1.1/DTD/svg11.dtd">
<svg version="1.1" id="圖層_1" xmlns="http://www.w3.org/2000/svg" xmlns:xlink="http://www.w3.org/1999/xlink" x="0px" y="0px"
	 width="709px" height="55px" viewBox="0 0 709 55" enable-background="new 0 0 709 55" xml:space="preserve">
<g>
	<polygon fill="#98272D" points="2.249,54 144,54 144,40 114.49,40 126.206,15 23.77,15 29.255,34.5 	"/>
	<polygon fill="#FBB03B" points="114.49,40 144,53.761 144,40 	"/>
	<polygon fill="#B81C3D" points="594.283,40 113.25,40 133.926,0 575.295,0 	"/>
	<polygon fill="#98272D" points="706.524,54 564,54 564,40 594.283,40 582.567,15 685.004,15 679.519,34.5 	"/>
	<polygon fill="#FBB03B" points="594.283,40 564,53.761 564,40 	"/>
	<g>
		<text transform="matrix(1 0 0 1 312 25.584)" fill="#FFFFFF" font-family="'LiGothicMed'" font-size="21.9555">即時戰況</text>
	</g>
	<g>
		<circle fill="none" stroke="#FFFFFF" stroke-width="2" stroke-miterlimit="10" cx="252.109" cy="18.486" r="8.737"/>
		<line fill="none" stroke="#FFFFFF" stroke-width="2" stroke-miterlimit="10" x1="252" y1="19" x2="161" y2="19"/>
	</g>
	<g>
		<circle fill="none" stroke="#FFFFFF" stroke-width="2" stroke-miterlimit="10" cx="462.987" cy="18.486" r="8.737"/>
		<line fill="none" stroke="#FFFFFF" stroke-width="2" stroke-miterlimit="10" x1="463" y1="19" x2="554" y2="19"/>
	</g>
</g>
</svg>
