<?xml version="1.0" encoding="utf-8"?>
<!-- Generator: Adobe Illustrator 16.0.0, SVG Export Plug-In . SVG Version: 6.00 Build 0)  -->
<!DOCTYPE svg PUBLIC "-//W3C//DTD SVG 1.1//EN" "http://www.w3.org/Graphics/SVG/1.1/DTD/svg11.dtd">
<svg version="1.1" id="圖層_1" xmlns="http://www.w3.org/2000/svg" xmlns:xlink="http://www.w3.org/1999/xlink" x="0px" y="0px"
	 width="142px" height="205px" viewBox="0 0 142 205" enable-background="new 0 0 142 205" xml:space="preserve">
<g>
	<circle fill="#B81C3D" cx="69.214" cy="113.764" r="51.152"/>
	<path fill="#B81C3D" d="M99.569,5.986c0,0,3.931,16.376-8.069,19.009v9.895C91.5,34.89,118.86,27.908,99.569,5.986z"/>
	<path fill="none" stroke="#B81C3D" stroke-width="3" stroke-miterlimit="10" d="M123.861,197.312l13.931-15.228
		c0,0,6.064,8.009-3.962,12.821s1.621,13.595,5.848,4.595H133.5"/>
	<path fill="none" stroke="#B81C3D" stroke-width="3" stroke-miterlimit="10" d="M123.861,36.118l13.931,15.44
		c0,0,6.064-8.33-3.962-13.143s1.621-12.916,5.848-4.916H133.5"/>
	<path fill="none" stroke="#B81C3D" stroke-width="3" stroke-miterlimit="10" d="M18.211,197.312L4.315,182.084
		c0,0-6.045,8.009,3.981,12.821S6.693,208.5,2.467,199.5H8.5"/>
	<path fill="none" stroke="#B81C3D" stroke-width="3" stroke-miterlimit="10" d="M18.211,36.118L4.315,51.559
		c0,0-6.045-8.33,3.981-13.143S6.693,25.5,2.467,33.5H8.5"/>
	<rect x="7" y="36.5" fill="none" stroke="#B81C3D" stroke-width="3" stroke-miterlimit="10" width="128" height="161"/>
	<rect x="4" y="32.5" fill="none" stroke="#B81C3D" stroke-miterlimit="10" width="134" height="168"/>
	<path fill="none" stroke="#B81C3D" stroke-miterlimit="10" d="M44.51,34.567c0-14.765,11.97-26.733,26.734-26.733
		c14.764,0,26.733,11.969,26.733,26.733"/>
	<path fill="#B81C3D" d="M71.17,11.861c-12.529,0-22.67,10.266-22.67,22.794v10.796c0,0,22.436,2.421,22.436,7.922
		C70.936,58.873,71.17,11.861,71.17,11.861z"/>
	<path fill="#98272D" d="M70.865,11.861c12.527,0,22.635,10.266,22.635,22.794v10.796c0,0-22.418,2.421-22.418,7.922
		C71.082,58.873,70.865,11.861,70.865,11.861z"/>
	<path fill="#B81C3D" d="M44.431,5.986c0,0-4.931,16.376,8.069,19.009v9.895C52.5,34.89,25.14,27.908,44.431,5.986z"/>
	<path fill="#FFFFFF" d="M57.052,28c0,0,4.95-7,10.892,0H57.052z"/>
	<path fill="#FFFFFF" d="M74.215,28c0,0,4.949-7,10.891,0H74.215z"/>
	<path fill="#FFFFFF" d="M57.759,34.678c0,0,5.741,5.053,13.741,5.053v5.061C71.5,44.791,57.759,39.305,57.759,34.678z"/>
	<path fill="#FFFFFF" d="M85.241,34.678c0,0-6.741,5.053-13.741,5.053v5.061C71.5,44.791,85.241,39.305,85.241,34.678z"/>
	<path fill="#2974FF" d="M80.064,3.771l-4.033,6.128l-5.1-6.003l-5.066,6.003l-4-6.128c0,0-3.211,10.839,1.512,13.142l7.555,2.741
		l7.588-2.741C83.24,14.61,80.064,3.771,80.064,3.771z"/>
	<path fill-rule="evenodd" clip-rule="evenodd" fill="#FFFFFF" d="M68.729,9.445c0.615-0.361,1.596-0.608,2.165-0.534
		c-0.168,0.632-0.335,1.261-0.501,1.89c0.35,0,0.689,0,1.046,0c-0.167-0.625-0.333-1.25-0.507-1.904
		c0.783,0.002,1.483,0.211,2.156,0.586c-0.471,0.463-0.934,0.92-1.396,1.377c0.318,0.184,0.612,0.352,0.923,0.53
		c0.165-0.612,0.334-1.236,0.51-1.884c0.664,0.395,1.176,0.914,1.575,1.578c-0.647,0.174-1.271,0.342-1.886,0.507
		c0.178,0.305,0.346,0.593,0.525,0.903c0.442-0.451,0.894-0.915,1.365-1.396c0.398,0.696,0.582,1.399,0.603,2.173
		c-0.646-0.172-1.275-0.339-1.903-0.506c0,0.354,0,0.687,0,1.051c0.621-0.165,1.25-0.333,1.902-0.506
		c-0.003,0.78-0.187,1.494-0.569,2.184c-0.472-0.479-0.932-0.946-1.395-1.416c-0.179,0.312-0.349,0.604-0.525,0.912
		c0.622,0.167,1.257,0.339,1.912,0.516c-0.271,0.483-0.604,0.884-1.015,1.22c-2.543,2.094-6.334,0.854-7.152-2.338
		C66.07,12.469,66.99,10.371,68.729,9.445c0.004,0.062,0,0.127,0.016,0.189c0.069,0.274,0.145,0.547,0.218,0.821
		c0.085,0.315,0.171,0.63,0.253,0.934c0.309-0.179,0.602-0.347,0.91-0.524c-0.313-0.31-0.63-0.619-0.941-0.933
		C69.027,9.774,68.879,9.608,68.729,9.445z M70.914,11.07c-1.229,0.003-2.234,1.009-2.225,2.225
		c0.011,1.232,1.006,2.218,2.236,2.213c1.215-0.001,2.212-1,2.215-2.215C73.144,12.07,72.141,11.07,70.914,11.07z M70.092,15.695
		c-0.282-0.162-0.576-0.332-0.879-0.507c-0.168,0.625-0.336,1.253-0.51,1.905C69.182,16.609,69.639,16.15,70.092,15.695z
		 M71.747,15.689c0.446,0.451,0.904,0.914,1.378,1.393c-0.172-0.643-0.342-1.269-0.509-1.893
		C72.311,15.365,72.021,15.531,71.747,15.689z M67.168,11.097c0.443,0.456,0.897,0.921,1.338,1.372
		c0.164-0.285,0.333-0.573,0.51-0.878C68.396,11.426,67.768,11.256,67.168,11.097z M69.014,14.991
		c-0.178-0.31-0.344-0.599-0.502-0.872c-0.446,0.446-0.907,0.906-1.375,1.373C67.762,15.326,68.388,15.158,69.014,14.991z
		 M71.438,15.781c-0.356,0-0.694,0-1.048,0c0.168,0.626,0.336,1.252,0.505,1.879c0.014-0.002,0.028-0.003,0.042-0.006
		C71.104,17.031,71.271,16.406,71.438,15.781z M68.422,12.766c-0.625,0.168-1.254,0.336-1.884,0.505
		c-0.001,0.013-0.001,0.024-0.001,0.039c0.631,0.169,1.261,0.337,1.885,0.504C68.422,13.456,68.422,13.129,68.422,12.766z"/>
	<path fill-rule="evenodd" clip-rule="evenodd" fill="none" stroke="#B81C3D" stroke-miterlimit="10" d="M71.453,57.663
		c0,0-4.83-7.262-22.322-8.251C31.639,48.422,7.875,45.781,7.875,36.54"/>
	<path fill-rule="evenodd" clip-rule="evenodd" fill="none" stroke="#B81C3D" stroke-miterlimit="10" d="M70.584,57.663
		c0,0,4.83-7.262,22.322-8.251c17.492-0.99,41.256-3.631,41.256-12.872"/>
	
		<circle fill-rule="evenodd" clip-rule="evenodd" fill="none" stroke="#B81C3D" stroke-width="2" stroke-miterlimit="10" cx="70.735" cy="57.648" r="4.964"/>
	<g>
		<polyline fill="none" stroke="#B81C3D" stroke-width="3" stroke-miterlimit="10" points="7.838,179.588 22.451,171.5 71.5,171.5 
					"/>
		<polyline fill="none" stroke="#B81C3D" stroke-width="3" stroke-miterlimit="10" points="135.07,179.588 120.366,171.5 
			71.5,171.5 		"/>
	</g>
	<line fill="none" stroke="#B81C3D" stroke-width="3" stroke-miterlimit="10" x1="7.216" y1="151.725" x2="22.451" y2="171.857"/>
	
		<line fill="none" stroke="#B81C3D" stroke-width="3" stroke-miterlimit="10" x1="133.952" y1="153.705" x2="120.366" y2="171.857"/>
</g>
</svg>
