<?xml version="1.0" encoding="utf-8"?>
<!-- Generator: Adobe Illustrator 18.1.0, SVG Export Plug-In . SVG Version: 6.00 Build 0)  -->
<svg version="1.1" id="圖層_1" xmlns="http://www.w3.org/2000/svg" xmlns:xlink="http://www.w3.org/1999/xlink" x="0px" y="0px"
	 viewBox="344 -17 707 54" enable-background="new 344 -17 707 54" xml:space="preserve">
<g>
	<polygon fill="#98272D" points="344,36 486,36 486,22 456.2,22 468,-3 365.5,-3 371,16.5 	"/>
	<polygon fill="#FBB03B" points="456.2,22 486,35.8 486,22 	"/>
	<polygon fill="#B81C3D" points="936,22 455,22 475.7,-18 917,-18 	"/>
	<polygon fill="#98272D" points="1048.3,36 906,36 906,22 936,22 924.3,-3 1026.8,-3 1021.3,16.5 	"/>
	<polygon fill="#FBB03B" points="936,22 906,35.8 906,22 	"/>
	<g>
		<text transform="matrix(1 0 0 1 643.2939 7.584)" fill="#FFFFFF" font-family="'LiGothicMed'" font-size="21.9555">一起佔領吧</text>
	</g>
	<g>
		<circle fill="none" stroke="#FFFFFF" stroke-width="2" stroke-miterlimit="10" cx="607.9" cy="0.5" r="8.7"/>
		<line fill="none" stroke="#FFFFFF" stroke-width="2" stroke-miterlimit="10" x1="608" y1="1" x2="517" y2="1"/>
	</g>
	<g>
		<circle fill="none" stroke="#FFFFFF" stroke-width="2" stroke-miterlimit="10" cx="787.7" cy="0.5" r="8.7"/>
		<line fill="none" stroke="#FFFFFF" stroke-width="2" stroke-miterlimit="10" x1="788" y1="1" x2="879" y2="1"/>
	</g>
</g>
</svg>
