<?xml version="1.0" encoding="utf-8"?>
<!-- Generator: Adobe Illustrator 18.1.0, SVG Export Plug-In . SVG Version: 6.00 Build 0)  -->
<svg version="1.1" id="圖層_1" xmlns="http://www.w3.org/2000/svg" xmlns:xlink="http://www.w3.org/1999/xlink" x="0px" y="0px"
	 viewBox="346 -20 707 54" enable-background="new 346 -20 707 54" xml:space="preserve">
<g>
	<polygon fill="#98272D" points="346,33 488,33 488,19 458.2,19 470,-6 367.5,-6 373,13.5 	"/>
	<polygon fill="#FBB03B" points="458.2,19 488,32.8 488,19 	"/>
	<polygon fill="#B81C3D" points="938,19 457,19 477.7,-21 919,-21 	"/>
	<polygon fill="#98272D" points="1050.3,33 908,33 908,19 938,19 926.3,-6 1028.8,-6 1023.3,13.5 	"/>
	<polygon fill="#FBB03B" points="938,19 908,32.8 908,19 	"/>
	<g>
		<text transform="matrix(1 0 0 1 655.2939 5.5841)" fill="#FFFFFF" font-family="'LiGothicMed'" font-size="21.9555">錯誤回報</text>
	</g>
	<g>
		<circle fill="none" stroke="#FFFFFF" stroke-width="2" stroke-miterlimit="10" cx="609.9" cy="-2.5" r="8.7"/>
		<line fill="none" stroke="#FFFFFF" stroke-width="2" stroke-miterlimit="10" x1="610" y1="-2" x2="519" y2="-2"/>
	</g>
	<g>
		<circle fill="none" stroke="#FFFFFF" stroke-width="2" stroke-miterlimit="10" cx="789.7" cy="-2.5" r="8.7"/>
		<line fill="none" stroke="#FFFFFF" stroke-width="2" stroke-miterlimit="10" x1="790" y1="-2" x2="881" y2="-2"/>
	</g>
</g>
</svg>
