<?xml version="1.0" encoding="utf-8"?>
<!-- Generator: Adobe Illustrator 16.0.0, SVG Export Plug-In . SVG Version: 6.00 Build 0)  -->
<!DOCTYPE svg PUBLIC "-//W3C//DTD SVG 1.1//EN" "http://www.w3.org/Graphics/SVG/1.1/DTD/svg11.dtd">
<svg version="1.1" id="圖層_1" xmlns="http://www.w3.org/2000/svg" xmlns:xlink="http://www.w3.org/1999/xlink" x="0px" y="0px"
	 width="83px" height="95.25px" viewBox="0 0 83 95.25" enable-background="new 0 0 83 95.25" xml:space="preserve">
<g>
	<polygon fill="#B81C3D" points="0.25,23.872 41.75,0.121 83.25,23.872 83.25,71.375 41.75,95.126 0.25,71.375 	"/>
</g>
<g>
	<path fill-rule="evenodd" clip-rule="evenodd" fill="#FFFFFF" d="M42.087,45.434c-5.75,0-11.5,0.009-17.25-0.014
		c-0.632-0.002-0.84,0.153-0.838,0.813c0.023,6.797,0.021,13.595,0.008,20.392c-0.001,0.522-0.065,1.062-0.205,1.563
		c-0.246,0.877-0.959,1.379-1.858,1.397c-0.535,0.011-1.069,0.003-1.604,0.003c-1.594-0.001-2.379-0.776-2.379-2.349
		c-0.001-6.774-0.002-13.55-0.002-20.325c0-0.312,0.048-0.635-0.019-0.932c-0.048-0.209-0.214-0.484-0.395-0.554
		c-1.156-0.445-1.697-1.236-1.641-2.491c0.05-1.112,0.032-2.229,0.005-3.343c-0.018-0.697,0.238-1.255,0.733-1.708
		c2.968-2.713,5.925-5.438,8.935-8.104c0.364-0.321,1.025-0.43,1.549-0.432c9.939-0.025,19.879-0.009,29.818-0.036
		c1.056-0.002,1.777,0.512,2.48,1.158c2.674,2.455,5.345,4.912,8.018,7.369c0.53,0.487,0.83,1.067,0.817,1.811
		c-0.019,1.114-0.033,2.229,0.006,3.343c0.042,1.194-0.475,2.012-1.583,2.38c-0.44,0.146-0.471,0.375-0.47,0.729
		c0.005,2.006,0.002,4.012,0.002,6.018c-0.001,5.015,0.001,10.028-0.003,15.043c0,1.672-0.768,2.426-2.448,2.423
		c-0.401-0.001-0.802-0.002-1.204-0.001c-1.53,0.004-2.384-0.809-2.389-2.36c-0.017-5.081-0.01-10.163-0.012-15.244
		c-0.001-1.938-0.023-3.878,0.013-5.816c0.011-0.604-0.197-0.746-0.77-0.745C53.631,45.44,47.858,45.434,42.087,45.434z"/>
	<path fill-rule="evenodd" clip-rule="evenodd" fill="#FFFFFF" d="M58.149,52.865c0,1.536,0.011,3.071-0.004,4.606
		c-0.009,0.923-0.571,1.709-1.332,1.929c-0.931,0.27-1.809-0.013-2.315-0.845c-0.194-0.317-0.282-0.748-0.286-1.129
		c-0.032-3.115-0.033-6.23-0.042-9.347c-0.001-0.376,0.086-0.642,0.559-0.632c0.957,0.021,1.914,0.021,2.871,0.002
		c0.45-0.009,0.563,0.193,0.56,0.608c-0.016,1.602-0.006,3.204-0.006,4.807C58.151,52.865,58.15,52.865,58.149,52.865z"/>
	<path fill-rule="evenodd" clip-rule="evenodd" fill="#FFFFFF" d="M26.019,52.797c0-1.558,0.021-3.115-0.011-4.671
		c-0.011-0.544,0.19-0.698,0.7-0.682c0.889,0.029,1.779,0.022,2.669,0.003c0.415-0.009,0.623,0.129,0.62,0.566
		c-0.015,3.181-0.001,6.362-0.044,9.542c-0.017,1.218-0.833,1.945-1.995,1.921c-1.133-0.023-1.915-0.815-1.93-2.009
		c-0.021-1.557-0.006-3.114-0.006-4.671C26.022,52.797,26.021,52.797,26.019,52.797z"/>
</g>
</svg>
